G04 #@! TF.GenerationSoftware,KiCad,Pcbnew,(5.99.0-168-g9990dcc1b)*
G04 #@! TF.CreationDate,2019-12-17T14:25:06+03:00*
G04 #@! TF.ProjectId,SmartPartsIONBoard,536d6172-7450-4617-9274-73494f4e426f,rev?*
G04 #@! TF.SameCoordinates,Original*
G04 #@! TF.FileFunction,Soldermask,Bot*
G04 #@! TF.FilePolarity,Negative*
%FSLAX46Y46*%
G04 Gerber Fmt 4.6, Leading zero omitted, Abs format (unit mm)*
G04 Created by KiCad (PCBNEW (5.99.0-168-g9990dcc1b)) date 2019-12-17 14:25:06*
%MOMM*%
%LPD*%
G04 APERTURE LIST*
%ADD10C,0.100000*%
G04 APERTURE END LIST*
D10*
G36*
X72886675Y-71012627D02*
G01*
X72927905Y-71014680D01*
X72976080Y-71026468D01*
X73030954Y-71034963D01*
X73069728Y-71049383D01*
X73104176Y-71057812D01*
X73154544Y-71080925D01*
X73212037Y-71102307D01*
X73242173Y-71121138D01*
X73269107Y-71133498D01*
X73318922Y-71169097D01*
X73375880Y-71204688D01*
X73397387Y-71225168D01*
X73416749Y-71239005D01*
X73462931Y-71287585D01*
X73515790Y-71337922D01*
X73529404Y-71357511D01*
X73541782Y-71370531D01*
X73581083Y-71431866D01*
X73626052Y-71496569D01*
X73633145Y-71513119D01*
X73639683Y-71523322D01*
X73668818Y-71596349D01*
X73702162Y-71674146D01*
X73704606Y-71686051D01*
X73706928Y-71691872D01*
X73722813Y-71774748D01*
X73741010Y-71863400D01*
X73740988Y-71869580D01*
X73741056Y-71869932D01*
X73740404Y-72056704D01*
X73740335Y-72057053D01*
X73740313Y-72063237D01*
X73721491Y-72151785D01*
X73705034Y-72234522D01*
X73702671Y-72240327D01*
X73700144Y-72252215D01*
X73666246Y-72329806D01*
X73636613Y-72402599D01*
X73630009Y-72412748D01*
X73622797Y-72429257D01*
X73577357Y-72493672D01*
X73537645Y-72554707D01*
X73525180Y-72567637D01*
X73511430Y-72587129D01*
X73458221Y-72637096D01*
X73411704Y-72685349D01*
X73392248Y-72699048D01*
X73370593Y-72719384D01*
X73313380Y-72754582D01*
X73263323Y-72789828D01*
X73236302Y-72802000D01*
X73206039Y-72820618D01*
X73148399Y-72841597D01*
X73097868Y-72864360D01*
X73063362Y-72872549D01*
X73024490Y-72886697D01*
X72969568Y-72894807D01*
X72921307Y-72906260D01*
X72880057Y-72908025D01*
X72833363Y-72914920D01*
X72783741Y-72912146D01*
X72740000Y-72914017D01*
X72693403Y-72907095D01*
X72640464Y-72904135D01*
X72598057Y-72892931D01*
X72560504Y-72887352D01*
X72510566Y-72869815D01*
X72453673Y-72854783D01*
X72419600Y-72837869D01*
X72389288Y-72827224D01*
X72338557Y-72797639D01*
X72280621Y-72768879D01*
X72255245Y-72749053D01*
X72232528Y-72735805D01*
X72183930Y-72693335D01*
X72128378Y-72649933D01*
X72111292Y-72629857D01*
X72095884Y-72616392D01*
X72052628Y-72560928D01*
X72003161Y-72502804D01*
X71993277Y-72484825D01*
X71984285Y-72473295D01*
X71949661Y-72405488D01*
X71910086Y-72333501D01*
X71905749Y-72319492D01*
X71901760Y-72311679D01*
X71878983Y-72233022D01*
X71852955Y-72148941D01*
X71852095Y-72140173D01*
X71851285Y-72137375D01*
X71843295Y-72050423D01*
X71834102Y-71956663D01*
X71843949Y-71862976D01*
X71852546Y-71776079D01*
X71853376Y-71773287D01*
X71854297Y-71764521D01*
X71880920Y-71680594D01*
X71904237Y-71602129D01*
X71908280Y-71594346D01*
X71912715Y-71580365D01*
X71952811Y-71508621D01*
X71987891Y-71441090D01*
X71996956Y-71429632D01*
X72006969Y-71411716D01*
X72056849Y-71353930D01*
X72100484Y-71298776D01*
X72115984Y-71285420D01*
X72133210Y-71265464D01*
X72189069Y-71222447D01*
X72237959Y-71180321D01*
X72260768Y-71167232D01*
X72286281Y-71147584D01*
X72344401Y-71119237D01*
X72395350Y-71089999D01*
X72425746Y-71079562D01*
X72459928Y-71062891D01*
X72516921Y-71048258D01*
X72566983Y-71031069D01*
X72604572Y-71025753D01*
X72647059Y-71014844D01*
X72700020Y-71012254D01*
X72746663Y-71005657D01*
X72790388Y-71007834D01*
X72840028Y-71005406D01*
X72886675Y-71012627D01*
X72886675Y-71012627D01*
G37*
G36*
X64645561Y-63291809D02*
G01*
X64683104Y-63316895D01*
X64686067Y-63321329D01*
X64740111Y-63366495D01*
X64809995Y-63375272D01*
X64893933Y-63321329D01*
X64896896Y-63316895D01*
X64934439Y-63291809D01*
X64991034Y-63280552D01*
X65088966Y-63280552D01*
X65145561Y-63291809D01*
X65183104Y-63316895D01*
X65186067Y-63321329D01*
X65240111Y-63366495D01*
X65309995Y-63375272D01*
X65393933Y-63321329D01*
X65396896Y-63316895D01*
X65434439Y-63291809D01*
X65491034Y-63280552D01*
X65588966Y-63280552D01*
X65645561Y-63291809D01*
X65683104Y-63316895D01*
X65686067Y-63321329D01*
X65740111Y-63366495D01*
X65809995Y-63375272D01*
X65893933Y-63321329D01*
X65896896Y-63316895D01*
X65934439Y-63291809D01*
X65991034Y-63280552D01*
X66088966Y-63280552D01*
X66145561Y-63291809D01*
X66183104Y-63316895D01*
X66186067Y-63321329D01*
X66240111Y-63366495D01*
X66309995Y-63375272D01*
X66393933Y-63321329D01*
X66396896Y-63316895D01*
X66434439Y-63291809D01*
X66491034Y-63280552D01*
X66588966Y-63280552D01*
X66645561Y-63291809D01*
X66683104Y-63316895D01*
X66686067Y-63321329D01*
X66740111Y-63366495D01*
X66809995Y-63375272D01*
X66893933Y-63321329D01*
X66896896Y-63316895D01*
X66934439Y-63291809D01*
X66991034Y-63280552D01*
X67088966Y-63280552D01*
X67145561Y-63291809D01*
X67183104Y-63316895D01*
X67186067Y-63321329D01*
X67240111Y-63366495D01*
X67309995Y-63375272D01*
X67393933Y-63321329D01*
X67396896Y-63316895D01*
X67434439Y-63291809D01*
X67491034Y-63280552D01*
X67588966Y-63280552D01*
X67645561Y-63291809D01*
X67683104Y-63316895D01*
X67686067Y-63321329D01*
X67740111Y-63366495D01*
X67809995Y-63375272D01*
X67893933Y-63321329D01*
X67896896Y-63316895D01*
X67934439Y-63291809D01*
X67991034Y-63280552D01*
X68088966Y-63280552D01*
X68145561Y-63291809D01*
X68183105Y-63316895D01*
X68208191Y-63354439D01*
X68219448Y-63411034D01*
X68219448Y-64146276D01*
X68220692Y-64146276D01*
X68225826Y-64203626D01*
X68269036Y-64259246D01*
X68353724Y-64277669D01*
X68353724Y-64280552D01*
X69088966Y-64280552D01*
X69145561Y-64291809D01*
X69183105Y-64316895D01*
X69208191Y-64354439D01*
X69219448Y-64411034D01*
X69219448Y-64508966D01*
X69208191Y-64565561D01*
X69183105Y-64603104D01*
X69178671Y-64606067D01*
X69133505Y-64660111D01*
X69124728Y-64729995D01*
X69178671Y-64813933D01*
X69183105Y-64816896D01*
X69208191Y-64854439D01*
X69219448Y-64911034D01*
X69219448Y-65008966D01*
X69208191Y-65065561D01*
X69183105Y-65103104D01*
X69178671Y-65106067D01*
X69133505Y-65160111D01*
X69124728Y-65229995D01*
X69178671Y-65313933D01*
X69183105Y-65316896D01*
X69208191Y-65354439D01*
X69219448Y-65411034D01*
X69219448Y-65508966D01*
X69208191Y-65565561D01*
X69183105Y-65603104D01*
X69178671Y-65606067D01*
X69133505Y-65660111D01*
X69124728Y-65729995D01*
X69178671Y-65813933D01*
X69183105Y-65816896D01*
X69208191Y-65854439D01*
X69219448Y-65911034D01*
X69219448Y-66008966D01*
X69208191Y-66065561D01*
X69183105Y-66103104D01*
X69178671Y-66106067D01*
X69133505Y-66160111D01*
X69124728Y-66229995D01*
X69178671Y-66313933D01*
X69183105Y-66316896D01*
X69208191Y-66354439D01*
X69219448Y-66411034D01*
X69219448Y-66508966D01*
X69208191Y-66565561D01*
X69183105Y-66603104D01*
X69178671Y-66606067D01*
X69133505Y-66660111D01*
X69124728Y-66729995D01*
X69178671Y-66813933D01*
X69183105Y-66816896D01*
X69208191Y-66854439D01*
X69219448Y-66911034D01*
X69219448Y-67008966D01*
X69208191Y-67065561D01*
X69183105Y-67103104D01*
X69178671Y-67106067D01*
X69133505Y-67160111D01*
X69124728Y-67229995D01*
X69178671Y-67313933D01*
X69183105Y-67316896D01*
X69208191Y-67354439D01*
X69219448Y-67411034D01*
X69219448Y-67508966D01*
X69208191Y-67565561D01*
X69183105Y-67603104D01*
X69178671Y-67606067D01*
X69133505Y-67660111D01*
X69124728Y-67729995D01*
X69178671Y-67813933D01*
X69183105Y-67816896D01*
X69208191Y-67854439D01*
X69219448Y-67911034D01*
X69219448Y-68008966D01*
X69208191Y-68065561D01*
X69183105Y-68103105D01*
X69145561Y-68128191D01*
X69088966Y-68139448D01*
X68353724Y-68139448D01*
X68353724Y-68140692D01*
X68296374Y-68145826D01*
X68240754Y-68189036D01*
X68222331Y-68273724D01*
X68219448Y-68273724D01*
X68219448Y-69008966D01*
X68208191Y-69065561D01*
X68183105Y-69103105D01*
X68145561Y-69128191D01*
X68088966Y-69139448D01*
X67991034Y-69139448D01*
X67934439Y-69128191D01*
X67896896Y-69103105D01*
X67893933Y-69098671D01*
X67839889Y-69053505D01*
X67770005Y-69044728D01*
X67686067Y-69098671D01*
X67683104Y-69103105D01*
X67645561Y-69128191D01*
X67588966Y-69139448D01*
X67491034Y-69139448D01*
X67434439Y-69128191D01*
X67396896Y-69103105D01*
X67393933Y-69098671D01*
X67339889Y-69053505D01*
X67270005Y-69044728D01*
X67186067Y-69098671D01*
X67183104Y-69103105D01*
X67145561Y-69128191D01*
X67088966Y-69139448D01*
X66991034Y-69139448D01*
X66934439Y-69128191D01*
X66896896Y-69103105D01*
X66893933Y-69098671D01*
X66839889Y-69053505D01*
X66770005Y-69044728D01*
X66686067Y-69098671D01*
X66683104Y-69103105D01*
X66645561Y-69128191D01*
X66588966Y-69139448D01*
X66491034Y-69139448D01*
X66434439Y-69128191D01*
X66396896Y-69103105D01*
X66393933Y-69098671D01*
X66339889Y-69053505D01*
X66270005Y-69044728D01*
X66186067Y-69098671D01*
X66183104Y-69103105D01*
X66145561Y-69128191D01*
X66088966Y-69139448D01*
X65991034Y-69139448D01*
X65934439Y-69128191D01*
X65896896Y-69103105D01*
X65893933Y-69098671D01*
X65839889Y-69053505D01*
X65770005Y-69044728D01*
X65686067Y-69098671D01*
X65683104Y-69103105D01*
X65645561Y-69128191D01*
X65588966Y-69139448D01*
X65491034Y-69139448D01*
X65434439Y-69128191D01*
X65396896Y-69103105D01*
X65393933Y-69098671D01*
X65339889Y-69053505D01*
X65270005Y-69044728D01*
X65186067Y-69098671D01*
X65183104Y-69103105D01*
X65145561Y-69128191D01*
X65088966Y-69139448D01*
X64991034Y-69139448D01*
X64934439Y-69128191D01*
X64896896Y-69103105D01*
X64893933Y-69098671D01*
X64839889Y-69053505D01*
X64770005Y-69044728D01*
X64686067Y-69098671D01*
X64683104Y-69103105D01*
X64645561Y-69128191D01*
X64588966Y-69139448D01*
X64491034Y-69139448D01*
X64434439Y-69128191D01*
X64396895Y-69103105D01*
X64371809Y-69065561D01*
X64360552Y-69008966D01*
X64360552Y-68273724D01*
X64359308Y-68273724D01*
X64354174Y-68216374D01*
X64310964Y-68160754D01*
X64226276Y-68142331D01*
X64226276Y-68139448D01*
X63491034Y-68139448D01*
X63434439Y-68128191D01*
X63396895Y-68103105D01*
X63371809Y-68065561D01*
X63360552Y-68008966D01*
X63360552Y-67911034D01*
X63371809Y-67854439D01*
X63396895Y-67816896D01*
X63401329Y-67813933D01*
X63446495Y-67759889D01*
X63455272Y-67690005D01*
X63401329Y-67606067D01*
X63396895Y-67603104D01*
X63371809Y-67565561D01*
X63360552Y-67508966D01*
X63360552Y-67411034D01*
X63371809Y-67354439D01*
X63396895Y-67316896D01*
X63401329Y-67313933D01*
X63446495Y-67259889D01*
X63455272Y-67190005D01*
X63401329Y-67106067D01*
X63396895Y-67103104D01*
X63371809Y-67065561D01*
X63360552Y-67008966D01*
X63360552Y-66911034D01*
X63371809Y-66854439D01*
X63396895Y-66816896D01*
X63401329Y-66813933D01*
X63446495Y-66759889D01*
X63455272Y-66690005D01*
X63401329Y-66606067D01*
X63396895Y-66603104D01*
X63371809Y-66565561D01*
X63360552Y-66508966D01*
X63360552Y-66411034D01*
X63371809Y-66354439D01*
X63396895Y-66316896D01*
X63401329Y-66313933D01*
X63446495Y-66259889D01*
X63455272Y-66190005D01*
X63401329Y-66106067D01*
X63396895Y-66103104D01*
X63371809Y-66065561D01*
X63360552Y-66008966D01*
X63360552Y-65911034D01*
X63371809Y-65854439D01*
X63396895Y-65816896D01*
X63401329Y-65813933D01*
X63446495Y-65759889D01*
X63455272Y-65690005D01*
X63401329Y-65606067D01*
X63396895Y-65603104D01*
X63371809Y-65565561D01*
X63360552Y-65508966D01*
X63360552Y-65411034D01*
X63371809Y-65354439D01*
X63396895Y-65316896D01*
X63401329Y-65313933D01*
X63446495Y-65259889D01*
X63455272Y-65190005D01*
X63401329Y-65106067D01*
X63396895Y-65103104D01*
X63371809Y-65065561D01*
X63360552Y-65008966D01*
X63360552Y-64911034D01*
X63371809Y-64854439D01*
X63396895Y-64816896D01*
X63401329Y-64813933D01*
X63446495Y-64759889D01*
X63450249Y-64729995D01*
X64249728Y-64729995D01*
X64303671Y-64813933D01*
X64308105Y-64816896D01*
X64333191Y-64854439D01*
X64344448Y-64911034D01*
X64344448Y-65008966D01*
X64333191Y-65065561D01*
X64308105Y-65103104D01*
X64303671Y-65106067D01*
X64258505Y-65160111D01*
X64249728Y-65229995D01*
X64303671Y-65313933D01*
X64308105Y-65316896D01*
X64333191Y-65354439D01*
X64344448Y-65411034D01*
X64344448Y-65508966D01*
X64333191Y-65565561D01*
X64308105Y-65603104D01*
X64303671Y-65606067D01*
X64258505Y-65660111D01*
X64249728Y-65729995D01*
X64303671Y-65813933D01*
X64308105Y-65816896D01*
X64333191Y-65854439D01*
X64344448Y-65911034D01*
X64344448Y-66008966D01*
X64333191Y-66065561D01*
X64308105Y-66103104D01*
X64303671Y-66106067D01*
X64258505Y-66160111D01*
X64249728Y-66229995D01*
X64303671Y-66313933D01*
X64308105Y-66316896D01*
X64333191Y-66354439D01*
X64344448Y-66411034D01*
X64344448Y-66508966D01*
X64333191Y-66565561D01*
X64308105Y-66603104D01*
X64303671Y-66606067D01*
X64258505Y-66660111D01*
X64249728Y-66729995D01*
X64303671Y-66813933D01*
X64308105Y-66816896D01*
X64333191Y-66854439D01*
X64344448Y-66911034D01*
X64344448Y-67008966D01*
X64333191Y-67065561D01*
X64308105Y-67103104D01*
X64303671Y-67106067D01*
X64258505Y-67160111D01*
X64249728Y-67229995D01*
X64303671Y-67313933D01*
X64308105Y-67316896D01*
X64333191Y-67354439D01*
X64344448Y-67411034D01*
X64344448Y-67508966D01*
X64333191Y-67565561D01*
X64308105Y-67603104D01*
X64303671Y-67606067D01*
X64258505Y-67660111D01*
X64249728Y-67729995D01*
X64303671Y-67813933D01*
X64308105Y-67816896D01*
X64333191Y-67854439D01*
X64344448Y-67911034D01*
X64344448Y-68021276D01*
X64345692Y-68021276D01*
X64350826Y-68078626D01*
X64394036Y-68134246D01*
X64478724Y-68152669D01*
X64478724Y-68155552D01*
X64588966Y-68155552D01*
X64645561Y-68166809D01*
X64683104Y-68191895D01*
X64686067Y-68196329D01*
X64740111Y-68241495D01*
X64809995Y-68250272D01*
X64893933Y-68196329D01*
X64896896Y-68191895D01*
X64934439Y-68166809D01*
X64991034Y-68155552D01*
X65088966Y-68155552D01*
X65145561Y-68166809D01*
X65183104Y-68191895D01*
X65186067Y-68196329D01*
X65240111Y-68241495D01*
X65309995Y-68250272D01*
X65393933Y-68196329D01*
X65396896Y-68191895D01*
X65434439Y-68166809D01*
X65491034Y-68155552D01*
X65588966Y-68155552D01*
X65645561Y-68166809D01*
X65683104Y-68191895D01*
X65686067Y-68196329D01*
X65740111Y-68241495D01*
X65809995Y-68250272D01*
X65893933Y-68196329D01*
X65896896Y-68191895D01*
X65934439Y-68166809D01*
X65991034Y-68155552D01*
X66088966Y-68155552D01*
X66145561Y-68166809D01*
X66183104Y-68191895D01*
X66186067Y-68196329D01*
X66240111Y-68241495D01*
X66309995Y-68250272D01*
X66393933Y-68196329D01*
X66396896Y-68191895D01*
X66434439Y-68166809D01*
X66491034Y-68155552D01*
X66588966Y-68155552D01*
X66645561Y-68166809D01*
X66683104Y-68191895D01*
X66686067Y-68196329D01*
X66740111Y-68241495D01*
X66809995Y-68250272D01*
X66893933Y-68196329D01*
X66896896Y-68191895D01*
X66934439Y-68166809D01*
X66991034Y-68155552D01*
X67088966Y-68155552D01*
X67145561Y-68166809D01*
X67183104Y-68191895D01*
X67186067Y-68196329D01*
X67240111Y-68241495D01*
X67309995Y-68250272D01*
X67393933Y-68196329D01*
X67396896Y-68191895D01*
X67434439Y-68166809D01*
X67491034Y-68155552D01*
X67588966Y-68155552D01*
X67645561Y-68166809D01*
X67683104Y-68191895D01*
X67686067Y-68196329D01*
X67740111Y-68241495D01*
X67809995Y-68250272D01*
X67893933Y-68196329D01*
X67896896Y-68191895D01*
X67934439Y-68166809D01*
X67991034Y-68155552D01*
X68101276Y-68155552D01*
X68101276Y-68154308D01*
X68158626Y-68149174D01*
X68214246Y-68105964D01*
X68232669Y-68021276D01*
X68235552Y-68021276D01*
X68235552Y-67911034D01*
X68246809Y-67854439D01*
X68271895Y-67816896D01*
X68276329Y-67813933D01*
X68321495Y-67759889D01*
X68330272Y-67690005D01*
X68276329Y-67606067D01*
X68271895Y-67603104D01*
X68246809Y-67565561D01*
X68235552Y-67508966D01*
X68235552Y-67411034D01*
X68246809Y-67354439D01*
X68271895Y-67316896D01*
X68276329Y-67313933D01*
X68321495Y-67259889D01*
X68330272Y-67190005D01*
X68276329Y-67106067D01*
X68271895Y-67103104D01*
X68246809Y-67065561D01*
X68235552Y-67008966D01*
X68235552Y-66911034D01*
X68246809Y-66854439D01*
X68271895Y-66816896D01*
X68276329Y-66813933D01*
X68321495Y-66759889D01*
X68330272Y-66690005D01*
X68276329Y-66606067D01*
X68271895Y-66603104D01*
X68246809Y-66565561D01*
X68235552Y-66508966D01*
X68235552Y-66411034D01*
X68246809Y-66354439D01*
X68271895Y-66316896D01*
X68276329Y-66313933D01*
X68321495Y-66259889D01*
X68330272Y-66190005D01*
X68276329Y-66106067D01*
X68271895Y-66103104D01*
X68246809Y-66065561D01*
X68235552Y-66008966D01*
X68235552Y-65911034D01*
X68246809Y-65854439D01*
X68271895Y-65816896D01*
X68276329Y-65813933D01*
X68321495Y-65759889D01*
X68330272Y-65690005D01*
X68276329Y-65606067D01*
X68271895Y-65603104D01*
X68246809Y-65565561D01*
X68235552Y-65508966D01*
X68235552Y-65411034D01*
X68246809Y-65354439D01*
X68271895Y-65316896D01*
X68276329Y-65313933D01*
X68321495Y-65259889D01*
X68330272Y-65190005D01*
X68276329Y-65106067D01*
X68271895Y-65103104D01*
X68246809Y-65065561D01*
X68235552Y-65008966D01*
X68235552Y-64911034D01*
X68246809Y-64854439D01*
X68271895Y-64816896D01*
X68276329Y-64813933D01*
X68321495Y-64759889D01*
X68330272Y-64690005D01*
X68276329Y-64606067D01*
X68271895Y-64603104D01*
X68246809Y-64565561D01*
X68235552Y-64508966D01*
X68235552Y-64398724D01*
X68234308Y-64398724D01*
X68229174Y-64341374D01*
X68185964Y-64285754D01*
X68101276Y-64267331D01*
X68101276Y-64264448D01*
X67991034Y-64264448D01*
X67934439Y-64253191D01*
X67896896Y-64228105D01*
X67893933Y-64223671D01*
X67839889Y-64178505D01*
X67770005Y-64169728D01*
X67686067Y-64223671D01*
X67683104Y-64228105D01*
X67645561Y-64253191D01*
X67588966Y-64264448D01*
X67491034Y-64264448D01*
X67434439Y-64253191D01*
X67396896Y-64228105D01*
X67393933Y-64223671D01*
X67339889Y-64178505D01*
X67270005Y-64169728D01*
X67186067Y-64223671D01*
X67183104Y-64228105D01*
X67145561Y-64253191D01*
X67088966Y-64264448D01*
X66991034Y-64264448D01*
X66934439Y-64253191D01*
X66896896Y-64228105D01*
X66893933Y-64223671D01*
X66839889Y-64178505D01*
X66770005Y-64169728D01*
X66686067Y-64223671D01*
X66683104Y-64228105D01*
X66645561Y-64253191D01*
X66588966Y-64264448D01*
X66491034Y-64264448D01*
X66434439Y-64253191D01*
X66396896Y-64228105D01*
X66393933Y-64223671D01*
X66339889Y-64178505D01*
X66270005Y-64169728D01*
X66186067Y-64223671D01*
X66183104Y-64228105D01*
X66145561Y-64253191D01*
X66088966Y-64264448D01*
X65991034Y-64264448D01*
X65934439Y-64253191D01*
X65896896Y-64228105D01*
X65893933Y-64223671D01*
X65839889Y-64178505D01*
X65770005Y-64169728D01*
X65686067Y-64223671D01*
X65683104Y-64228105D01*
X65645561Y-64253191D01*
X65588966Y-64264448D01*
X65491034Y-64264448D01*
X65434439Y-64253191D01*
X65396896Y-64228105D01*
X65393933Y-64223671D01*
X65339889Y-64178505D01*
X65270005Y-64169728D01*
X65186067Y-64223671D01*
X65183104Y-64228105D01*
X65145561Y-64253191D01*
X65088966Y-64264448D01*
X64991034Y-64264448D01*
X64934439Y-64253191D01*
X64896896Y-64228105D01*
X64893933Y-64223671D01*
X64839889Y-64178505D01*
X64770005Y-64169728D01*
X64686067Y-64223671D01*
X64683104Y-64228105D01*
X64645561Y-64253191D01*
X64588966Y-64264448D01*
X64478724Y-64264448D01*
X64478724Y-64265692D01*
X64421374Y-64270826D01*
X64365754Y-64314036D01*
X64347331Y-64398724D01*
X64344448Y-64398724D01*
X64344448Y-64508966D01*
X64333191Y-64565561D01*
X64308105Y-64603104D01*
X64303671Y-64606067D01*
X64258505Y-64660111D01*
X64249728Y-64729995D01*
X63450249Y-64729995D01*
X63455272Y-64690005D01*
X63401329Y-64606067D01*
X63396895Y-64603104D01*
X63371809Y-64565561D01*
X63360552Y-64508966D01*
X63360552Y-64411034D01*
X63371809Y-64354439D01*
X63396895Y-64316895D01*
X63434439Y-64291809D01*
X63491034Y-64280552D01*
X64226276Y-64280552D01*
X64226276Y-64279308D01*
X64283626Y-64274174D01*
X64339246Y-64230964D01*
X64357669Y-64146276D01*
X64360552Y-64146276D01*
X64360552Y-63411034D01*
X64371809Y-63354439D01*
X64396895Y-63316895D01*
X64434439Y-63291809D01*
X64491034Y-63280552D01*
X64588966Y-63280552D01*
X64645561Y-63291809D01*
X64645561Y-63291809D01*
G37*
G36*
X67676756Y-64621764D02*
G01*
X67688227Y-64627288D01*
X67696287Y-64628795D01*
X67713547Y-64639482D01*
X67758638Y-64661197D01*
X67778738Y-64679847D01*
X67791964Y-64688036D01*
X67802265Y-64701676D01*
X67825264Y-64723016D01*
X67847614Y-64761727D01*
X67859781Y-64777839D01*
X67861751Y-64786213D01*
X67869506Y-64799646D01*
X67888419Y-64899601D01*
X67891883Y-64914330D01*
X67891883Y-64917909D01*
X67893194Y-64924838D01*
X67893194Y-67497517D01*
X67878236Y-67596756D01*
X67872712Y-67608227D01*
X67871205Y-67616287D01*
X67860518Y-67633547D01*
X67838803Y-67678638D01*
X67820153Y-67698738D01*
X67811964Y-67711964D01*
X67798324Y-67722265D01*
X67776984Y-67745264D01*
X67738273Y-67767614D01*
X67722161Y-67779781D01*
X67713787Y-67781751D01*
X67700354Y-67789506D01*
X67600399Y-67808419D01*
X67585670Y-67811883D01*
X67582091Y-67811883D01*
X67575162Y-67813194D01*
X65002483Y-67813194D01*
X64903244Y-67798236D01*
X64891773Y-67792712D01*
X64883713Y-67791205D01*
X64866453Y-67780518D01*
X64821362Y-67758803D01*
X64801262Y-67740153D01*
X64788036Y-67731964D01*
X64777735Y-67718324D01*
X64754736Y-67696984D01*
X64732386Y-67658273D01*
X64720219Y-67642161D01*
X64718249Y-67633787D01*
X64710494Y-67620354D01*
X64691581Y-67520399D01*
X64688117Y-67505670D01*
X64688117Y-67502091D01*
X64686806Y-67495162D01*
X64686806Y-64922483D01*
X64701764Y-64823244D01*
X64707288Y-64811773D01*
X64708795Y-64803713D01*
X64719482Y-64786453D01*
X64741197Y-64741362D01*
X64759847Y-64721262D01*
X64768036Y-64708036D01*
X64781676Y-64697735D01*
X64803016Y-64674736D01*
X64841727Y-64652386D01*
X64857839Y-64640219D01*
X64866213Y-64638249D01*
X64879646Y-64630494D01*
X64979601Y-64611581D01*
X64994330Y-64608117D01*
X64997909Y-64608117D01*
X65004838Y-64606806D01*
X67577517Y-64606806D01*
X67676756Y-64621764D01*
X67676756Y-64621764D01*
G37*
G36*
X72886675Y-66012627D02*
G01*
X72927905Y-66014680D01*
X72976080Y-66026468D01*
X73030954Y-66034963D01*
X73069728Y-66049383D01*
X73104176Y-66057812D01*
X73154544Y-66080925D01*
X73212037Y-66102307D01*
X73242173Y-66121138D01*
X73269107Y-66133498D01*
X73318922Y-66169097D01*
X73375880Y-66204688D01*
X73397387Y-66225168D01*
X73416749Y-66239005D01*
X73462931Y-66287585D01*
X73515790Y-66337922D01*
X73529404Y-66357511D01*
X73541782Y-66370531D01*
X73581083Y-66431866D01*
X73626052Y-66496569D01*
X73633145Y-66513119D01*
X73639683Y-66523322D01*
X73668818Y-66596349D01*
X73702162Y-66674146D01*
X73704606Y-66686051D01*
X73706928Y-66691872D01*
X73722813Y-66774748D01*
X73741010Y-66863400D01*
X73740988Y-66869580D01*
X73741056Y-66869932D01*
X73740404Y-67056704D01*
X73740335Y-67057053D01*
X73740313Y-67063237D01*
X73721491Y-67151785D01*
X73705034Y-67234522D01*
X73702671Y-67240327D01*
X73700144Y-67252215D01*
X73666246Y-67329806D01*
X73636613Y-67402599D01*
X73630009Y-67412748D01*
X73622797Y-67429257D01*
X73577357Y-67493672D01*
X73537645Y-67554707D01*
X73525180Y-67567637D01*
X73511430Y-67587129D01*
X73458221Y-67637096D01*
X73411704Y-67685349D01*
X73392248Y-67699048D01*
X73370593Y-67719384D01*
X73313380Y-67754582D01*
X73263323Y-67789828D01*
X73236302Y-67802000D01*
X73206039Y-67820618D01*
X73148399Y-67841597D01*
X73097868Y-67864360D01*
X73063362Y-67872549D01*
X73024490Y-67886697D01*
X72969568Y-67894807D01*
X72921307Y-67906260D01*
X72880057Y-67908025D01*
X72833363Y-67914920D01*
X72783741Y-67912146D01*
X72740000Y-67914017D01*
X72693403Y-67907095D01*
X72640464Y-67904135D01*
X72598057Y-67892931D01*
X72560504Y-67887352D01*
X72510566Y-67869815D01*
X72453673Y-67854783D01*
X72419600Y-67837869D01*
X72389288Y-67827224D01*
X72338557Y-67797639D01*
X72280621Y-67768879D01*
X72255245Y-67749053D01*
X72232528Y-67735805D01*
X72183930Y-67693335D01*
X72128378Y-67649933D01*
X72111292Y-67629857D01*
X72095884Y-67616392D01*
X72052628Y-67560928D01*
X72003161Y-67502804D01*
X71993277Y-67484825D01*
X71984285Y-67473295D01*
X71949661Y-67405488D01*
X71910086Y-67333501D01*
X71905749Y-67319492D01*
X71901760Y-67311679D01*
X71878983Y-67233022D01*
X71852955Y-67148941D01*
X71852095Y-67140173D01*
X71851285Y-67137375D01*
X71843295Y-67050423D01*
X71834102Y-66956663D01*
X71843949Y-66862976D01*
X71852546Y-66776079D01*
X71853376Y-66773287D01*
X71854297Y-66764521D01*
X71880920Y-66680594D01*
X71904237Y-66602129D01*
X71908280Y-66594346D01*
X71912715Y-66580365D01*
X71952811Y-66508621D01*
X71987891Y-66441090D01*
X71996956Y-66429632D01*
X72006969Y-66411716D01*
X72056849Y-66353930D01*
X72100484Y-66298776D01*
X72115984Y-66285420D01*
X72133210Y-66265464D01*
X72189069Y-66222447D01*
X72237959Y-66180321D01*
X72260768Y-66167232D01*
X72286281Y-66147584D01*
X72344401Y-66119237D01*
X72395350Y-66089999D01*
X72425746Y-66079562D01*
X72459928Y-66062891D01*
X72516921Y-66048258D01*
X72566983Y-66031069D01*
X72604572Y-66025753D01*
X72647059Y-66014844D01*
X72700020Y-66012254D01*
X72746663Y-66005657D01*
X72790388Y-66007834D01*
X72840028Y-66005406D01*
X72886675Y-66012627D01*
X72886675Y-66012627D01*
G37*
G36*
X72886675Y-60812627D02*
G01*
X72927905Y-60814680D01*
X72976080Y-60826468D01*
X73030954Y-60834963D01*
X73069728Y-60849383D01*
X73104176Y-60857812D01*
X73154544Y-60880925D01*
X73212037Y-60902307D01*
X73242173Y-60921138D01*
X73269107Y-60933498D01*
X73318922Y-60969097D01*
X73375880Y-61004688D01*
X73397387Y-61025168D01*
X73416749Y-61039005D01*
X73462931Y-61087585D01*
X73515790Y-61137922D01*
X73529404Y-61157511D01*
X73541782Y-61170531D01*
X73581083Y-61231866D01*
X73626052Y-61296569D01*
X73633145Y-61313119D01*
X73639683Y-61323322D01*
X73668818Y-61396349D01*
X73702162Y-61474146D01*
X73704606Y-61486051D01*
X73706928Y-61491872D01*
X73722813Y-61574748D01*
X73741010Y-61663400D01*
X73740988Y-61669580D01*
X73741056Y-61669932D01*
X73740404Y-61856704D01*
X73740335Y-61857053D01*
X73740313Y-61863237D01*
X73721491Y-61951785D01*
X73705034Y-62034522D01*
X73702671Y-62040327D01*
X73700144Y-62052215D01*
X73666246Y-62129806D01*
X73636613Y-62202599D01*
X73630009Y-62212748D01*
X73622797Y-62229257D01*
X73577357Y-62293672D01*
X73537645Y-62354707D01*
X73525180Y-62367637D01*
X73511430Y-62387129D01*
X73458221Y-62437096D01*
X73411704Y-62485349D01*
X73392248Y-62499048D01*
X73370593Y-62519384D01*
X73313380Y-62554582D01*
X73263323Y-62589828D01*
X73236302Y-62602000D01*
X73206039Y-62620618D01*
X73148399Y-62641597D01*
X73097868Y-62664360D01*
X73063362Y-62672549D01*
X73024490Y-62686697D01*
X72969568Y-62694807D01*
X72921307Y-62706260D01*
X72880057Y-62708025D01*
X72833363Y-62714920D01*
X72783741Y-62712146D01*
X72740000Y-62714017D01*
X72693403Y-62707095D01*
X72640464Y-62704135D01*
X72598057Y-62692931D01*
X72560504Y-62687352D01*
X72510566Y-62669815D01*
X72453673Y-62654783D01*
X72419600Y-62637869D01*
X72389288Y-62627224D01*
X72338557Y-62597639D01*
X72280621Y-62568879D01*
X72255245Y-62549053D01*
X72232528Y-62535805D01*
X72183930Y-62493335D01*
X72128378Y-62449933D01*
X72111292Y-62429857D01*
X72095884Y-62416392D01*
X72052628Y-62360928D01*
X72003161Y-62302804D01*
X71993277Y-62284825D01*
X71984285Y-62273295D01*
X71949661Y-62205488D01*
X71910086Y-62133501D01*
X71905749Y-62119492D01*
X71901760Y-62111679D01*
X71878983Y-62033022D01*
X71852955Y-61948941D01*
X71852095Y-61940173D01*
X71851285Y-61937375D01*
X71843295Y-61850423D01*
X71834102Y-61756663D01*
X71843949Y-61662976D01*
X71852546Y-61576079D01*
X71853376Y-61573287D01*
X71854297Y-61564521D01*
X71880920Y-61480594D01*
X71904237Y-61402129D01*
X71908280Y-61394346D01*
X71912715Y-61380365D01*
X71952811Y-61308621D01*
X71987891Y-61241090D01*
X71996956Y-61229632D01*
X72006969Y-61211716D01*
X72056849Y-61153930D01*
X72100484Y-61098776D01*
X72115984Y-61085420D01*
X72133210Y-61065464D01*
X72189069Y-61022447D01*
X72237959Y-60980321D01*
X72260768Y-60967232D01*
X72286281Y-60947584D01*
X72344401Y-60919237D01*
X72395350Y-60889999D01*
X72425746Y-60879562D01*
X72459928Y-60862891D01*
X72516921Y-60848258D01*
X72566983Y-60831069D01*
X72604572Y-60825753D01*
X72647059Y-60814844D01*
X72700020Y-60812254D01*
X72746663Y-60805657D01*
X72790388Y-60807834D01*
X72840028Y-60805406D01*
X72886675Y-60812627D01*
X72886675Y-60812627D01*
G37*
G36*
X75499591Y-56969345D02*
G01*
X75550391Y-56969700D01*
X75601051Y-56980099D01*
X75646828Y-56984951D01*
X75696287Y-56999648D01*
X75752293Y-57011145D01*
X75794069Y-57028706D01*
X75831981Y-57039972D01*
X75883722Y-57066392D01*
X75942300Y-57091016D01*
X75974564Y-57112779D01*
X76004015Y-57127817D01*
X76055254Y-57167205D01*
X76113174Y-57206273D01*
X76136070Y-57229330D01*
X76157158Y-57245540D01*
X76204764Y-57298504D01*
X76258407Y-57352523D01*
X76272831Y-57374233D01*
X76286284Y-57389200D01*
X76326922Y-57455646D01*
X76372468Y-57524198D01*
X76379950Y-57542350D01*
X76387065Y-57553984D01*
X76417378Y-57633158D01*
X76451011Y-57714758D01*
X76453572Y-57727693D01*
X76456132Y-57734379D01*
X76472931Y-57825461D01*
X76491045Y-57916944D01*
X76487757Y-58152363D01*
X76484234Y-58167869D01*
X76484069Y-58173973D01*
X76462745Y-58262453D01*
X76442094Y-58353352D01*
X76439358Y-58359497D01*
X76439199Y-58360157D01*
X76381914Y-58488518D01*
X76358261Y-58541645D01*
X76304257Y-58618200D01*
X76250932Y-58695643D01*
X76246520Y-58700048D01*
X76239451Y-58710068D01*
X76174969Y-58771474D01*
X76114227Y-58832109D01*
X76103742Y-58839302D01*
X76090191Y-58852206D01*
X76019960Y-58896776D01*
X75954942Y-58941378D01*
X75937400Y-58949170D01*
X75916165Y-58962646D01*
X75844347Y-58990503D01*
X75778410Y-59019791D01*
X75753446Y-59025761D01*
X75724002Y-59037182D01*
X75654304Y-59049471D01*
X75590543Y-59064720D01*
X75558438Y-59066375D01*
X75521022Y-59072972D01*
X75456608Y-59071623D01*
X75397641Y-59074662D01*
X75359342Y-59069586D01*
X75314955Y-59068656D01*
X75258223Y-59056183D01*
X75206152Y-59049281D01*
X75163267Y-59035306D01*
X75113652Y-59024397D01*
X75066265Y-59003694D01*
X75022498Y-58989431D01*
X74977176Y-58964772D01*
X74924779Y-58941880D01*
X74887565Y-58916016D01*
X74852825Y-58897114D01*
X74807703Y-58860510D01*
X74755530Y-58824249D01*
X74728502Y-58796260D01*
X74702814Y-58775422D01*
X74660877Y-58726233D01*
X74612353Y-58675985D01*
X74594751Y-58648672D01*
X74577495Y-58628432D01*
X74541942Y-58566728D01*
X74500701Y-58502734D01*
X74491105Y-58478498D01*
X74481060Y-58461064D01*
X74455127Y-58387628D01*
X74424826Y-58311096D01*
X74421282Y-58291785D01*
X74416739Y-58278921D01*
X74403546Y-58195152D01*
X74387619Y-58108371D01*
X74387803Y-58095188D01*
X74386689Y-58088114D01*
X74389196Y-57995460D01*
X74390497Y-57902279D01*
X74391895Y-57895703D01*
X74391913Y-57895026D01*
X74421406Y-57756863D01*
X74433350Y-57700672D01*
X74470226Y-57614635D01*
X74506315Y-57527722D01*
X74509718Y-57522492D01*
X74514546Y-57511227D01*
X74564828Y-57437791D01*
X74611658Y-57365818D01*
X74620423Y-57356598D01*
X74630992Y-57341162D01*
X74690409Y-57282977D01*
X74744745Y-57225818D01*
X74760286Y-57214547D01*
X74778253Y-57196953D01*
X74842701Y-57154780D01*
X74901118Y-57112415D01*
X74924301Y-57101382D01*
X74950720Y-57084094D01*
X75016316Y-57057591D01*
X75075532Y-57029410D01*
X75106596Y-57021116D01*
X75141823Y-57006883D01*
X75205128Y-56994807D01*
X75262159Y-56979579D01*
X75300663Y-56976582D01*
X75344284Y-56968261D01*
X75402370Y-56968667D01*
X75454735Y-56964591D01*
X75499591Y-56969345D01*
X75499591Y-56969345D01*
G37*
G36*
X63659591Y-56969345D02*
G01*
X63710391Y-56969700D01*
X63761051Y-56980099D01*
X63806828Y-56984951D01*
X63856287Y-56999648D01*
X63912293Y-57011145D01*
X63954069Y-57028706D01*
X63991981Y-57039972D01*
X64043722Y-57066392D01*
X64102300Y-57091016D01*
X64134564Y-57112779D01*
X64164015Y-57127817D01*
X64215254Y-57167205D01*
X64273174Y-57206273D01*
X64296070Y-57229330D01*
X64317158Y-57245540D01*
X64364764Y-57298504D01*
X64418407Y-57352523D01*
X64432831Y-57374233D01*
X64446284Y-57389200D01*
X64486922Y-57455646D01*
X64532468Y-57524198D01*
X64539950Y-57542350D01*
X64547065Y-57553984D01*
X64577378Y-57633158D01*
X64611011Y-57714758D01*
X64613572Y-57727693D01*
X64616132Y-57734379D01*
X64632931Y-57825461D01*
X64651045Y-57916944D01*
X64647757Y-58152363D01*
X64644234Y-58167869D01*
X64644069Y-58173973D01*
X64622745Y-58262453D01*
X64602094Y-58353352D01*
X64599358Y-58359497D01*
X64599199Y-58360157D01*
X64541914Y-58488518D01*
X64518261Y-58541645D01*
X64464257Y-58618200D01*
X64410932Y-58695643D01*
X64406520Y-58700048D01*
X64399451Y-58710068D01*
X64334969Y-58771474D01*
X64274227Y-58832109D01*
X64263742Y-58839302D01*
X64250191Y-58852206D01*
X64179960Y-58896776D01*
X64114942Y-58941378D01*
X64097400Y-58949170D01*
X64076165Y-58962646D01*
X64004347Y-58990503D01*
X63938410Y-59019791D01*
X63913446Y-59025761D01*
X63884002Y-59037182D01*
X63814304Y-59049471D01*
X63750543Y-59064720D01*
X63718438Y-59066375D01*
X63681022Y-59072972D01*
X63616608Y-59071623D01*
X63557641Y-59074662D01*
X63519342Y-59069586D01*
X63474955Y-59068656D01*
X63418223Y-59056183D01*
X63366152Y-59049281D01*
X63323267Y-59035306D01*
X63273652Y-59024397D01*
X63226265Y-59003694D01*
X63182498Y-58989431D01*
X63137176Y-58964772D01*
X63084779Y-58941880D01*
X63047565Y-58916016D01*
X63012825Y-58897114D01*
X62967703Y-58860510D01*
X62915530Y-58824249D01*
X62888502Y-58796260D01*
X62862814Y-58775422D01*
X62820877Y-58726233D01*
X62772353Y-58675985D01*
X62754751Y-58648672D01*
X62737495Y-58628432D01*
X62701942Y-58566728D01*
X62660701Y-58502734D01*
X62651105Y-58478498D01*
X62641060Y-58461064D01*
X62615127Y-58387628D01*
X62584826Y-58311096D01*
X62581282Y-58291785D01*
X62576739Y-58278921D01*
X62563546Y-58195152D01*
X62547619Y-58108371D01*
X62547803Y-58095188D01*
X62546689Y-58088114D01*
X62549196Y-57995460D01*
X62550497Y-57902279D01*
X62551895Y-57895703D01*
X62551913Y-57895026D01*
X62581406Y-57756863D01*
X62593350Y-57700672D01*
X62630226Y-57614635D01*
X62666315Y-57527722D01*
X62669718Y-57522492D01*
X62674546Y-57511227D01*
X62724828Y-57437791D01*
X62771658Y-57365818D01*
X62780423Y-57356598D01*
X62790992Y-57341162D01*
X62850409Y-57282977D01*
X62904745Y-57225818D01*
X62920286Y-57214547D01*
X62938253Y-57196953D01*
X63002701Y-57154780D01*
X63061118Y-57112415D01*
X63084301Y-57101382D01*
X63110720Y-57084094D01*
X63176316Y-57057591D01*
X63235532Y-57029410D01*
X63266596Y-57021116D01*
X63301823Y-57006883D01*
X63365128Y-56994807D01*
X63422159Y-56979579D01*
X63460663Y-56976582D01*
X63504284Y-56968261D01*
X63562370Y-56968667D01*
X63614735Y-56964591D01*
X63659591Y-56969345D01*
X63659591Y-56969345D01*
G37*
G36*
X73309705Y-49247994D02*
G01*
X73372304Y-49246027D01*
X73422228Y-49253399D01*
X73466049Y-49255504D01*
X73525765Y-49268688D01*
X73593220Y-49278649D01*
X73635824Y-49292987D01*
X73673364Y-49301275D01*
X73734972Y-49326354D01*
X73804869Y-49349877D01*
X73839423Y-49368873D01*
X73869997Y-49381319D01*
X73931022Y-49419230D01*
X74000559Y-49457458D01*
X74026921Y-49478806D01*
X74050333Y-49493350D01*
X74108035Y-49544490D01*
X74174105Y-49597993D01*
X74192672Y-49619503D01*
X74209215Y-49634165D01*
X74260709Y-49698325D01*
X74320022Y-49767040D01*
X74331681Y-49786754D01*
X74342101Y-49799737D01*
X74384459Y-49875996D01*
X74433698Y-49959254D01*
X74439763Y-49975563D01*
X74445190Y-49985333D01*
X74475585Y-50071886D01*
X74511538Y-50168561D01*
X74513643Y-50180258D01*
X74515534Y-50185644D01*
X74531394Y-50278915D01*
X74551083Y-50388344D01*
X74550939Y-50393858D01*
X74551021Y-50394343D01*
X74548533Y-50631833D01*
X74544102Y-50654953D01*
X74543525Y-50676980D01*
X74523588Y-50761982D01*
X74508684Y-50839744D01*
X74499776Y-50863506D01*
X74492532Y-50894392D01*
X74460116Y-50969301D01*
X74434161Y-51038537D01*
X74418632Y-51065166D01*
X74403844Y-51099338D01*
X74361791Y-51162633D01*
X74327207Y-51221935D01*
X74303915Y-51249742D01*
X74280264Y-51285340D01*
X74231535Y-51336154D01*
X74190883Y-51384687D01*
X74159100Y-51411688D01*
X74125700Y-51446518D01*
X74073238Y-51484634D01*
X74029086Y-51522144D01*
X73988545Y-51546167D01*
X73945037Y-51577778D01*
X73891637Y-51603593D01*
X73846448Y-51630370D01*
X73797391Y-51649152D01*
X73743984Y-51674970D01*
X73692180Y-51689434D01*
X73648172Y-51706283D01*
X73591355Y-51717585D01*
X73528898Y-51735023D01*
X73480858Y-51739564D01*
X73439952Y-51747701D01*
X73376669Y-51749413D01*
X73306577Y-51756039D01*
X73263983Y-51752462D01*
X73227731Y-51753443D01*
X73159777Y-51743711D01*
X73084047Y-51737352D01*
X73048087Y-51727716D01*
X73017568Y-51723346D01*
X72947184Y-51700680D01*
X72868344Y-51679555D01*
X72839634Y-51666045D01*
X72815484Y-51658268D01*
X72745301Y-51621655D01*
X72666285Y-51584473D01*
X72644916Y-51569287D01*
X72627258Y-51560075D01*
X72560179Y-51509067D01*
X72484257Y-51455112D01*
X72469771Y-51440320D01*
X72458262Y-51431568D01*
X72397438Y-51366456D01*
X72328013Y-51295562D01*
X72319470Y-51282991D01*
X72313338Y-51276427D01*
X72262105Y-51198581D01*
X72202493Y-51110864D01*
X72198556Y-51102021D01*
X72196623Y-51099084D01*
X72159112Y-51013429D01*
X72111664Y-50906858D01*
X72080545Y-50780165D01*
X72060277Y-50698572D01*
X72060179Y-50697250D01*
X72058396Y-50689992D01*
X72051532Y-50580887D01*
X72044544Y-50486855D01*
X72045190Y-50480086D01*
X72044374Y-50467120D01*
X72056077Y-50365974D01*
X72064708Y-50275511D01*
X72067914Y-50263670D01*
X72070041Y-50245288D01*
X72097655Y-50153827D01*
X72120193Y-50070586D01*
X72127645Y-50054494D01*
X72134586Y-50031506D01*
X72175275Y-49951649D01*
X72209413Y-49877936D01*
X72222568Y-49858832D01*
X72235967Y-49832534D01*
X72286682Y-49765719D01*
X72329814Y-49703080D01*
X72349804Y-49682560D01*
X72370982Y-49654659D01*
X72428576Y-49601699D01*
X72477957Y-49551008D01*
X72505519Y-49530946D01*
X72535362Y-49503504D01*
X72596696Y-49464580D01*
X72649607Y-49426067D01*
X72685028Y-49408522D01*
X72723910Y-49383847D01*
X72786010Y-49358505D01*
X72839847Y-49331838D01*
X72882915Y-49318958D01*
X72930669Y-49299470D01*
X72990860Y-49286676D01*
X73043251Y-49271008D01*
X73093245Y-49264914D01*
X73149101Y-49253041D01*
X73205064Y-49251282D01*
X73253991Y-49245318D01*
X73309705Y-49247994D01*
X73309705Y-49247994D01*
G37*
G36*
X67019899Y-49251959D02*
G01*
X67036769Y-49263231D01*
X67048041Y-49280101D01*
X67054448Y-49312312D01*
X67054448Y-51687688D01*
X67051999Y-51700000D01*
X67048041Y-51719899D01*
X67036769Y-51736769D01*
X67019899Y-51748041D01*
X67000000Y-51751999D01*
X66987688Y-51754448D01*
X64612312Y-51754448D01*
X64580101Y-51748041D01*
X64563231Y-51736769D01*
X64551959Y-51719899D01*
X64545552Y-51687688D01*
X64545552Y-49312312D01*
X64551959Y-49280101D01*
X64563231Y-49263231D01*
X64580101Y-49251959D01*
X64612312Y-49245552D01*
X66987688Y-49245552D01*
X67019899Y-49251959D01*
X67019899Y-49251959D01*
G37*
G36*
X75499591Y-41969345D02*
G01*
X75550391Y-41969700D01*
X75601051Y-41980099D01*
X75646828Y-41984951D01*
X75696287Y-41999648D01*
X75752293Y-42011145D01*
X75794069Y-42028706D01*
X75831981Y-42039972D01*
X75883722Y-42066392D01*
X75942300Y-42091016D01*
X75974564Y-42112779D01*
X76004015Y-42127817D01*
X76055254Y-42167205D01*
X76113174Y-42206273D01*
X76136070Y-42229330D01*
X76157158Y-42245540D01*
X76204764Y-42298504D01*
X76258407Y-42352523D01*
X76272831Y-42374233D01*
X76286284Y-42389200D01*
X76326922Y-42455646D01*
X76372468Y-42524198D01*
X76379950Y-42542350D01*
X76387065Y-42553984D01*
X76417378Y-42633158D01*
X76451011Y-42714758D01*
X76453572Y-42727693D01*
X76456132Y-42734379D01*
X76472931Y-42825461D01*
X76491045Y-42916944D01*
X76487757Y-43152363D01*
X76484234Y-43167869D01*
X76484069Y-43173973D01*
X76462745Y-43262453D01*
X76442094Y-43353352D01*
X76439358Y-43359497D01*
X76439199Y-43360157D01*
X76381914Y-43488518D01*
X76358261Y-43541645D01*
X76304257Y-43618200D01*
X76250932Y-43695643D01*
X76246520Y-43700048D01*
X76239451Y-43710068D01*
X76174969Y-43771474D01*
X76114227Y-43832109D01*
X76103742Y-43839302D01*
X76090191Y-43852206D01*
X76019960Y-43896776D01*
X75954942Y-43941378D01*
X75937400Y-43949170D01*
X75916165Y-43962646D01*
X75844347Y-43990503D01*
X75778410Y-44019791D01*
X75753446Y-44025761D01*
X75724002Y-44037182D01*
X75654304Y-44049471D01*
X75590543Y-44064720D01*
X75558438Y-44066375D01*
X75521022Y-44072972D01*
X75456608Y-44071623D01*
X75397641Y-44074662D01*
X75359342Y-44069586D01*
X75314955Y-44068656D01*
X75258223Y-44056183D01*
X75206152Y-44049281D01*
X75163267Y-44035306D01*
X75113652Y-44024397D01*
X75066265Y-44003694D01*
X75022498Y-43989431D01*
X74977176Y-43964772D01*
X74924779Y-43941880D01*
X74887565Y-43916016D01*
X74852825Y-43897114D01*
X74807703Y-43860510D01*
X74755530Y-43824249D01*
X74728502Y-43796260D01*
X74702814Y-43775422D01*
X74660877Y-43726233D01*
X74612353Y-43675985D01*
X74594751Y-43648672D01*
X74577495Y-43628432D01*
X74541942Y-43566728D01*
X74500701Y-43502734D01*
X74491105Y-43478498D01*
X74481060Y-43461064D01*
X74455127Y-43387628D01*
X74424826Y-43311096D01*
X74421282Y-43291785D01*
X74416739Y-43278921D01*
X74403546Y-43195152D01*
X74387619Y-43108371D01*
X74387803Y-43095188D01*
X74386689Y-43088114D01*
X74389196Y-42995460D01*
X74390497Y-42902279D01*
X74391895Y-42895703D01*
X74391913Y-42895026D01*
X74421406Y-42756863D01*
X74433350Y-42700672D01*
X74470226Y-42614635D01*
X74506315Y-42527722D01*
X74509718Y-42522492D01*
X74514546Y-42511227D01*
X74564828Y-42437791D01*
X74611658Y-42365818D01*
X74620423Y-42356598D01*
X74630992Y-42341162D01*
X74690409Y-42282977D01*
X74744745Y-42225818D01*
X74760286Y-42214547D01*
X74778253Y-42196953D01*
X74842701Y-42154780D01*
X74901118Y-42112415D01*
X74924301Y-42101382D01*
X74950720Y-42084094D01*
X75016316Y-42057591D01*
X75075532Y-42029410D01*
X75106596Y-42021116D01*
X75141823Y-42006883D01*
X75205128Y-41994807D01*
X75262159Y-41979579D01*
X75300663Y-41976582D01*
X75344284Y-41968261D01*
X75402370Y-41968667D01*
X75454735Y-41964591D01*
X75499591Y-41969345D01*
X75499591Y-41969345D01*
G37*
G36*
X63499591Y-41969345D02*
G01*
X63550391Y-41969700D01*
X63601051Y-41980099D01*
X63646828Y-41984951D01*
X63696287Y-41999648D01*
X63752293Y-42011145D01*
X63794069Y-42028706D01*
X63831981Y-42039972D01*
X63883722Y-42066392D01*
X63942300Y-42091016D01*
X63974564Y-42112779D01*
X64004015Y-42127817D01*
X64055254Y-42167205D01*
X64113174Y-42206273D01*
X64136070Y-42229330D01*
X64157158Y-42245540D01*
X64204764Y-42298504D01*
X64258407Y-42352523D01*
X64272831Y-42374233D01*
X64286284Y-42389200D01*
X64326922Y-42455646D01*
X64372468Y-42524198D01*
X64379950Y-42542350D01*
X64387065Y-42553984D01*
X64417378Y-42633158D01*
X64451011Y-42714758D01*
X64453572Y-42727693D01*
X64456132Y-42734379D01*
X64472931Y-42825461D01*
X64491045Y-42916944D01*
X64487757Y-43152363D01*
X64484234Y-43167869D01*
X64484069Y-43173973D01*
X64462745Y-43262453D01*
X64442094Y-43353352D01*
X64439358Y-43359497D01*
X64439199Y-43360157D01*
X64381914Y-43488518D01*
X64358261Y-43541645D01*
X64304257Y-43618200D01*
X64250932Y-43695643D01*
X64246520Y-43700048D01*
X64239451Y-43710068D01*
X64174969Y-43771474D01*
X64114227Y-43832109D01*
X64103742Y-43839302D01*
X64090191Y-43852206D01*
X64019960Y-43896776D01*
X63954942Y-43941378D01*
X63937400Y-43949170D01*
X63916165Y-43962646D01*
X63844347Y-43990503D01*
X63778410Y-44019791D01*
X63753446Y-44025761D01*
X63724002Y-44037182D01*
X63654304Y-44049471D01*
X63590543Y-44064720D01*
X63558438Y-44066375D01*
X63521022Y-44072972D01*
X63456608Y-44071623D01*
X63397641Y-44074662D01*
X63359342Y-44069586D01*
X63314955Y-44068656D01*
X63258223Y-44056183D01*
X63206152Y-44049281D01*
X63163267Y-44035306D01*
X63113652Y-44024397D01*
X63066265Y-44003694D01*
X63022498Y-43989431D01*
X62977176Y-43964772D01*
X62924779Y-43941880D01*
X62887565Y-43916016D01*
X62852825Y-43897114D01*
X62807703Y-43860510D01*
X62755530Y-43824249D01*
X62728502Y-43796260D01*
X62702814Y-43775422D01*
X62660877Y-43726233D01*
X62612353Y-43675985D01*
X62594751Y-43648672D01*
X62577495Y-43628432D01*
X62541942Y-43566728D01*
X62500701Y-43502734D01*
X62491105Y-43478498D01*
X62481060Y-43461064D01*
X62455127Y-43387628D01*
X62424826Y-43311096D01*
X62421282Y-43291785D01*
X62416739Y-43278921D01*
X62403546Y-43195152D01*
X62387619Y-43108371D01*
X62387803Y-43095188D01*
X62386689Y-43088114D01*
X62389196Y-42995460D01*
X62390497Y-42902279D01*
X62391895Y-42895703D01*
X62391913Y-42895026D01*
X62421406Y-42756863D01*
X62433350Y-42700672D01*
X62470226Y-42614635D01*
X62506315Y-42527722D01*
X62509718Y-42522492D01*
X62514546Y-42511227D01*
X62564828Y-42437791D01*
X62611658Y-42365818D01*
X62620423Y-42356598D01*
X62630992Y-42341162D01*
X62690409Y-42282977D01*
X62744745Y-42225818D01*
X62760286Y-42214547D01*
X62778253Y-42196953D01*
X62842701Y-42154780D01*
X62901118Y-42112415D01*
X62924301Y-42101382D01*
X62950720Y-42084094D01*
X63016316Y-42057591D01*
X63075532Y-42029410D01*
X63106596Y-42021116D01*
X63141823Y-42006883D01*
X63205128Y-41994807D01*
X63262159Y-41979579D01*
X63300663Y-41976582D01*
X63344284Y-41968261D01*
X63402370Y-41968667D01*
X63454735Y-41964591D01*
X63499591Y-41969345D01*
X63499591Y-41969345D01*
G37*
G36*
X69137864Y-38067535D02*
G01*
X69192487Y-38066581D01*
X69296543Y-38077518D01*
X69401357Y-38084112D01*
X69452983Y-38093960D01*
X69502836Y-38099200D01*
X69609308Y-38123781D01*
X69716662Y-38144260D01*
X69762442Y-38159135D01*
X69806897Y-38169398D01*
X69913958Y-38208365D01*
X70021942Y-38243451D01*
X70061504Y-38262067D01*
X70100146Y-38276132D01*
X70205869Y-38330001D01*
X70312383Y-38380122D01*
X70345555Y-38401174D01*
X70378194Y-38417804D01*
X70480555Y-38486848D01*
X70583404Y-38552118D01*
X70610261Y-38574336D01*
X70636901Y-38592305D01*
X70733757Y-38676500D01*
X70830732Y-38756725D01*
X70851562Y-38778907D01*
X70872422Y-38797040D01*
X70961665Y-38896155D01*
X71050465Y-38990717D01*
X71065741Y-39011743D01*
X71081229Y-39028944D01*
X71160764Y-39142531D01*
X71239138Y-39250404D01*
X71249516Y-39269281D01*
X71260222Y-39284571D01*
X71327989Y-39412023D01*
X71393777Y-39531690D01*
X71400075Y-39547598D01*
X71406725Y-39560104D01*
X71460764Y-39700879D01*
X71511941Y-39830139D01*
X71515091Y-39842406D01*
X71518560Y-39851444D01*
X71557111Y-40006066D01*
X71591768Y-40141045D01*
X71592798Y-40149199D01*
X71594054Y-40154236D01*
X71615511Y-40328992D01*
X71631999Y-40459505D01*
X71631999Y-40780495D01*
X71621345Y-40864834D01*
X71620137Y-40910948D01*
X71603851Y-41003311D01*
X71591768Y-41098955D01*
X71576501Y-41158415D01*
X71566232Y-41216654D01*
X71536992Y-41312294D01*
X71511941Y-41409861D01*
X71490966Y-41462837D01*
X71474995Y-41515077D01*
X71432441Y-41610656D01*
X71393777Y-41708310D01*
X71368458Y-41754365D01*
X71348068Y-41800162D01*
X71291781Y-41893839D01*
X71239138Y-41989596D01*
X71210849Y-42028533D01*
X71187343Y-42067653D01*
X71117181Y-42157456D01*
X71050465Y-42249283D01*
X71020542Y-42281148D01*
X70995225Y-42313552D01*
X70911327Y-42397450D01*
X70830732Y-42483275D01*
X70800454Y-42508323D01*
X70774552Y-42534225D01*
X70677253Y-42610244D01*
X70583404Y-42687882D01*
X70553981Y-42706554D01*
X70528653Y-42726343D01*
X70418621Y-42792457D01*
X70312383Y-42859878D01*
X70284856Y-42872831D01*
X70261162Y-42887068D01*
X70139322Y-42941314D01*
X70021942Y-42996549D01*
X69997220Y-43004582D01*
X69976077Y-43013995D01*
X69843511Y-43054524D01*
X69716662Y-43095740D01*
X69695492Y-43099778D01*
X69677654Y-43105232D01*
X69535551Y-43130289D01*
X69401357Y-43155888D01*
X69384281Y-43156962D01*
X69370332Y-43159422D01*
X69219751Y-43167314D01*
X69081000Y-43176043D01*
X69068359Y-43175248D01*
X69058698Y-43175754D01*
X68899827Y-43164645D01*
X68760643Y-43155888D01*
X68752565Y-43154347D01*
X68747387Y-43153985D01*
X68574581Y-43120394D01*
X68445338Y-43095740D01*
X68441753Y-43094575D01*
X68441068Y-43094442D01*
X68144274Y-42998008D01*
X68143644Y-42997714D01*
X68140058Y-42996549D01*
X68020856Y-42940457D01*
X67861454Y-42866126D01*
X67857061Y-42863381D01*
X67849617Y-42859878D01*
X67731860Y-42785147D01*
X67596808Y-42700757D01*
X67589288Y-42694667D01*
X67578596Y-42687882D01*
X67471514Y-42599297D01*
X67354298Y-42504377D01*
X67344455Y-42494184D01*
X67331268Y-42483275D01*
X67237744Y-42383682D01*
X67137514Y-42279891D01*
X67126287Y-42264992D01*
X67111535Y-42249283D01*
X67033157Y-42141405D01*
X66949711Y-42030668D01*
X66938134Y-42010617D01*
X66922862Y-41989596D01*
X66860377Y-41875937D01*
X66793680Y-41760414D01*
X66782880Y-41734971D01*
X66768223Y-41708310D01*
X66721899Y-41591308D01*
X66671750Y-41473165D01*
X66662892Y-41442273D01*
X66650059Y-41409861D01*
X66619765Y-41291873D01*
X66585731Y-41173184D01*
X66580000Y-41136998D01*
X66570232Y-41098955D01*
X66555483Y-40982202D01*
X66536915Y-40864970D01*
X66535480Y-40823863D01*
X66530001Y-40780495D01*
X66530001Y-40666960D01*
X66526025Y-40553091D01*
X66530001Y-40507644D01*
X66530001Y-40459505D01*
X66543698Y-40351081D01*
X66553222Y-40242221D01*
X66563646Y-40193182D01*
X66570232Y-40141045D01*
X66596346Y-40039338D01*
X66618102Y-39936983D01*
X66635891Y-39885320D01*
X66650059Y-39830139D01*
X66687136Y-39736493D01*
X66719702Y-39641914D01*
X66745629Y-39588755D01*
X66768223Y-39531690D01*
X66814659Y-39447224D01*
X66856499Y-39361439D01*
X66891173Y-39308046D01*
X66922862Y-39250404D01*
X66976969Y-39175932D01*
X67026459Y-39099724D01*
X67070277Y-39047504D01*
X67111535Y-38990717D01*
X67171587Y-38926768D01*
X67227051Y-38860669D01*
X67280201Y-38811105D01*
X67331268Y-38756725D01*
X67395499Y-38703589D01*
X67455281Y-38647841D01*
X67517746Y-38602458D01*
X67578596Y-38552118D01*
X67645274Y-38509803D01*
X67707739Y-38464419D01*
X67779232Y-38424790D01*
X67849617Y-38380122D01*
X67917119Y-38348358D01*
X67980683Y-38313124D01*
X68060683Y-38280802D01*
X68140058Y-38243451D01*
X68206822Y-38221758D01*
X68270014Y-38196227D01*
X68357764Y-38172714D01*
X68445338Y-38144260D01*
X68509970Y-38131931D01*
X68571443Y-38115459D01*
X68665923Y-38102181D01*
X68760643Y-38084112D01*
X68821926Y-38080256D01*
X68880475Y-38072028D01*
X68980458Y-38070283D01*
X69081000Y-38063957D01*
X69137864Y-38067535D01*
X69137864Y-38067535D01*
G37*
G36*
X61596231Y-36583001D02*
G01*
X61596964Y-36583001D01*
X61599829Y-36583571D01*
X61682918Y-36596731D01*
X61693760Y-36602255D01*
X61702215Y-36603937D01*
X61718768Y-36614998D01*
X61759054Y-36635524D01*
X61778316Y-36654786D01*
X61791443Y-36663557D01*
X61800214Y-36676684D01*
X61819476Y-36695946D01*
X61840002Y-36736232D01*
X61851063Y-36752785D01*
X61852745Y-36761240D01*
X61858269Y-36772082D01*
X61871429Y-36855171D01*
X61871999Y-36858036D01*
X61871999Y-36858769D01*
X61873194Y-36866314D01*
X61873194Y-37353686D01*
X61871999Y-37361231D01*
X61871999Y-37361964D01*
X61871429Y-37364829D01*
X61858269Y-37447918D01*
X61852745Y-37458760D01*
X61851063Y-37467215D01*
X61840002Y-37483768D01*
X61819476Y-37524054D01*
X61800214Y-37543316D01*
X61791443Y-37556443D01*
X61778316Y-37565214D01*
X61759054Y-37584476D01*
X61718768Y-37605002D01*
X61702215Y-37616063D01*
X61693760Y-37617745D01*
X61682918Y-37623269D01*
X61599829Y-37636429D01*
X61596964Y-37636999D01*
X61596231Y-37636999D01*
X61588686Y-37638194D01*
X61176314Y-37638194D01*
X61168769Y-37636999D01*
X61168036Y-37636999D01*
X61165171Y-37636429D01*
X61082082Y-37623269D01*
X61071240Y-37617745D01*
X61062785Y-37616063D01*
X61046232Y-37605002D01*
X61005946Y-37584476D01*
X60986684Y-37565214D01*
X60973557Y-37556443D01*
X60964786Y-37543316D01*
X60945524Y-37524054D01*
X60924998Y-37483768D01*
X60913937Y-37467215D01*
X60912255Y-37458760D01*
X60906731Y-37447918D01*
X60893571Y-37364829D01*
X60893001Y-37361964D01*
X60893001Y-37361231D01*
X60891806Y-37353686D01*
X60891806Y-36866314D01*
X60893001Y-36858769D01*
X60893001Y-36858036D01*
X60893571Y-36855171D01*
X60906731Y-36772082D01*
X60912255Y-36761240D01*
X60913937Y-36752785D01*
X60924998Y-36736232D01*
X60945524Y-36695946D01*
X60964786Y-36676684D01*
X60973557Y-36663557D01*
X60986684Y-36654786D01*
X61005946Y-36635524D01*
X61046232Y-36614998D01*
X61062785Y-36603937D01*
X61071240Y-36602255D01*
X61082082Y-36596731D01*
X61165171Y-36583571D01*
X61168036Y-36583001D01*
X61168769Y-36583001D01*
X61176314Y-36581806D01*
X61588686Y-36581806D01*
X61596231Y-36583001D01*
X61596231Y-36583001D01*
G37*
G36*
X63171231Y-36583001D02*
G01*
X63171964Y-36583001D01*
X63174829Y-36583571D01*
X63257918Y-36596731D01*
X63268760Y-36602255D01*
X63277215Y-36603937D01*
X63293768Y-36614998D01*
X63334054Y-36635524D01*
X63353316Y-36654786D01*
X63366443Y-36663557D01*
X63375214Y-36676684D01*
X63394476Y-36695946D01*
X63415002Y-36736232D01*
X63426063Y-36752785D01*
X63427745Y-36761240D01*
X63433269Y-36772082D01*
X63446429Y-36855171D01*
X63446999Y-36858036D01*
X63446999Y-36858769D01*
X63448194Y-36866314D01*
X63448194Y-37353686D01*
X63446999Y-37361231D01*
X63446999Y-37361964D01*
X63446429Y-37364829D01*
X63433269Y-37447918D01*
X63427745Y-37458760D01*
X63426063Y-37467215D01*
X63415002Y-37483768D01*
X63394476Y-37524054D01*
X63375214Y-37543316D01*
X63366443Y-37556443D01*
X63353316Y-37565214D01*
X63334054Y-37584476D01*
X63293768Y-37605002D01*
X63277215Y-37616063D01*
X63268760Y-37617745D01*
X63257918Y-37623269D01*
X63174829Y-37636429D01*
X63171964Y-37636999D01*
X63171231Y-37636999D01*
X63163686Y-37638194D01*
X62751314Y-37638194D01*
X62743769Y-37636999D01*
X62743036Y-37636999D01*
X62740171Y-37636429D01*
X62657082Y-37623269D01*
X62646240Y-37617745D01*
X62637785Y-37616063D01*
X62621232Y-37605002D01*
X62580946Y-37584476D01*
X62561684Y-37565214D01*
X62548557Y-37556443D01*
X62539786Y-37543316D01*
X62520524Y-37524054D01*
X62499998Y-37483768D01*
X62488937Y-37467215D01*
X62487255Y-37458760D01*
X62481731Y-37447918D01*
X62468571Y-37364829D01*
X62468001Y-37361964D01*
X62468001Y-37361231D01*
X62466806Y-37353686D01*
X62466806Y-36866314D01*
X62468001Y-36858769D01*
X62468001Y-36858036D01*
X62468571Y-36855171D01*
X62481731Y-36772082D01*
X62487255Y-36761240D01*
X62488937Y-36752785D01*
X62499998Y-36736232D01*
X62520524Y-36695946D01*
X62539786Y-36676684D01*
X62548557Y-36663557D01*
X62561684Y-36654786D01*
X62580946Y-36635524D01*
X62621232Y-36614998D01*
X62637785Y-36603937D01*
X62646240Y-36602255D01*
X62657082Y-36596731D01*
X62740171Y-36583571D01*
X62743036Y-36583001D01*
X62743769Y-36583001D01*
X62751314Y-36581806D01*
X63163686Y-36581806D01*
X63171231Y-36583001D01*
X63171231Y-36583001D01*
G37*
G36*
X62885479Y-35098001D02*
G01*
X62886082Y-35098001D01*
X62889224Y-35098626D01*
X62969862Y-35112082D01*
X62977413Y-35116168D01*
X62984017Y-35117482D01*
X63001815Y-35129374D01*
X63043534Y-35151951D01*
X63056205Y-35165715D01*
X63067043Y-35172957D01*
X63078087Y-35189486D01*
X63100269Y-35213582D01*
X63111892Y-35240079D01*
X63122518Y-35255983D01*
X63125547Y-35271210D01*
X63134982Y-35292720D01*
X63143434Y-35360526D01*
X63143434Y-35736879D01*
X63141999Y-35745479D01*
X63141999Y-35746082D01*
X63141374Y-35749224D01*
X63127918Y-35829862D01*
X63123832Y-35837413D01*
X63122518Y-35844017D01*
X63110626Y-35861815D01*
X63088049Y-35903534D01*
X63074285Y-35916205D01*
X63067043Y-35927043D01*
X63050514Y-35938087D01*
X63026418Y-35960269D01*
X62999921Y-35971892D01*
X62984017Y-35982518D01*
X62968790Y-35985547D01*
X62947280Y-35994982D01*
X62879474Y-36003434D01*
X61303121Y-36003434D01*
X61294521Y-36001999D01*
X61293918Y-36001999D01*
X61290776Y-36001374D01*
X61210138Y-35987918D01*
X61202587Y-35983832D01*
X61195983Y-35982518D01*
X61178185Y-35970626D01*
X61136466Y-35948049D01*
X61123795Y-35934285D01*
X61112957Y-35927043D01*
X61101913Y-35910514D01*
X61079731Y-35886418D01*
X61068108Y-35859921D01*
X61057482Y-35844017D01*
X61054453Y-35828790D01*
X61045018Y-35807280D01*
X61036566Y-35739474D01*
X61036566Y-35363121D01*
X61038001Y-35354521D01*
X61038001Y-35353918D01*
X61038626Y-35350776D01*
X61052082Y-35270138D01*
X61056168Y-35262587D01*
X61057482Y-35255983D01*
X61069374Y-35238185D01*
X61091951Y-35196466D01*
X61105715Y-35183795D01*
X61112957Y-35172957D01*
X61129486Y-35161913D01*
X61153582Y-35139731D01*
X61180079Y-35128108D01*
X61195983Y-35117482D01*
X61211210Y-35114453D01*
X61232720Y-35105018D01*
X61300526Y-35096566D01*
X62876879Y-35096566D01*
X62885479Y-35098001D01*
X62885479Y-35098001D01*
G37*
G36*
X62885479Y-30898001D02*
G01*
X62886082Y-30898001D01*
X62889224Y-30898626D01*
X62969862Y-30912082D01*
X62977413Y-30916168D01*
X62984017Y-30917482D01*
X63001815Y-30929374D01*
X63043534Y-30951951D01*
X63056205Y-30965715D01*
X63067043Y-30972957D01*
X63078087Y-30989486D01*
X63100269Y-31013582D01*
X63111892Y-31040079D01*
X63122518Y-31055983D01*
X63125547Y-31071210D01*
X63134982Y-31092720D01*
X63143434Y-31160526D01*
X63143434Y-31536879D01*
X63141999Y-31545479D01*
X63141999Y-31546082D01*
X63141374Y-31549224D01*
X63127918Y-31629862D01*
X63123832Y-31637413D01*
X63122518Y-31644017D01*
X63110626Y-31661815D01*
X63088049Y-31703534D01*
X63074285Y-31716205D01*
X63067043Y-31727043D01*
X63050514Y-31738087D01*
X63026418Y-31760269D01*
X62999921Y-31771892D01*
X62984017Y-31782518D01*
X62968790Y-31785547D01*
X62947280Y-31794982D01*
X62879474Y-31803434D01*
X61303121Y-31803434D01*
X61294521Y-31801999D01*
X61293918Y-31801999D01*
X61290776Y-31801374D01*
X61210138Y-31787918D01*
X61202587Y-31783832D01*
X61195983Y-31782518D01*
X61178185Y-31770626D01*
X61136466Y-31748049D01*
X61123795Y-31734285D01*
X61112957Y-31727043D01*
X61101913Y-31710514D01*
X61079731Y-31686418D01*
X61068108Y-31659921D01*
X61057482Y-31644017D01*
X61054453Y-31628790D01*
X61045018Y-31607280D01*
X61036566Y-31539474D01*
X61036566Y-31163121D01*
X61038001Y-31154521D01*
X61038001Y-31153918D01*
X61038626Y-31150776D01*
X61052082Y-31070138D01*
X61056168Y-31062587D01*
X61057482Y-31055983D01*
X61069374Y-31038185D01*
X61091951Y-30996466D01*
X61105715Y-30983795D01*
X61112957Y-30972957D01*
X61129486Y-30961913D01*
X61153582Y-30939731D01*
X61180079Y-30928108D01*
X61195983Y-30917482D01*
X61211210Y-30914453D01*
X61232720Y-30905018D01*
X61300526Y-30896566D01*
X62876879Y-30896566D01*
X62885479Y-30898001D01*
X62885479Y-30898001D01*
G37*
M02*
