G04 #@! TF.GenerationSoftware,KiCad,Pcbnew,(5.99.0-168-g9990dcc1b)*
G04 #@! TF.CreationDate,2019-12-17T14:25:06+03:00*
G04 #@! TF.ProjectId,SmartPartsIONBoard,536d6172-7450-4617-9274-73494f4e426f,rev?*
G04 #@! TF.SameCoordinates,Original*
G04 #@! TF.FileFunction,Other,User*
%FSLAX46Y46*%
G04 Gerber Fmt 4.6, Leading zero omitted, Abs format (unit mm)*
G04 Created by KiCad (PCBNEW (5.99.0-168-g9990dcc1b)) date 2019-12-17 14:25:06*
%MOMM*%
%LPD*%
G04 APERTURE LIST*
%ADD10C,0.100000*%
%ADD11C,0.050000*%
G04 APERTURE END LIST*
D10*
X63310000Y-65350000D02*
X63310000Y-61750000D01*
X67110000Y-65350000D02*
X63310000Y-65350000D01*
X67110000Y-61750000D02*
X67110000Y-65350000D01*
X63310000Y-61750000D02*
X67110000Y-61750000D01*
D11*
X74200000Y-66470000D02*
X74200000Y-63110000D01*
X76100000Y-66470000D02*
X74200000Y-66470000D01*
X76100000Y-63110000D02*
X76100000Y-66470000D01*
X74200000Y-63110000D02*
X76100000Y-63110000D01*
X71780000Y-48600000D02*
X68380000Y-48600000D01*
X68380000Y-48600000D02*
X68380000Y-45100000D01*
X68380000Y-45100000D02*
X71780000Y-45100000D01*
X71780000Y-45100000D02*
X71780000Y-48600000D01*
D10*
X60440000Y-35575000D02*
X60440000Y-31875000D01*
X62340000Y-35575000D02*
X60440000Y-35575000D01*
X62340000Y-31875000D02*
X62340000Y-35575000D01*
X60440000Y-31875000D02*
X62340000Y-31875000D01*
X67560000Y-65030000D02*
X67560000Y-61730000D01*
X67560000Y-65030000D02*
X70060000Y-65030000D01*
X70060000Y-61730000D02*
X67560000Y-61730000D01*
X70060000Y-61730000D02*
X70060000Y-65030000D01*
X63770000Y-38300000D02*
X60410000Y-38300000D01*
X63770000Y-36400000D02*
X63770000Y-38300000D01*
X60410000Y-36400000D02*
X63770000Y-36400000D01*
X60410000Y-38300000D02*
X60410000Y-36400000D01*
X66690000Y-61530000D02*
X63330000Y-61530000D01*
X66690000Y-59630000D02*
X66690000Y-61530000D01*
X63330000Y-59630000D02*
X66690000Y-59630000D01*
X63330000Y-61530000D02*
X63330000Y-59630000D01*
X66830000Y-59630000D02*
X70190000Y-59630000D01*
X66830000Y-61530000D02*
X66830000Y-59630000D01*
X70190000Y-61530000D02*
X66830000Y-61530000D01*
X70190000Y-59630000D02*
X70190000Y-61530000D01*
X63260000Y-70260000D02*
X63260000Y-66900000D01*
X65160000Y-70260000D02*
X63260000Y-70260000D01*
X65160000Y-66900000D02*
X65160000Y-70260000D01*
X63260000Y-66900000D02*
X65160000Y-66900000D01*
X70010000Y-70810000D02*
X70010000Y-73770000D01*
X68550000Y-70810000D02*
X70010000Y-70810000D01*
X68550000Y-73770000D02*
X68550000Y-70810000D01*
X70010000Y-73770000D02*
X68550000Y-73770000D01*
X69700000Y-54220000D02*
X66740000Y-54220000D01*
X69700000Y-52760000D02*
X69700000Y-54220000D01*
X66740000Y-52760000D02*
X69700000Y-52760000D01*
X66740000Y-54220000D02*
X66740000Y-52760000D01*
X66760000Y-54400000D02*
X69720000Y-54400000D01*
X66760000Y-55860000D02*
X66760000Y-54400000D01*
X69720000Y-55860000D02*
X66760000Y-55860000D01*
X69720000Y-54400000D02*
X69720000Y-55860000D01*
X73860000Y-45342500D02*
X73860000Y-48302500D01*
X72400000Y-45342500D02*
X73860000Y-45342500D01*
X72400000Y-48302500D02*
X72400000Y-45342500D01*
X73860000Y-48302500D02*
X72400000Y-48302500D01*
X63660000Y-48880000D02*
X63660000Y-45280000D01*
X63660000Y-48880000D02*
X65660000Y-48880000D01*
X65660000Y-45280000D02*
X63660000Y-45280000D01*
X65660000Y-45280000D02*
X65660000Y-48880000D01*
X70350000Y-66590000D02*
X70350000Y-70190000D01*
X70350000Y-66590000D02*
X68350000Y-66590000D01*
X68350000Y-70190000D02*
X70350000Y-70190000D01*
X68350000Y-70190000D02*
X68350000Y-66590000D01*
X65820000Y-70140000D02*
X65820000Y-65580000D01*
X68060000Y-70140000D02*
X65820000Y-70140000D01*
X68060000Y-65580000D02*
X68060000Y-70140000D01*
X65820000Y-65580000D02*
X68060000Y-65580000D01*
X63300000Y-70820000D02*
X67860000Y-70820000D01*
X63300000Y-73980000D02*
X63300000Y-70820000D01*
X67860000Y-73980000D02*
X63300000Y-73980000D01*
X67860000Y-70820000D02*
X67860000Y-73980000D01*
M02*
