G04 #@! TF.GenerationSoftware,KiCad,Pcbnew,(5.99.0-168-g9990dcc1b)*
G04 #@! TF.CreationDate,2019-12-17T14:25:05+03:00*
G04 #@! TF.ProjectId,SmartPartsIONBoard,536d6172-7450-4617-9274-73494f4e426f,rev?*
G04 #@! TF.SameCoordinates,Original*
G04 #@! TF.FileFunction,Copper,L1,Top*
G04 #@! TF.FilePolarity,Positive*
%FSLAX46Y46*%
G04 Gerber Fmt 4.6, Leading zero omitted, Abs format (unit mm)*
G04 Created by KiCad (PCBNEW (5.99.0-168-g9990dcc1b)) date 2019-12-17 14:25:05*
%MOMM*%
%LPD*%
G04 APERTURE LIST*
%ADD10C,0.500000*%
%ADD11C,0.100000*%
%ADD12R,1.060000X0.650000*%
%ADD13C,0.975000*%
%ADD14C,2.400000*%
%ADD15R,2.400000X2.400000*%
%ADD16R,0.900000X0.800000*%
%ADD17C,1.150000*%
%ADD18R,1.500000X1.000000*%
%ADD19C,5.000000*%
%ADD20C,2.000000*%
%ADD21C,1.800000*%
%ADD22C,0.875000*%
%ADD23R,1.500000X1.200000*%
%ADD24C,1.250000*%
%ADD25C,0.800000*%
%ADD26C,0.900000*%
%ADD27C,0.800000*%
%ADD28C,0.250000*%
%ADD29C,0.200000*%
%ADD30C,0.254000*%
G04 APERTURE END LIST*
D10*
X77080000Y-32120000D02*
X75380000Y-32120000D01*
X74280000Y-34420000D02*
X72980000Y-34420000D01*
X75180000Y-34420000D02*
X75680000Y-34420000D01*
X76180000Y-34420000D02*
X77180000Y-34420000D01*
X75680000Y-34420000D02*
X77080000Y-32120000D01*
X74180000Y-32120000D02*
X75180000Y-34420000D01*
X75380000Y-32120000D02*
X76180000Y-34420000D01*
X72980000Y-34420000D02*
X74180000Y-32120000D01*
D11*
G36*
X69110000Y-63630000D02*
G01*
X68510000Y-63630000D01*
X68510000Y-63130000D01*
X69110000Y-63130000D01*
X69110000Y-63630000D01*
X69110000Y-63630000D01*
G37*
X69110000Y-63630000D02*
X68510000Y-63630000D01*
X68510000Y-63130000D01*
X69110000Y-63130000D01*
X69110000Y-63630000D01*
D12*
X66310000Y-62600000D03*
X66310000Y-64500000D03*
X64110000Y-64500000D03*
X64110000Y-63550000D03*
X64110000Y-62600000D03*
D11*
G36*
X75699529Y-65258554D02*
G01*
X75778607Y-65311393D01*
X75831446Y-65390471D01*
X75850000Y-65483750D01*
X75850000Y-65971250D01*
X75831446Y-66064529D01*
X75778607Y-66143607D01*
X75699529Y-66196446D01*
X75606250Y-66215000D01*
X74693750Y-66215000D01*
X74600471Y-66196446D01*
X74521393Y-66143607D01*
X74468554Y-66064529D01*
X74450000Y-65971250D01*
X74450000Y-65483750D01*
X74468554Y-65390471D01*
X74521393Y-65311393D01*
X74600471Y-65258554D01*
X74693750Y-65240000D01*
X75606250Y-65240000D01*
X75699529Y-65258554D01*
X75699529Y-65258554D01*
G37*
D13*
X75150000Y-65727500D03*
D11*
G36*
X75699529Y-63383554D02*
G01*
X75778607Y-63436393D01*
X75831446Y-63515471D01*
X75850000Y-63608750D01*
X75850000Y-64096250D01*
X75831446Y-64189529D01*
X75778607Y-64268607D01*
X75699529Y-64321446D01*
X75606250Y-64340000D01*
X74693750Y-64340000D01*
X74600471Y-64321446D01*
X74521393Y-64268607D01*
X74468554Y-64189529D01*
X74450000Y-64096250D01*
X74450000Y-63608750D01*
X74468554Y-63515471D01*
X74521393Y-63436393D01*
X74600471Y-63383554D01*
X74693750Y-63365000D01*
X75606250Y-63365000D01*
X75699529Y-63383554D01*
X75699529Y-63383554D01*
G37*
D13*
X75150000Y-63852500D03*
D14*
X73300000Y-50500000D03*
D15*
X65800000Y-50500000D03*
D16*
X69080000Y-46850000D03*
X71080000Y-45900000D03*
X71080000Y-47800000D03*
D11*
G36*
X61935671Y-34194030D02*
G01*
X62016777Y-34248223D01*
X62070970Y-34329329D01*
X62090000Y-34424999D01*
X62090000Y-35075001D01*
X62070970Y-35170671D01*
X62016777Y-35251777D01*
X61935671Y-35305970D01*
X61840001Y-35325000D01*
X60939999Y-35325000D01*
X60844329Y-35305970D01*
X60763223Y-35251777D01*
X60709030Y-35170671D01*
X60690000Y-35075001D01*
X60690000Y-34424999D01*
X60709030Y-34329329D01*
X60763223Y-34248223D01*
X60844329Y-34194030D01*
X60939999Y-34175000D01*
X61840001Y-34175000D01*
X61935671Y-34194030D01*
X61935671Y-34194030D01*
G37*
D17*
X61390000Y-34750000D03*
D11*
G36*
X61935671Y-32144030D02*
G01*
X62016777Y-32198223D01*
X62070970Y-32279329D01*
X62090000Y-32374999D01*
X62090000Y-33025001D01*
X62070970Y-33120671D01*
X62016777Y-33201777D01*
X61935671Y-33255970D01*
X61840001Y-33275000D01*
X60939999Y-33275000D01*
X60844329Y-33255970D01*
X60763223Y-33201777D01*
X60709030Y-33120671D01*
X60690000Y-33025001D01*
X60690000Y-32374999D01*
X60709030Y-32279329D01*
X60763223Y-32198223D01*
X60844329Y-32144030D01*
X60939999Y-32125000D01*
X61840001Y-32125000D01*
X61935671Y-32144030D01*
X61935671Y-32144030D01*
G37*
D17*
X61390000Y-32700000D03*
D18*
X68810000Y-64030000D03*
X68810000Y-62730000D03*
D11*
G36*
X63364529Y-36668554D02*
G01*
X63443607Y-36721393D01*
X63496446Y-36800471D01*
X63515000Y-36893750D01*
X63515000Y-37806250D01*
X63496446Y-37899529D01*
X63443607Y-37978607D01*
X63364529Y-38031446D01*
X63271250Y-38050000D01*
X62783750Y-38050000D01*
X62690471Y-38031446D01*
X62611393Y-37978607D01*
X62558554Y-37899529D01*
X62540000Y-37806250D01*
X62540000Y-36893750D01*
X62558554Y-36800471D01*
X62611393Y-36721393D01*
X62690471Y-36668554D01*
X62783750Y-36650000D01*
X63271250Y-36650000D01*
X63364529Y-36668554D01*
X63364529Y-36668554D01*
G37*
D13*
X63027500Y-37350000D03*
D11*
G36*
X61489529Y-36668554D02*
G01*
X61568607Y-36721393D01*
X61621446Y-36800471D01*
X61640000Y-36893750D01*
X61640000Y-37806250D01*
X61621446Y-37899529D01*
X61568607Y-37978607D01*
X61489529Y-38031446D01*
X61396250Y-38050000D01*
X60908750Y-38050000D01*
X60815471Y-38031446D01*
X60736393Y-37978607D01*
X60683554Y-37899529D01*
X60665000Y-37806250D01*
X60665000Y-36893750D01*
X60683554Y-36800471D01*
X60736393Y-36721393D01*
X60815471Y-36668554D01*
X60908750Y-36650000D01*
X61396250Y-36650000D01*
X61489529Y-36668554D01*
X61489529Y-36668554D01*
G37*
D13*
X61152500Y-37350000D03*
D11*
G36*
X66284529Y-59898554D02*
G01*
X66363607Y-59951393D01*
X66416446Y-60030471D01*
X66435000Y-60123750D01*
X66435000Y-61036250D01*
X66416446Y-61129529D01*
X66363607Y-61208607D01*
X66284529Y-61261446D01*
X66191250Y-61280000D01*
X65703750Y-61280000D01*
X65610471Y-61261446D01*
X65531393Y-61208607D01*
X65478554Y-61129529D01*
X65460000Y-61036250D01*
X65460000Y-60123750D01*
X65478554Y-60030471D01*
X65531393Y-59951393D01*
X65610471Y-59898554D01*
X65703750Y-59880000D01*
X66191250Y-59880000D01*
X66284529Y-59898554D01*
X66284529Y-59898554D01*
G37*
D13*
X65947500Y-60580000D03*
D11*
G36*
X64409529Y-59898554D02*
G01*
X64488607Y-59951393D01*
X64541446Y-60030471D01*
X64560000Y-60123750D01*
X64560000Y-61036250D01*
X64541446Y-61129529D01*
X64488607Y-61208607D01*
X64409529Y-61261446D01*
X64316250Y-61280000D01*
X63828750Y-61280000D01*
X63735471Y-61261446D01*
X63656393Y-61208607D01*
X63603554Y-61129529D01*
X63585000Y-61036250D01*
X63585000Y-60123750D01*
X63603554Y-60030471D01*
X63656393Y-59951393D01*
X63735471Y-59898554D01*
X63828750Y-59880000D01*
X64316250Y-59880000D01*
X64409529Y-59898554D01*
X64409529Y-59898554D01*
G37*
D13*
X64072500Y-60580000D03*
D11*
G36*
X67909529Y-59898554D02*
G01*
X67988607Y-59951393D01*
X68041446Y-60030471D01*
X68060000Y-60123750D01*
X68060000Y-61036250D01*
X68041446Y-61129529D01*
X67988607Y-61208607D01*
X67909529Y-61261446D01*
X67816250Y-61280000D01*
X67328750Y-61280000D01*
X67235471Y-61261446D01*
X67156393Y-61208607D01*
X67103554Y-61129529D01*
X67085000Y-61036250D01*
X67085000Y-60123750D01*
X67103554Y-60030471D01*
X67156393Y-59951393D01*
X67235471Y-59898554D01*
X67328750Y-59880000D01*
X67816250Y-59880000D01*
X67909529Y-59898554D01*
X67909529Y-59898554D01*
G37*
D13*
X67572500Y-60580000D03*
D11*
G36*
X69784529Y-59898554D02*
G01*
X69863607Y-59951393D01*
X69916446Y-60030471D01*
X69935000Y-60123750D01*
X69935000Y-61036250D01*
X69916446Y-61129529D01*
X69863607Y-61208607D01*
X69784529Y-61261446D01*
X69691250Y-61280000D01*
X69203750Y-61280000D01*
X69110471Y-61261446D01*
X69031393Y-61208607D01*
X68978554Y-61129529D01*
X68960000Y-61036250D01*
X68960000Y-60123750D01*
X68978554Y-60030471D01*
X69031393Y-59951393D01*
X69110471Y-59898554D01*
X69203750Y-59880000D01*
X69691250Y-59880000D01*
X69784529Y-59898554D01*
X69784529Y-59898554D01*
G37*
D13*
X69447500Y-60580000D03*
D11*
G36*
X64759529Y-69048554D02*
G01*
X64838607Y-69101393D01*
X64891446Y-69180471D01*
X64910000Y-69273750D01*
X64910000Y-69761250D01*
X64891446Y-69854529D01*
X64838607Y-69933607D01*
X64759529Y-69986446D01*
X64666250Y-70005000D01*
X63753750Y-70005000D01*
X63660471Y-69986446D01*
X63581393Y-69933607D01*
X63528554Y-69854529D01*
X63510000Y-69761250D01*
X63510000Y-69273750D01*
X63528554Y-69180471D01*
X63581393Y-69101393D01*
X63660471Y-69048554D01*
X63753750Y-69030000D01*
X64666250Y-69030000D01*
X64759529Y-69048554D01*
X64759529Y-69048554D01*
G37*
D13*
X64210000Y-69517500D03*
D11*
G36*
X64759529Y-67173554D02*
G01*
X64838607Y-67226393D01*
X64891446Y-67305471D01*
X64910000Y-67398750D01*
X64910000Y-67886250D01*
X64891446Y-67979529D01*
X64838607Y-68058607D01*
X64759529Y-68111446D01*
X64666250Y-68130000D01*
X63753750Y-68130000D01*
X63660471Y-68111446D01*
X63581393Y-68058607D01*
X63528554Y-67979529D01*
X63510000Y-67886250D01*
X63510000Y-67398750D01*
X63528554Y-67305471D01*
X63581393Y-67226393D01*
X63660471Y-67173554D01*
X63753750Y-67155000D01*
X64666250Y-67155000D01*
X64759529Y-67173554D01*
X64759529Y-67173554D01*
G37*
D13*
X64210000Y-67642500D03*
D19*
X69081000Y-40620000D03*
D20*
X63600000Y-58020000D03*
X75440000Y-58020000D03*
X75440000Y-43020000D03*
X63440000Y-43020000D03*
D21*
X72790000Y-71960000D03*
X72790000Y-61760000D03*
X72790000Y-66960000D03*
D11*
G36*
X69619962Y-71081651D02*
G01*
X69690930Y-71129070D01*
X69738349Y-71200038D01*
X69755000Y-71283750D01*
X69755000Y-71721250D01*
X69738349Y-71804962D01*
X69690930Y-71875930D01*
X69619962Y-71923349D01*
X69536250Y-71940000D01*
X69023750Y-71940000D01*
X68940038Y-71923349D01*
X68869070Y-71875930D01*
X68821651Y-71804962D01*
X68805000Y-71721250D01*
X68805000Y-71283750D01*
X68821651Y-71200038D01*
X68869070Y-71129070D01*
X68940038Y-71081651D01*
X69023750Y-71065000D01*
X69536250Y-71065000D01*
X69619962Y-71081651D01*
X69619962Y-71081651D01*
G37*
D22*
X69280000Y-71502500D03*
D11*
G36*
X69619962Y-72656651D02*
G01*
X69690930Y-72704070D01*
X69738349Y-72775038D01*
X69755000Y-72858750D01*
X69755000Y-73296250D01*
X69738349Y-73379962D01*
X69690930Y-73450930D01*
X69619962Y-73498349D01*
X69536250Y-73515000D01*
X69023750Y-73515000D01*
X68940038Y-73498349D01*
X68869070Y-73450930D01*
X68821651Y-73379962D01*
X68805000Y-73296250D01*
X68805000Y-72858750D01*
X68821651Y-72775038D01*
X68869070Y-72704070D01*
X68940038Y-72656651D01*
X69023750Y-72640000D01*
X69536250Y-72640000D01*
X69619962Y-72656651D01*
X69619962Y-72656651D01*
G37*
D22*
X69280000Y-73077500D03*
D11*
G36*
X69309962Y-53031651D02*
G01*
X69380930Y-53079070D01*
X69428349Y-53150038D01*
X69445000Y-53233750D01*
X69445000Y-53746250D01*
X69428349Y-53829962D01*
X69380930Y-53900930D01*
X69309962Y-53948349D01*
X69226250Y-53965000D01*
X68788750Y-53965000D01*
X68705038Y-53948349D01*
X68634070Y-53900930D01*
X68586651Y-53829962D01*
X68570000Y-53746250D01*
X68570000Y-53233750D01*
X68586651Y-53150038D01*
X68634070Y-53079070D01*
X68705038Y-53031651D01*
X68788750Y-53015000D01*
X69226250Y-53015000D01*
X69309962Y-53031651D01*
X69309962Y-53031651D01*
G37*
D22*
X69007500Y-53490000D03*
D11*
G36*
X67734962Y-53031651D02*
G01*
X67805930Y-53079070D01*
X67853349Y-53150038D01*
X67870000Y-53233750D01*
X67870000Y-53746250D01*
X67853349Y-53829962D01*
X67805930Y-53900930D01*
X67734962Y-53948349D01*
X67651250Y-53965000D01*
X67213750Y-53965000D01*
X67130038Y-53948349D01*
X67059070Y-53900930D01*
X67011651Y-53829962D01*
X66995000Y-53746250D01*
X66995000Y-53233750D01*
X67011651Y-53150038D01*
X67059070Y-53079070D01*
X67130038Y-53031651D01*
X67213750Y-53015000D01*
X67651250Y-53015000D01*
X67734962Y-53031651D01*
X67734962Y-53031651D01*
G37*
D22*
X67432500Y-53490000D03*
D11*
G36*
X67754962Y-54671651D02*
G01*
X67825930Y-54719070D01*
X67873349Y-54790038D01*
X67890000Y-54873750D01*
X67890000Y-55386250D01*
X67873349Y-55469962D01*
X67825930Y-55540930D01*
X67754962Y-55588349D01*
X67671250Y-55605000D01*
X67233750Y-55605000D01*
X67150038Y-55588349D01*
X67079070Y-55540930D01*
X67031651Y-55469962D01*
X67015000Y-55386250D01*
X67015000Y-54873750D01*
X67031651Y-54790038D01*
X67079070Y-54719070D01*
X67150038Y-54671651D01*
X67233750Y-54655000D01*
X67671250Y-54655000D01*
X67754962Y-54671651D01*
X67754962Y-54671651D01*
G37*
D22*
X67452500Y-55130000D03*
D11*
G36*
X69329962Y-54671651D02*
G01*
X69400930Y-54719070D01*
X69448349Y-54790038D01*
X69465000Y-54873750D01*
X69465000Y-55386250D01*
X69448349Y-55469962D01*
X69400930Y-55540930D01*
X69329962Y-55588349D01*
X69246250Y-55605000D01*
X68808750Y-55605000D01*
X68725038Y-55588349D01*
X68654070Y-55540930D01*
X68606651Y-55469962D01*
X68590000Y-55386250D01*
X68590000Y-54873750D01*
X68606651Y-54790038D01*
X68654070Y-54719070D01*
X68725038Y-54671651D01*
X68808750Y-54655000D01*
X69246250Y-54655000D01*
X69329962Y-54671651D01*
X69329962Y-54671651D01*
G37*
D22*
X69027500Y-55130000D03*
D11*
G36*
X73469962Y-45614151D02*
G01*
X73540930Y-45661570D01*
X73588349Y-45732538D01*
X73605000Y-45816250D01*
X73605000Y-46253750D01*
X73588349Y-46337462D01*
X73540930Y-46408430D01*
X73469962Y-46455849D01*
X73386250Y-46472500D01*
X72873750Y-46472500D01*
X72790038Y-46455849D01*
X72719070Y-46408430D01*
X72671651Y-46337462D01*
X72655000Y-46253750D01*
X72655000Y-45816250D01*
X72671651Y-45732538D01*
X72719070Y-45661570D01*
X72790038Y-45614151D01*
X72873750Y-45597500D01*
X73386250Y-45597500D01*
X73469962Y-45614151D01*
X73469962Y-45614151D01*
G37*
D22*
X73130000Y-46035000D03*
D11*
G36*
X73469962Y-47189151D02*
G01*
X73540930Y-47236570D01*
X73588349Y-47307538D01*
X73605000Y-47391250D01*
X73605000Y-47828750D01*
X73588349Y-47912462D01*
X73540930Y-47983430D01*
X73469962Y-48030849D01*
X73386250Y-48047500D01*
X72873750Y-48047500D01*
X72790038Y-48030849D01*
X72719070Y-47983430D01*
X72671651Y-47912462D01*
X72655000Y-47828750D01*
X72655000Y-47391250D01*
X72671651Y-47307538D01*
X72719070Y-47236570D01*
X72790038Y-47189151D01*
X72873750Y-47172500D01*
X73386250Y-47172500D01*
X73469962Y-47189151D01*
X73469962Y-47189151D01*
G37*
D22*
X73130000Y-47610000D03*
D23*
X64660000Y-48030000D03*
X64660000Y-46130000D03*
X69350000Y-67440000D03*
X69350000Y-69340000D03*
D11*
G36*
X67660671Y-68654030D02*
G01*
X67741777Y-68708223D01*
X67795970Y-68789329D01*
X67815000Y-68885000D01*
X67815000Y-69635000D01*
X67795970Y-69730671D01*
X67741777Y-69811777D01*
X67660671Y-69865970D01*
X67565000Y-69885000D01*
X66315000Y-69885000D01*
X66219329Y-69865970D01*
X66138223Y-69811777D01*
X66084030Y-69730671D01*
X66065000Y-69635000D01*
X66065000Y-68885000D01*
X66084030Y-68789329D01*
X66138223Y-68708223D01*
X66219329Y-68654030D01*
X66315000Y-68635000D01*
X67565000Y-68635000D01*
X67660671Y-68654030D01*
X67660671Y-68654030D01*
G37*
D24*
X66940000Y-69260000D03*
D11*
G36*
X67660671Y-65854030D02*
G01*
X67741777Y-65908223D01*
X67795970Y-65989329D01*
X67815000Y-66085000D01*
X67815000Y-66835000D01*
X67795970Y-66930671D01*
X67741777Y-67011777D01*
X67660671Y-67065970D01*
X67565000Y-67085000D01*
X66315000Y-67085000D01*
X66219329Y-67065970D01*
X66138223Y-67011777D01*
X66084030Y-66930671D01*
X66065000Y-66835000D01*
X66065000Y-66085000D01*
X66084030Y-65989329D01*
X66138223Y-65908223D01*
X66219329Y-65854030D01*
X66315000Y-65835000D01*
X67565000Y-65835000D01*
X67660671Y-65854030D01*
X67660671Y-65854030D01*
G37*
D24*
X66940000Y-66460000D03*
D11*
G36*
X64650671Y-71094030D02*
G01*
X64731777Y-71148223D01*
X64785970Y-71229329D01*
X64805000Y-71325000D01*
X64805000Y-73475000D01*
X64785970Y-73570671D01*
X64731777Y-73651777D01*
X64650671Y-73705970D01*
X64555000Y-73725000D01*
X63805000Y-73725000D01*
X63709329Y-73705970D01*
X63628223Y-73651777D01*
X63574030Y-73570671D01*
X63555000Y-73475000D01*
X63555000Y-71325000D01*
X63574030Y-71229329D01*
X63628223Y-71148223D01*
X63709329Y-71094030D01*
X63805000Y-71075000D01*
X64555000Y-71075000D01*
X64650671Y-71094030D01*
X64650671Y-71094030D01*
G37*
D24*
X64180000Y-72400000D03*
D11*
G36*
X67450671Y-71094030D02*
G01*
X67531777Y-71148223D01*
X67585970Y-71229329D01*
X67605000Y-71325000D01*
X67605000Y-73475000D01*
X67585970Y-73570671D01*
X67531777Y-73651777D01*
X67450671Y-73705970D01*
X67355000Y-73725000D01*
X66605000Y-73725000D01*
X66509329Y-73705970D01*
X66428223Y-73651777D01*
X66374030Y-73570671D01*
X66355000Y-73475000D01*
X66355000Y-71325000D01*
X66374030Y-71229329D01*
X66428223Y-71148223D01*
X66509329Y-71094030D01*
X66605000Y-71075000D01*
X67355000Y-71075000D01*
X67450671Y-71094030D01*
X67450671Y-71094030D01*
G37*
D24*
X66980000Y-72400000D03*
D25*
X69150000Y-53510000D03*
X67710000Y-60650000D03*
X69080000Y-45270000D03*
X72907347Y-47832653D03*
X67452500Y-55130000D03*
X69170000Y-73120000D03*
X63519840Y-33395160D03*
X69447500Y-60580000D03*
X61410000Y-37040000D03*
X65480000Y-72250000D03*
X64060000Y-60640000D03*
X70380000Y-67058827D03*
X75360000Y-63762500D03*
X69300000Y-71470000D03*
X68850000Y-58750000D03*
X62739990Y-68610000D03*
X64060000Y-73350000D03*
X68730000Y-74440000D03*
X71970000Y-70000000D03*
X72220000Y-52500000D03*
X67432500Y-53490000D03*
X75360000Y-65637500D03*
X67600000Y-65210000D03*
X71850000Y-73860000D03*
X65640000Y-57550000D03*
X66370000Y-58530000D03*
X67370000Y-58200000D03*
X65240000Y-70510000D03*
X66130000Y-70480000D03*
D10*
X73130000Y-46035000D02*
X71215000Y-46035000D01*
X71215000Y-46035000D02*
X71080000Y-45900000D01*
X71004560Y-47497700D02*
X72572394Y-47497700D01*
X69080000Y-45270000D02*
X69080000Y-46774560D01*
X69080000Y-46774560D02*
X69155440Y-46850000D01*
X72572394Y-47497700D02*
X72907347Y-47832653D01*
X72962700Y-46202300D02*
X73130000Y-46035000D01*
X64660000Y-46130000D02*
X66060000Y-46130000D01*
X66920000Y-46990000D02*
X69015440Y-46990000D01*
X66060000Y-46130000D02*
X66920000Y-46990000D01*
X69015440Y-46990000D02*
X69155440Y-46850000D01*
D26*
X67432500Y-53490000D02*
X67432500Y-55110000D01*
X67432500Y-55110000D02*
X67452500Y-55130000D01*
X65800000Y-50500000D02*
X65120000Y-50500000D01*
X63600000Y-52020000D02*
X63600000Y-58020000D01*
X65120000Y-50500000D02*
X63600000Y-52020000D01*
X64660000Y-48030000D02*
X64660000Y-49360000D01*
X64660000Y-49360000D02*
X65800000Y-50500000D01*
X63600000Y-58020000D02*
X63600000Y-58990000D01*
X63600000Y-58990000D02*
X62700010Y-59889990D01*
X62700010Y-59889990D02*
X62700010Y-62729990D01*
D10*
X70860000Y-71972500D02*
X70860000Y-68520000D01*
X70860000Y-68520000D02*
X72330000Y-67050000D01*
X69280000Y-73077500D02*
X69755000Y-73077500D01*
X69755000Y-73077500D02*
X70860000Y-71972500D01*
X66310000Y-62600000D02*
X68680000Y-62600000D01*
X68680000Y-62600000D02*
X68810000Y-62730000D01*
D27*
X62780000Y-62600000D02*
X64110000Y-62600000D01*
X64110000Y-64500000D02*
X62780000Y-64500000D01*
X62780000Y-64500000D02*
X62650010Y-64370010D01*
D26*
X64210000Y-67642500D02*
X64210000Y-64600000D01*
X64210000Y-64600000D02*
X64192001Y-64582001D01*
X66682500Y-69517500D02*
X66940000Y-69260000D01*
X66980000Y-72400000D02*
X66980000Y-71550000D01*
D10*
X66980000Y-71550000D02*
X69020000Y-69510000D01*
D26*
X66620000Y-66620000D02*
X68030000Y-66620000D01*
X68030000Y-66620000D02*
X69020000Y-67610000D01*
X64210000Y-67642500D02*
X65597500Y-67642500D01*
X65597500Y-67642500D02*
X66620000Y-66620000D01*
X64180000Y-69547500D02*
X64210000Y-69517500D01*
D28*
X63027500Y-36387500D02*
X63027500Y-37350000D01*
X61390000Y-34750000D02*
X63027500Y-36387500D01*
X73017700Y-47497700D02*
X73130000Y-47610000D01*
X67452500Y-53510000D02*
X67432500Y-53490000D01*
D29*
X61390000Y-32700000D02*
X62824680Y-32700000D01*
X63119841Y-32995161D02*
X63519840Y-33395160D01*
X62824680Y-32700000D02*
X63119841Y-32995161D01*
D10*
X69929023Y-61061523D02*
X69447500Y-60580000D01*
X70010001Y-61142501D02*
X69929023Y-61061523D01*
X70010001Y-63590001D02*
X70010001Y-61142501D01*
X69570002Y-64030000D02*
X70010001Y-63590001D01*
X68810000Y-64030000D02*
X69570002Y-64030000D01*
X68810000Y-65488827D02*
X70380000Y-67058827D01*
X68810000Y-64030000D02*
X68810000Y-65488827D01*
X68965977Y-60098477D02*
X69447500Y-60580000D01*
X68297490Y-59429990D02*
X68965977Y-60098477D01*
X65270010Y-59429990D02*
X68297490Y-59429990D01*
X64060000Y-60640000D02*
X65270010Y-59429990D01*
D29*
X65480000Y-73324964D02*
X64703021Y-74101943D01*
X66090046Y-68334990D02*
X65815036Y-68610000D01*
X65815036Y-68610000D02*
X63305675Y-68610000D01*
X70010001Y-68510001D02*
X68040655Y-68510001D01*
X68040655Y-68510001D02*
X67865644Y-68334990D01*
X71080000Y-67440002D02*
X70010001Y-68510001D01*
X71080000Y-47800000D02*
X71080000Y-67440002D01*
X63305675Y-68610000D02*
X62739990Y-68610000D01*
X65480000Y-72250000D02*
X65480000Y-73324964D01*
X67865644Y-68334990D02*
X66090046Y-68334990D01*
X64703021Y-74101943D02*
X63201943Y-74101943D01*
X62739990Y-73639990D02*
X62739990Y-69175685D01*
X63201943Y-74101943D02*
X62739990Y-73639990D01*
X62739990Y-69175685D02*
X62739990Y-68610000D01*
D26*
X64180000Y-69760000D02*
X64180000Y-69547500D01*
D27*
X62650010Y-64370010D02*
X62650010Y-62729990D01*
X62650010Y-62729990D02*
X62780000Y-62600000D01*
D29*
X73990001Y-68545684D02*
X73990001Y-54310001D01*
X72535685Y-70000000D02*
X73990001Y-68545684D01*
X71970000Y-70000000D02*
X72535685Y-70000000D01*
X72220000Y-52540000D02*
X72220000Y-52500000D01*
X73990001Y-54310001D02*
X72220000Y-52540000D01*
D26*
X65120001Y-56499999D02*
X68132501Y-56499999D01*
X68132501Y-56499999D02*
X69027500Y-55605000D01*
X63600000Y-58020000D02*
X65120001Y-56499999D01*
X69027500Y-55605000D02*
X69027500Y-55130000D01*
D30*
G36*
X76634000Y-75994000D02*
G01*
X68096000Y-75994000D01*
X68096000Y-75196053D01*
X68100958Y-75170434D01*
X68100791Y-75138288D01*
X68098460Y-75126876D01*
X68099221Y-75115253D01*
X68074027Y-74923894D01*
X68063247Y-74892137D01*
X68057395Y-74859118D01*
X67987283Y-74679291D01*
X67969239Y-74651020D01*
X67955678Y-74620348D01*
X67844696Y-74462437D01*
X67820432Y-74439291D01*
X67799946Y-74412737D01*
X67654500Y-74285855D01*
X67625411Y-74269162D01*
X67599184Y-74248263D01*
X67427672Y-74159739D01*
X67395440Y-74150466D01*
X67364986Y-74136427D01*
X67233490Y-74104857D01*
X67367732Y-74104857D01*
X67664594Y-74025313D01*
X67838086Y-73879737D01*
X67948466Y-73688551D01*
X67984857Y-73482168D01*
X67984857Y-71430439D01*
X69094398Y-70320898D01*
X70112410Y-70320898D01*
X70234000Y-70296712D01*
X70234000Y-71713202D01*
X69665601Y-72281602D01*
X69543900Y-72260143D01*
X69010536Y-72260143D01*
X68729541Y-72335435D01*
X68564490Y-72473928D01*
X68459620Y-72655570D01*
X68425143Y-72851100D01*
X68425143Y-72876265D01*
X68421977Y-72882714D01*
X68385273Y-73113152D01*
X68417949Y-73344196D01*
X68456383Y-73426059D01*
X68500435Y-73590460D01*
X68638928Y-73755510D01*
X68820570Y-73860380D01*
X69016100Y-73894857D01*
X69072914Y-73894857D01*
X69101604Y-73901771D01*
X69213047Y-73894857D01*
X69549464Y-73894857D01*
X69705110Y-73853152D01*
X71065273Y-73853152D01*
X71097949Y-74084196D01*
X71197118Y-74295418D01*
X71354010Y-74468143D01*
X71554755Y-74587100D01*
X71781604Y-74641771D01*
X72014500Y-74627322D01*
X72232851Y-74545031D01*
X72417354Y-74402175D01*
X72551694Y-74211382D01*
X72624151Y-73989042D01*
X72626286Y-73744490D01*
X72557719Y-73520917D01*
X72426729Y-73327810D01*
X72244749Y-73181755D01*
X72027866Y-73095666D01*
X71795258Y-73077154D01*
X71567489Y-73127858D01*
X71364700Y-73243293D01*
X71204817Y-73413254D01*
X71101977Y-73622713D01*
X71065273Y-73853152D01*
X69705110Y-73853152D01*
X69830460Y-73819565D01*
X69995510Y-73681071D01*
X70009125Y-73657489D01*
X70023640Y-73653600D01*
X70091660Y-73605971D01*
X70163592Y-73564442D01*
X70216985Y-73500811D01*
X71283325Y-72434472D01*
X71346941Y-72381093D01*
X71388466Y-72309170D01*
X71436101Y-72241140D01*
X71443338Y-72214128D01*
X71457322Y-72189908D01*
X71471744Y-72108117D01*
X71489274Y-72042695D01*
X71511214Y-72042695D01*
X71547697Y-72274351D01*
X71625786Y-72495479D01*
X71742864Y-72698674D01*
X71895011Y-72877129D01*
X72077131Y-73024871D01*
X72283125Y-73136950D01*
X72506095Y-73209611D01*
X72738573Y-73240425D01*
X72972773Y-73228355D01*
X73200851Y-73173809D01*
X73415171Y-73078612D01*
X73608554Y-72945953D01*
X73774523Y-72780272D01*
X73907519Y-72587123D01*
X74003090Y-72372970D01*
X74058425Y-72143368D01*
X74066485Y-71845496D01*
X74023648Y-71613238D01*
X73939798Y-71394229D01*
X73817441Y-71194169D01*
X73660674Y-71019756D01*
X73474749Y-70876833D01*
X73265891Y-70770186D01*
X73041096Y-70703385D01*
X72807892Y-70678669D01*
X72574088Y-70696863D01*
X72347515Y-70757362D01*
X72135762Y-70858136D01*
X71945918Y-70995812D01*
X71784343Y-71165780D01*
X71656447Y-71362346D01*
X71566515Y-71578927D01*
X71517557Y-71808270D01*
X71511214Y-72042695D01*
X71489274Y-72042695D01*
X71493238Y-72027902D01*
X71486000Y-71945167D01*
X71486000Y-70615248D01*
X71674755Y-70727100D01*
X71901604Y-70781771D01*
X72134500Y-70767322D01*
X72352851Y-70685031D01*
X72537354Y-70542175D01*
X72581787Y-70479070D01*
X72618782Y-70481009D01*
X72659314Y-70460356D01*
X72733616Y-70444563D01*
X72897324Y-70325622D01*
X72916581Y-70292268D01*
X74317785Y-68891066D01*
X74388883Y-68827051D01*
X74402941Y-68783785D01*
X74444312Y-68720079D01*
X74475967Y-68520216D01*
X74466001Y-68483021D01*
X74466001Y-64674455D01*
X74482272Y-64683849D01*
X74686486Y-64719857D01*
X75619078Y-64719857D01*
X75912767Y-64641164D01*
X76084570Y-64497002D01*
X76193849Y-64307728D01*
X76229857Y-64103514D01*
X76229857Y-63595922D01*
X76151164Y-63302234D01*
X76007003Y-63130431D01*
X75817728Y-63021151D01*
X75613514Y-62985143D01*
X75374229Y-62985143D01*
X75305258Y-62979654D01*
X75280603Y-62985143D01*
X74680922Y-62985143D01*
X74466001Y-63042731D01*
X74466001Y-58992164D01*
X74542753Y-59070541D01*
X74742969Y-59212826D01*
X74965216Y-59317408D01*
X75202471Y-59380980D01*
X75447233Y-59401534D01*
X75691768Y-59378419D01*
X75928344Y-59312365D01*
X76149484Y-59205462D01*
X76348198Y-59061087D01*
X76518206Y-58883806D01*
X76634000Y-58709521D01*
X76634000Y-75994000D01*
X76634000Y-75994000D01*
G37*
X76634000Y-75994000D02*
X68096000Y-75994000D01*
X68096000Y-75196053D01*
X68100958Y-75170434D01*
X68100791Y-75138288D01*
X68098460Y-75126876D01*
X68099221Y-75115253D01*
X68074027Y-74923894D01*
X68063247Y-74892137D01*
X68057395Y-74859118D01*
X67987283Y-74679291D01*
X67969239Y-74651020D01*
X67955678Y-74620348D01*
X67844696Y-74462437D01*
X67820432Y-74439291D01*
X67799946Y-74412737D01*
X67654500Y-74285855D01*
X67625411Y-74269162D01*
X67599184Y-74248263D01*
X67427672Y-74159739D01*
X67395440Y-74150466D01*
X67364986Y-74136427D01*
X67233490Y-74104857D01*
X67367732Y-74104857D01*
X67664594Y-74025313D01*
X67838086Y-73879737D01*
X67948466Y-73688551D01*
X67984857Y-73482168D01*
X67984857Y-71430439D01*
X69094398Y-70320898D01*
X70112410Y-70320898D01*
X70234000Y-70296712D01*
X70234000Y-71713202D01*
X69665601Y-72281602D01*
X69543900Y-72260143D01*
X69010536Y-72260143D01*
X68729541Y-72335435D01*
X68564490Y-72473928D01*
X68459620Y-72655570D01*
X68425143Y-72851100D01*
X68425143Y-72876265D01*
X68421977Y-72882714D01*
X68385273Y-73113152D01*
X68417949Y-73344196D01*
X68456383Y-73426059D01*
X68500435Y-73590460D01*
X68638928Y-73755510D01*
X68820570Y-73860380D01*
X69016100Y-73894857D01*
X69072914Y-73894857D01*
X69101604Y-73901771D01*
X69213047Y-73894857D01*
X69549464Y-73894857D01*
X69705110Y-73853152D01*
X71065273Y-73853152D01*
X71097949Y-74084196D01*
X71197118Y-74295418D01*
X71354010Y-74468143D01*
X71554755Y-74587100D01*
X71781604Y-74641771D01*
X72014500Y-74627322D01*
X72232851Y-74545031D01*
X72417354Y-74402175D01*
X72551694Y-74211382D01*
X72624151Y-73989042D01*
X72626286Y-73744490D01*
X72557719Y-73520917D01*
X72426729Y-73327810D01*
X72244749Y-73181755D01*
X72027866Y-73095666D01*
X71795258Y-73077154D01*
X71567489Y-73127858D01*
X71364700Y-73243293D01*
X71204817Y-73413254D01*
X71101977Y-73622713D01*
X71065273Y-73853152D01*
X69705110Y-73853152D01*
X69830460Y-73819565D01*
X69995510Y-73681071D01*
X70009125Y-73657489D01*
X70023640Y-73653600D01*
X70091660Y-73605971D01*
X70163592Y-73564442D01*
X70216985Y-73500811D01*
X71283325Y-72434472D01*
X71346941Y-72381093D01*
X71388466Y-72309170D01*
X71436101Y-72241140D01*
X71443338Y-72214128D01*
X71457322Y-72189908D01*
X71471744Y-72108117D01*
X71489274Y-72042695D01*
X71511214Y-72042695D01*
X71547697Y-72274351D01*
X71625786Y-72495479D01*
X71742864Y-72698674D01*
X71895011Y-72877129D01*
X72077131Y-73024871D01*
X72283125Y-73136950D01*
X72506095Y-73209611D01*
X72738573Y-73240425D01*
X72972773Y-73228355D01*
X73200851Y-73173809D01*
X73415171Y-73078612D01*
X73608554Y-72945953D01*
X73774523Y-72780272D01*
X73907519Y-72587123D01*
X74003090Y-72372970D01*
X74058425Y-72143368D01*
X74066485Y-71845496D01*
X74023648Y-71613238D01*
X73939798Y-71394229D01*
X73817441Y-71194169D01*
X73660674Y-71019756D01*
X73474749Y-70876833D01*
X73265891Y-70770186D01*
X73041096Y-70703385D01*
X72807892Y-70678669D01*
X72574088Y-70696863D01*
X72347515Y-70757362D01*
X72135762Y-70858136D01*
X71945918Y-70995812D01*
X71784343Y-71165780D01*
X71656447Y-71362346D01*
X71566515Y-71578927D01*
X71517557Y-71808270D01*
X71511214Y-72042695D01*
X71489274Y-72042695D01*
X71493238Y-72027902D01*
X71486000Y-71945167D01*
X71486000Y-70615248D01*
X71674755Y-70727100D01*
X71901604Y-70781771D01*
X72134500Y-70767322D01*
X72352851Y-70685031D01*
X72537354Y-70542175D01*
X72581787Y-70479070D01*
X72618782Y-70481009D01*
X72659314Y-70460356D01*
X72733616Y-70444563D01*
X72897324Y-70325622D01*
X72916581Y-70292268D01*
X74317785Y-68891066D01*
X74388883Y-68827051D01*
X74402941Y-68783785D01*
X74444312Y-68720079D01*
X74475967Y-68520216D01*
X74466001Y-68483021D01*
X74466001Y-64674455D01*
X74482272Y-64683849D01*
X74686486Y-64719857D01*
X75619078Y-64719857D01*
X75912767Y-64641164D01*
X76084570Y-64497002D01*
X76193849Y-64307728D01*
X76229857Y-64103514D01*
X76229857Y-63595922D01*
X76151164Y-63302234D01*
X76007003Y-63130431D01*
X75817728Y-63021151D01*
X75613514Y-62985143D01*
X75374229Y-62985143D01*
X75305258Y-62979654D01*
X75280603Y-62985143D01*
X74680922Y-62985143D01*
X74466001Y-63042731D01*
X74466001Y-58992164D01*
X74542753Y-59070541D01*
X74742969Y-59212826D01*
X74965216Y-59317408D01*
X75202471Y-59380980D01*
X75447233Y-59401534D01*
X75691768Y-59378419D01*
X75928344Y-59312365D01*
X76149484Y-59205462D01*
X76348198Y-59061087D01*
X76518206Y-58883806D01*
X76634000Y-58709521D01*
X76634000Y-75994000D01*
G36*
X67695242Y-68837752D02*
G01*
X67759289Y-68908884D01*
X67802558Y-68922943D01*
X67866261Y-68964312D01*
X68066123Y-68995967D01*
X68103318Y-68986001D01*
X68219102Y-68986001D01*
X68219102Y-69425602D01*
X66949561Y-70695143D01*
X66876092Y-70695143D01*
X66904151Y-70609042D01*
X66906286Y-70364490D01*
X66837719Y-70140917D01*
X66706729Y-69947810D01*
X66524749Y-69801755D01*
X66307866Y-69715666D01*
X66075258Y-69697154D01*
X65847489Y-69747858D01*
X65661868Y-69853520D01*
X65634749Y-69831755D01*
X65417866Y-69745666D01*
X65185258Y-69727154D01*
X64957489Y-69777858D01*
X64754700Y-69893293D01*
X64594817Y-70063254D01*
X64491977Y-70272713D01*
X64455273Y-70503152D01*
X64487949Y-70734196D01*
X64587118Y-70945418D01*
X64744010Y-71118143D01*
X64944755Y-71237100D01*
X65171604Y-71291771D01*
X65404500Y-71277322D01*
X65622851Y-71195031D01*
X65705888Y-71130737D01*
X65834755Y-71207100D01*
X65988149Y-71244068D01*
X65975143Y-71317832D01*
X65975143Y-71652330D01*
X65874749Y-71571755D01*
X65657866Y-71485666D01*
X65425258Y-71467154D01*
X65197489Y-71517858D01*
X64994700Y-71633293D01*
X64834817Y-71803254D01*
X64731977Y-72012713D01*
X64695273Y-72243152D01*
X64727949Y-72474196D01*
X64827118Y-72685418D01*
X64984010Y-72858143D01*
X65004001Y-72869989D01*
X65004001Y-73127797D01*
X64505856Y-73625943D01*
X63399107Y-73625943D01*
X63215990Y-73442826D01*
X63215990Y-69222908D01*
X63307344Y-69152174D01*
X63353938Y-69086000D01*
X65802581Y-69086000D01*
X65898133Y-69091009D01*
X65938665Y-69070356D01*
X66012967Y-69054563D01*
X66176674Y-68935623D01*
X66195933Y-68902267D01*
X66287210Y-68810990D01*
X67668480Y-68810990D01*
X67695242Y-68837752D01*
X67695242Y-68837752D01*
G37*
X67695242Y-68837752D02*
X67759289Y-68908884D01*
X67802558Y-68922943D01*
X67866261Y-68964312D01*
X68066123Y-68995967D01*
X68103318Y-68986001D01*
X68219102Y-68986001D01*
X68219102Y-69425602D01*
X66949561Y-70695143D01*
X66876092Y-70695143D01*
X66904151Y-70609042D01*
X66906286Y-70364490D01*
X66837719Y-70140917D01*
X66706729Y-69947810D01*
X66524749Y-69801755D01*
X66307866Y-69715666D01*
X66075258Y-69697154D01*
X65847489Y-69747858D01*
X65661868Y-69853520D01*
X65634749Y-69831755D01*
X65417866Y-69745666D01*
X65185258Y-69727154D01*
X64957489Y-69777858D01*
X64754700Y-69893293D01*
X64594817Y-70063254D01*
X64491977Y-70272713D01*
X64455273Y-70503152D01*
X64487949Y-70734196D01*
X64587118Y-70945418D01*
X64744010Y-71118143D01*
X64944755Y-71237100D01*
X65171604Y-71291771D01*
X65404500Y-71277322D01*
X65622851Y-71195031D01*
X65705888Y-71130737D01*
X65834755Y-71207100D01*
X65988149Y-71244068D01*
X65975143Y-71317832D01*
X65975143Y-71652330D01*
X65874749Y-71571755D01*
X65657866Y-71485666D01*
X65425258Y-71467154D01*
X65197489Y-71517858D01*
X64994700Y-71633293D01*
X64834817Y-71803254D01*
X64731977Y-72012713D01*
X64695273Y-72243152D01*
X64727949Y-72474196D01*
X64827118Y-72685418D01*
X64984010Y-72858143D01*
X65004001Y-72869989D01*
X65004001Y-73127797D01*
X64505856Y-73625943D01*
X63399107Y-73625943D01*
X63215990Y-73442826D01*
X63215990Y-69222908D01*
X63307344Y-69152174D01*
X63353938Y-69086000D01*
X65802581Y-69086000D01*
X65898133Y-69091009D01*
X65938665Y-69070356D01*
X66012967Y-69054563D01*
X66176674Y-68935623D01*
X66195933Y-68902267D01*
X66287210Y-68810990D01*
X67668480Y-68810990D01*
X67695242Y-68837752D01*
G36*
X68563080Y-60580878D02*
G01*
X68563086Y-60580882D01*
X68580143Y-60597939D01*
X68580143Y-61049078D01*
X68658836Y-61342767D01*
X68802998Y-61514570D01*
X68992272Y-61623849D01*
X69196486Y-61659857D01*
X69384002Y-61659857D01*
X69384002Y-61849102D01*
X68047590Y-61849102D01*
X67913292Y-61875816D01*
X67788919Y-61958919D01*
X67778842Y-61974000D01*
X67066304Y-61974000D01*
X66986708Y-61920816D01*
X66852410Y-61894102D01*
X65767590Y-61894102D01*
X65633292Y-61920816D01*
X65508919Y-62003919D01*
X65425816Y-62128292D01*
X65399102Y-62262590D01*
X65399102Y-62937410D01*
X65425816Y-63071708D01*
X65508919Y-63196081D01*
X65633292Y-63279184D01*
X65767590Y-63305898D01*
X66852410Y-63305898D01*
X66986708Y-63279184D01*
X67066304Y-63226000D01*
X67679102Y-63226000D01*
X67679102Y-63242410D01*
X67705816Y-63376708D01*
X67708016Y-63380000D01*
X67705816Y-63383292D01*
X67679102Y-63517590D01*
X67679102Y-64542410D01*
X67705816Y-64676708D01*
X67788919Y-64801081D01*
X67913292Y-64884184D01*
X68047590Y-64910898D01*
X68184001Y-64910898D01*
X68184001Y-65461497D01*
X68176762Y-65544228D01*
X68198259Y-65624458D01*
X68212679Y-65706234D01*
X68226661Y-65730452D01*
X68233900Y-65757467D01*
X68281533Y-65825493D01*
X68286853Y-65834708D01*
X68186523Y-65799475D01*
X68121073Y-65796903D01*
X68115313Y-65775408D01*
X67969737Y-65601914D01*
X67778551Y-65491534D01*
X67572168Y-65455143D01*
X66302268Y-65455143D01*
X66005407Y-65534687D01*
X65831914Y-65680263D01*
X65721534Y-65871449D01*
X65685143Y-66077832D01*
X65685143Y-66386716D01*
X65255360Y-66816500D01*
X65036000Y-66816500D01*
X65036000Y-64649038D01*
X65044909Y-64573763D01*
X65024934Y-64464389D01*
X65020898Y-64437543D01*
X65020898Y-64162590D01*
X65399102Y-64162590D01*
X65399102Y-64837410D01*
X65425816Y-64971708D01*
X65508919Y-65096081D01*
X65633292Y-65179184D01*
X65767590Y-65205898D01*
X66852410Y-65205898D01*
X66986708Y-65179184D01*
X67111081Y-65096081D01*
X67194184Y-64971708D01*
X67220898Y-64837410D01*
X67220898Y-64162590D01*
X67194184Y-64028292D01*
X67111081Y-63903919D01*
X66986708Y-63820816D01*
X66852410Y-63794102D01*
X65767590Y-63794102D01*
X65633292Y-63820816D01*
X65508919Y-63903919D01*
X65425816Y-64028292D01*
X65399102Y-64162590D01*
X65020898Y-64162590D01*
X64994184Y-64028292D01*
X64911081Y-63903919D01*
X64786708Y-63820816D01*
X64652410Y-63794102D01*
X64453559Y-63794102D01*
X64451056Y-63792372D01*
X64408248Y-63782449D01*
X64348524Y-63761476D01*
X64311486Y-63760021D01*
X64156083Y-63724000D01*
X63426010Y-63724000D01*
X63426010Y-63376000D01*
X64168247Y-63376000D01*
X64340751Y-63350065D01*
X64432728Y-63305898D01*
X64652410Y-63305898D01*
X64786708Y-63279184D01*
X64911081Y-63196081D01*
X64994184Y-63071708D01*
X65020898Y-62937410D01*
X65020898Y-62262590D01*
X64994184Y-62128292D01*
X64911081Y-62003919D01*
X64786708Y-61920816D01*
X64652410Y-61894102D01*
X64453561Y-61894102D01*
X64451056Y-61892371D01*
X64156083Y-61824000D01*
X63526010Y-61824000D01*
X63526010Y-61571158D01*
X63617272Y-61623849D01*
X63821486Y-61659857D01*
X64329078Y-61659857D01*
X64622767Y-61581164D01*
X64794570Y-61437002D01*
X64903849Y-61247728D01*
X64939857Y-61043514D01*
X64939857Y-60645439D01*
X65529306Y-60055990D01*
X68038193Y-60055990D01*
X68563080Y-60580878D01*
X68563080Y-60580878D01*
G37*
X68563080Y-60580878D02*
X68563086Y-60580882D01*
X68580143Y-60597939D01*
X68580143Y-61049078D01*
X68658836Y-61342767D01*
X68802998Y-61514570D01*
X68992272Y-61623849D01*
X69196486Y-61659857D01*
X69384002Y-61659857D01*
X69384002Y-61849102D01*
X68047590Y-61849102D01*
X67913292Y-61875816D01*
X67788919Y-61958919D01*
X67778842Y-61974000D01*
X67066304Y-61974000D01*
X66986708Y-61920816D01*
X66852410Y-61894102D01*
X65767590Y-61894102D01*
X65633292Y-61920816D01*
X65508919Y-62003919D01*
X65425816Y-62128292D01*
X65399102Y-62262590D01*
X65399102Y-62937410D01*
X65425816Y-63071708D01*
X65508919Y-63196081D01*
X65633292Y-63279184D01*
X65767590Y-63305898D01*
X66852410Y-63305898D01*
X66986708Y-63279184D01*
X67066304Y-63226000D01*
X67679102Y-63226000D01*
X67679102Y-63242410D01*
X67705816Y-63376708D01*
X67708016Y-63380000D01*
X67705816Y-63383292D01*
X67679102Y-63517590D01*
X67679102Y-64542410D01*
X67705816Y-64676708D01*
X67788919Y-64801081D01*
X67913292Y-64884184D01*
X68047590Y-64910898D01*
X68184001Y-64910898D01*
X68184001Y-65461497D01*
X68176762Y-65544228D01*
X68198259Y-65624458D01*
X68212679Y-65706234D01*
X68226661Y-65730452D01*
X68233900Y-65757467D01*
X68281533Y-65825493D01*
X68286853Y-65834708D01*
X68186523Y-65799475D01*
X68121073Y-65796903D01*
X68115313Y-65775408D01*
X67969737Y-65601914D01*
X67778551Y-65491534D01*
X67572168Y-65455143D01*
X66302268Y-65455143D01*
X66005407Y-65534687D01*
X65831914Y-65680263D01*
X65721534Y-65871449D01*
X65685143Y-66077832D01*
X65685143Y-66386716D01*
X65255360Y-66816500D01*
X65036000Y-66816500D01*
X65036000Y-64649038D01*
X65044909Y-64573763D01*
X65024934Y-64464389D01*
X65020898Y-64437543D01*
X65020898Y-64162590D01*
X65399102Y-64162590D01*
X65399102Y-64837410D01*
X65425816Y-64971708D01*
X65508919Y-65096081D01*
X65633292Y-65179184D01*
X65767590Y-65205898D01*
X66852410Y-65205898D01*
X66986708Y-65179184D01*
X67111081Y-65096081D01*
X67194184Y-64971708D01*
X67220898Y-64837410D01*
X67220898Y-64162590D01*
X67194184Y-64028292D01*
X67111081Y-63903919D01*
X66986708Y-63820816D01*
X66852410Y-63794102D01*
X65767590Y-63794102D01*
X65633292Y-63820816D01*
X65508919Y-63903919D01*
X65425816Y-64028292D01*
X65399102Y-64162590D01*
X65020898Y-64162590D01*
X64994184Y-64028292D01*
X64911081Y-63903919D01*
X64786708Y-63820816D01*
X64652410Y-63794102D01*
X64453559Y-63794102D01*
X64451056Y-63792372D01*
X64408248Y-63782449D01*
X64348524Y-63761476D01*
X64311486Y-63760021D01*
X64156083Y-63724000D01*
X63426010Y-63724000D01*
X63426010Y-63376000D01*
X64168247Y-63376000D01*
X64340751Y-63350065D01*
X64432728Y-63305898D01*
X64652410Y-63305898D01*
X64786708Y-63279184D01*
X64911081Y-63196081D01*
X64994184Y-63071708D01*
X65020898Y-62937410D01*
X65020898Y-62262590D01*
X64994184Y-62128292D01*
X64911081Y-62003919D01*
X64786708Y-61920816D01*
X64652410Y-61894102D01*
X64453561Y-61894102D01*
X64451056Y-61892371D01*
X64156083Y-61824000D01*
X63526010Y-61824000D01*
X63526010Y-61571158D01*
X63617272Y-61623849D01*
X63821486Y-61659857D01*
X64329078Y-61659857D01*
X64622767Y-61581164D01*
X64794570Y-61437002D01*
X64903849Y-61247728D01*
X64939857Y-61043514D01*
X64939857Y-60645439D01*
X65529306Y-60055990D01*
X68038193Y-60055990D01*
X68563080Y-60580878D01*
G36*
X65103935Y-32015297D02*
G01*
X65098910Y-32042298D01*
X65100131Y-32141051D01*
X65100323Y-32141959D01*
X65100218Y-32142878D01*
X65130566Y-32510693D01*
X65133215Y-32519951D01*
X65133226Y-32529578D01*
X65205648Y-32891463D01*
X65209344Y-32900356D01*
X65210462Y-32909920D01*
X65323998Y-33261085D01*
X65328691Y-33269494D01*
X65330900Y-33278862D01*
X65484045Y-33614649D01*
X65489674Y-33622464D01*
X65492947Y-33631520D01*
X65683670Y-33947476D01*
X65690159Y-33954591D01*
X65694452Y-33963213D01*
X65920227Y-34255155D01*
X65927491Y-34261477D01*
X65932744Y-34269545D01*
X66190580Y-34533605D01*
X66198521Y-34539049D01*
X66204667Y-34546461D01*
X66491144Y-34779134D01*
X66499655Y-34783628D01*
X66506615Y-34790287D01*
X66817935Y-34988492D01*
X66826913Y-34991981D01*
X66834590Y-34997793D01*
X67166627Y-35158902D01*
X67175946Y-35161335D01*
X67184238Y-35166226D01*
X67532590Y-35288104D01*
X67542128Y-35289450D01*
X67550931Y-35293357D01*
X67910982Y-35374387D01*
X67920609Y-35374628D01*
X67929803Y-35377497D01*
X68296784Y-35416609D01*
X68306375Y-35415742D01*
X68315836Y-35417535D01*
X68684882Y-35414206D01*
X68694310Y-35412242D01*
X68703909Y-35412936D01*
X69070126Y-35367213D01*
X69079265Y-35364179D01*
X69088890Y-35363764D01*
X69447422Y-35276251D01*
X69456153Y-35272186D01*
X69465662Y-35270668D01*
X69811760Y-35142529D01*
X69819968Y-35137486D01*
X69829239Y-35134886D01*
X70158315Y-34967814D01*
X70165884Y-34961865D01*
X70174797Y-34958216D01*
X70482493Y-34754427D01*
X70489329Y-34747647D01*
X70497761Y-34742998D01*
X70779995Y-34505194D01*
X70786007Y-34497672D01*
X70793848Y-34492086D01*
X70809336Y-34475640D01*
X72350026Y-34475640D01*
X72353519Y-34490531D01*
X72353425Y-34505828D01*
X72373929Y-34577571D01*
X72390964Y-34650216D01*
X72398495Y-34663528D01*
X72402699Y-34678238D01*
X72442519Y-34741348D01*
X72479255Y-34806287D01*
X72490219Y-34816949D01*
X72498381Y-34829887D01*
X72554315Y-34879286D01*
X72607798Y-34931301D01*
X72621315Y-34938458D01*
X72632782Y-34948586D01*
X72700348Y-34980309D01*
X72766266Y-35015214D01*
X72781242Y-35018288D01*
X72795449Y-35024959D01*
X72862644Y-35035002D01*
X72941911Y-35051277D01*
X73006144Y-35046000D01*
X74324875Y-35046000D01*
X74457501Y-35027006D01*
X74620733Y-34952789D01*
X74730474Y-34858230D01*
X74763164Y-34887101D01*
X74827262Y-34944920D01*
X74830267Y-34946369D01*
X74832772Y-34948582D01*
X74911111Y-34985362D01*
X74988757Y-35022817D01*
X74992059Y-35023367D01*
X74995453Y-35024960D01*
X75055861Y-35033987D01*
X75165636Y-35052263D01*
X75217780Y-35046000D01*
X75595335Y-35046000D01*
X75600421Y-35047399D01*
X75687423Y-35046000D01*
X75724883Y-35046000D01*
X75729620Y-35045321D01*
X75779710Y-35044516D01*
X75817903Y-35032677D01*
X75857500Y-35027007D01*
X75903116Y-35006266D01*
X75929188Y-34998185D01*
X75943898Y-35006702D01*
X75970397Y-35013196D01*
X75995451Y-35024959D01*
X76054250Y-35033748D01*
X76118057Y-35049386D01*
X76194689Y-35046000D01*
X77224875Y-35046000D01*
X77357501Y-35027006D01*
X77520733Y-34952789D01*
X77656574Y-34835741D01*
X77754103Y-34685272D01*
X77805479Y-34513479D01*
X77806575Y-34334171D01*
X77757301Y-34161762D01*
X77661617Y-34010112D01*
X77527217Y-33891413D01*
X77364548Y-33815040D01*
X77223763Y-33794000D01*
X76793893Y-33794000D01*
X77609404Y-32454233D01*
X77654104Y-32385271D01*
X77669562Y-32333580D01*
X77690794Y-32283991D01*
X77695122Y-32248113D01*
X77705480Y-32213479D01*
X77705809Y-32159525D01*
X77712270Y-32105970D01*
X77706355Y-32070316D01*
X77706575Y-32034170D01*
X77691748Y-31982291D01*
X77682918Y-31929076D01*
X77667235Y-31896519D01*
X77657300Y-31861761D01*
X77628508Y-31816127D01*
X77605097Y-31767530D01*
X77580906Y-31740683D01*
X77561617Y-31710112D01*
X77521170Y-31674389D01*
X77485064Y-31634321D01*
X77454318Y-31615348D01*
X77427217Y-31591413D01*
X77378369Y-31568479D01*
X77332469Y-31540155D01*
X77297629Y-31530572D01*
X77264548Y-31515040D01*
X77213332Y-31507386D01*
X77159579Y-31492601D01*
X77072576Y-31494000D01*
X75455758Y-31494000D01*
X75441944Y-31490614D01*
X75365302Y-31494000D01*
X75335128Y-31494000D01*
X75321670Y-31495927D01*
X75262807Y-31498527D01*
X75233335Y-31508577D01*
X75202500Y-31512993D01*
X75148857Y-31537383D01*
X75093092Y-31556400D01*
X75067623Y-31574318D01*
X75039267Y-31587211D01*
X74994625Y-31625678D01*
X74946440Y-31659579D01*
X74927027Y-31683923D01*
X74903427Y-31704258D01*
X74871373Y-31753709D01*
X74834640Y-31799773D01*
X74822839Y-31828590D01*
X74805897Y-31854727D01*
X74789014Y-31911181D01*
X74780673Y-31931548D01*
X74776670Y-31922342D01*
X74769035Y-31889785D01*
X74740861Y-31839981D01*
X74736194Y-31829247D01*
X74719097Y-31801508D01*
X74680746Y-31733715D01*
X74672167Y-31725372D01*
X74665892Y-31715191D01*
X74608033Y-31662999D01*
X74552199Y-31608699D01*
X74541633Y-31603105D01*
X74532748Y-31595089D01*
X74462558Y-31561231D01*
X74393736Y-31524786D01*
X74382021Y-31522381D01*
X74371242Y-31517181D01*
X74294374Y-31504386D01*
X74218093Y-31488723D01*
X74206166Y-31489703D01*
X74194359Y-31487738D01*
X74117019Y-31497027D01*
X74039379Y-31503406D01*
X74028207Y-31507694D01*
X74016332Y-31509120D01*
X73944728Y-31539733D01*
X73871972Y-31567658D01*
X73862453Y-31574908D01*
X73851458Y-31579609D01*
X73791307Y-31629103D01*
X73729018Y-31676549D01*
X73722109Y-31686040D01*
X73712992Y-31693542D01*
X73660100Y-31771221D01*
X73645241Y-31791633D01*
X73642093Y-31797667D01*
X73612071Y-31841758D01*
X73600573Y-31877246D01*
X72438844Y-34103895D01*
X72405897Y-34154728D01*
X72384512Y-34226234D01*
X72359732Y-34296591D01*
X72358905Y-34311863D01*
X72354521Y-34326520D01*
X72354064Y-34401150D01*
X72350026Y-34475640D01*
X70809336Y-34475640D01*
X71046878Y-34223421D01*
X71051986Y-34215257D01*
X71059135Y-34208805D01*
X71279607Y-33912837D01*
X71283743Y-33904139D01*
X71290102Y-33896909D01*
X71475097Y-33577561D01*
X71478205Y-33568449D01*
X71483690Y-33560537D01*
X71630754Y-33222043D01*
X71632794Y-33212636D01*
X71637336Y-33204141D01*
X71744518Y-32850987D01*
X71745463Y-32841409D01*
X71748999Y-32832448D01*
X71814881Y-32469316D01*
X71814719Y-32459691D01*
X71817201Y-32450383D01*
X71840909Y-32082085D01*
X71836000Y-32045130D01*
X71836000Y-30376000D01*
X78524001Y-30376000D01*
X78524000Y-38824000D01*
X77047028Y-38824000D01*
X77010000Y-38816635D01*
X76960800Y-38826421D01*
X76863292Y-38845817D01*
X76738920Y-38928920D01*
X76655817Y-39053292D01*
X76626635Y-39200000D01*
X76634001Y-39237033D01*
X76634001Y-42335662D01*
X76561936Y-42213807D01*
X76401441Y-42027870D01*
X76210554Y-41873294D01*
X75995312Y-41754964D01*
X75762517Y-41676619D01*
X75519528Y-41640738D01*
X75274025Y-41648453D01*
X75033768Y-41699521D01*
X74806351Y-41792328D01*
X74598964Y-41923940D01*
X74418161Y-42090197D01*
X74269656Y-42285845D01*
X74158145Y-42504698D01*
X74087151Y-42739838D01*
X74058921Y-42983836D01*
X74074344Y-43228975D01*
X74132933Y-43467509D01*
X74232837Y-43691898D01*
X74370899Y-43895049D01*
X74542753Y-44070541D01*
X74742969Y-44212826D01*
X74965216Y-44317408D01*
X75202471Y-44380980D01*
X75447233Y-44401534D01*
X75691768Y-44378419D01*
X75928344Y-44312365D01*
X76149484Y-44205462D01*
X76348198Y-44061087D01*
X76518206Y-43883806D01*
X76634001Y-43709520D01*
X76634001Y-57335661D01*
X76561936Y-57213807D01*
X76401441Y-57027870D01*
X76210554Y-56873294D01*
X75995312Y-56754964D01*
X75762517Y-56676619D01*
X75519528Y-56640738D01*
X75274025Y-56648453D01*
X75033768Y-56699521D01*
X74806351Y-56792328D01*
X74598964Y-56923940D01*
X74466001Y-57046206D01*
X74466001Y-54322435D01*
X74471008Y-54226905D01*
X74450357Y-54186375D01*
X74434563Y-54112069D01*
X74315623Y-53948362D01*
X74282270Y-53929105D01*
X72991215Y-52638050D01*
X72994151Y-52629041D01*
X72996286Y-52384490D01*
X72927719Y-52160917D01*
X72796729Y-51967810D01*
X72614749Y-51821755D01*
X72397866Y-51735666D01*
X72165258Y-51717154D01*
X71937489Y-51767858D01*
X71734700Y-51883293D01*
X71574817Y-52053254D01*
X71556000Y-52091579D01*
X71556000Y-48578195D01*
X71676708Y-48554184D01*
X71801081Y-48471081D01*
X71884184Y-48346708D01*
X71910898Y-48212410D01*
X71910898Y-48123700D01*
X72186683Y-48123700D01*
X72254465Y-48268071D01*
X72411357Y-48440796D01*
X72612102Y-48559753D01*
X72838951Y-48614424D01*
X73071847Y-48599975D01*
X73290198Y-48517684D01*
X73410770Y-48424328D01*
X73680460Y-48352065D01*
X73845510Y-48213572D01*
X73950380Y-48031930D01*
X73984857Y-47836400D01*
X73984857Y-47378036D01*
X73909565Y-47097041D01*
X73771072Y-46931990D01*
X73589430Y-46827120D01*
X73393900Y-46792643D01*
X72860536Y-46792643D01*
X72579540Y-46867935D01*
X72578544Y-46868771D01*
X72545061Y-46871700D01*
X70949794Y-46871700D01*
X70787153Y-46900378D01*
X70595967Y-47010758D01*
X70583231Y-47025937D01*
X70483292Y-47045816D01*
X70358919Y-47128919D01*
X70275816Y-47253292D01*
X70249102Y-47387590D01*
X70249102Y-48212410D01*
X70275816Y-48346708D01*
X70358919Y-48471081D01*
X70483292Y-48554184D01*
X70604000Y-48578195D01*
X70604001Y-60919339D01*
X70593337Y-60900870D01*
X70586101Y-60873863D01*
X70538472Y-60805840D01*
X70496943Y-60733908D01*
X70433311Y-60680515D01*
X70411428Y-60658632D01*
X70411424Y-60658626D01*
X70314857Y-60562060D01*
X70314857Y-60110922D01*
X70236164Y-59817234D01*
X70092003Y-59645431D01*
X69902728Y-59536151D01*
X69698514Y-59500143D01*
X69252939Y-59500143D01*
X68759474Y-59006678D01*
X68706083Y-58943048D01*
X68634150Y-58901518D01*
X68566130Y-58853890D01*
X68539118Y-58846652D01*
X68514897Y-58832668D01*
X68433110Y-58818246D01*
X68352891Y-58796752D01*
X68270157Y-58803990D01*
X67857518Y-58803990D01*
X67937354Y-58742175D01*
X68071694Y-58551382D01*
X68144151Y-58329042D01*
X68146286Y-58084490D01*
X68077719Y-57860917D01*
X67946729Y-57667810D01*
X67764749Y-57521755D01*
X67547866Y-57435666D01*
X67315258Y-57417154D01*
X67087489Y-57467858D01*
X66884700Y-57583293D01*
X66724817Y-57753254D01*
X66690856Y-57822424D01*
X66547866Y-57765666D01*
X66390015Y-57753104D01*
X66414151Y-57679042D01*
X66416286Y-57434490D01*
X66383013Y-57325999D01*
X68083463Y-57325999D01*
X68158738Y-57334908D01*
X68268105Y-57314935D01*
X68378119Y-57298394D01*
X68390057Y-57292662D01*
X68408086Y-57289369D01*
X68445483Y-57266046D01*
X68602022Y-57190877D01*
X68676689Y-57121855D01*
X68682257Y-57118383D01*
X68704387Y-57096252D01*
X68784411Y-57022278D01*
X68792796Y-57007843D01*
X69576891Y-56223748D01*
X69636422Y-56176818D01*
X69699633Y-56085359D01*
X69765727Y-55995875D01*
X69770115Y-55983383D01*
X69780538Y-55968300D01*
X69790492Y-55925359D01*
X69848025Y-55761524D01*
X69852017Y-55659918D01*
X69853500Y-55653522D01*
X69853500Y-55622185D01*
X69857777Y-55513338D01*
X69853500Y-55497207D01*
X69853500Y-55067994D01*
X69844857Y-55010503D01*
X69844857Y-54860536D01*
X69769565Y-54579541D01*
X69631072Y-54414490D01*
X69449430Y-54309620D01*
X69253900Y-54275143D01*
X68795536Y-54275143D01*
X68514541Y-54350435D01*
X68349490Y-54488928D01*
X68258500Y-54646529D01*
X68258500Y-53427994D01*
X68249857Y-53370503D01*
X68249857Y-53220536D01*
X68174565Y-52939541D01*
X68036072Y-52774490D01*
X67854430Y-52669620D01*
X67658900Y-52635143D01*
X67200536Y-52635143D01*
X66919541Y-52710435D01*
X66754490Y-52848928D01*
X66649620Y-53030570D01*
X66615143Y-53226100D01*
X66615143Y-53404192D01*
X66606500Y-53441480D01*
X66606501Y-55060954D01*
X66597591Y-55136237D01*
X66617571Y-55245640D01*
X66634106Y-55355620D01*
X66635143Y-55357779D01*
X66635143Y-55399464D01*
X66708704Y-55673999D01*
X65169039Y-55673999D01*
X65093763Y-55665090D01*
X64984391Y-55685064D01*
X64874383Y-55701604D01*
X64862446Y-55707336D01*
X64844416Y-55710629D01*
X64807017Y-55733952D01*
X64650480Y-55809121D01*
X64575812Y-55878144D01*
X64570243Y-55881617D01*
X64548103Y-55903757D01*
X64468091Y-55977719D01*
X64459707Y-55992153D01*
X64426000Y-56025860D01*
X64426000Y-52362139D01*
X64707241Y-52080898D01*
X67012410Y-52080898D01*
X67146708Y-52054184D01*
X67271081Y-51971081D01*
X67354184Y-51846708D01*
X67380898Y-51712410D01*
X67380898Y-49287590D01*
X67354184Y-49153292D01*
X67271081Y-49028919D01*
X67146708Y-48945816D01*
X67012410Y-48919102D01*
X65654111Y-48919102D01*
X65681081Y-48901081D01*
X65764184Y-48776708D01*
X65790898Y-48642410D01*
X65790898Y-47417590D01*
X65764184Y-47283292D01*
X65681081Y-47158919D01*
X65562970Y-47080000D01*
X65681081Y-47001081D01*
X65764184Y-46876708D01*
X65788195Y-46756000D01*
X65800704Y-46756000D01*
X66458017Y-47413313D01*
X66511407Y-47476941D01*
X66583333Y-47518468D01*
X66651360Y-47566101D01*
X66678372Y-47573338D01*
X66702592Y-47587322D01*
X66784380Y-47601744D01*
X66864599Y-47623238D01*
X66947333Y-47616000D01*
X68542693Y-47616000D01*
X68617590Y-47630898D01*
X69542410Y-47630898D01*
X69676708Y-47604184D01*
X69801081Y-47521081D01*
X69884184Y-47396708D01*
X69910898Y-47262410D01*
X69910898Y-46437590D01*
X69884184Y-46303292D01*
X69801081Y-46178919D01*
X69706000Y-46115388D01*
X69706000Y-45728884D01*
X69781694Y-45621382D01*
X69854151Y-45399042D01*
X69856286Y-45154490D01*
X69787719Y-44930917D01*
X69656729Y-44737810D01*
X69474749Y-44591755D01*
X69257866Y-44505666D01*
X69025258Y-44487154D01*
X68797489Y-44537858D01*
X68594700Y-44653293D01*
X68434817Y-44823254D01*
X68331977Y-45032713D01*
X68295273Y-45263152D01*
X68327949Y-45494196D01*
X68427118Y-45705418D01*
X68454000Y-45735013D01*
X68454001Y-46115387D01*
X68358919Y-46178919D01*
X68275816Y-46303292D01*
X68263740Y-46364000D01*
X67179296Y-46364000D01*
X66521984Y-45706688D01*
X66468593Y-45643058D01*
X66396660Y-45601528D01*
X66328640Y-45553900D01*
X66301628Y-45546662D01*
X66277407Y-45532678D01*
X66195620Y-45518256D01*
X66115401Y-45496762D01*
X66032667Y-45504000D01*
X65788195Y-45504000D01*
X65764184Y-45383292D01*
X65681081Y-45258919D01*
X65556708Y-45175816D01*
X65422410Y-45149102D01*
X63897590Y-45149102D01*
X63763292Y-45175816D01*
X63638919Y-45258919D01*
X63555816Y-45383292D01*
X63529102Y-45517590D01*
X63529102Y-46742410D01*
X63555816Y-46876708D01*
X63638919Y-47001081D01*
X63757030Y-47080000D01*
X63638919Y-47158919D01*
X63555816Y-47283292D01*
X63529102Y-47417590D01*
X63529102Y-48642410D01*
X63555816Y-48776708D01*
X63638919Y-48901081D01*
X63763292Y-48984184D01*
X63834001Y-48998249D01*
X63834001Y-49310954D01*
X63825091Y-49386237D01*
X63845071Y-49495640D01*
X63861606Y-49605620D01*
X63867337Y-49617553D01*
X63870628Y-49635581D01*
X63893953Y-49672982D01*
X63969123Y-49829521D01*
X64038145Y-49904188D01*
X64041618Y-49909757D01*
X64063759Y-49931898D01*
X64137723Y-50011911D01*
X64152154Y-50020293D01*
X64219102Y-50087241D01*
X64219102Y-50232759D01*
X63050610Y-51401251D01*
X62991077Y-51448184D01*
X62927839Y-51539681D01*
X62861773Y-51629126D01*
X62857385Y-51641618D01*
X62846962Y-51656701D01*
X62837008Y-51699642D01*
X62779475Y-51863477D01*
X62775483Y-51965083D01*
X62774000Y-51971479D01*
X62774000Y-52002815D01*
X62769723Y-52111662D01*
X62774000Y-52127793D01*
X62774001Y-56914397D01*
X62758964Y-56923940D01*
X62578161Y-57090197D01*
X62429656Y-57285845D01*
X62376000Y-57391151D01*
X62376000Y-43900258D01*
X62542753Y-44070541D01*
X62742969Y-44212826D01*
X62965216Y-44317408D01*
X63202471Y-44380980D01*
X63447233Y-44401534D01*
X63691768Y-44378419D01*
X63928344Y-44312365D01*
X64149484Y-44205462D01*
X64348198Y-44061087D01*
X64518206Y-43883806D01*
X64654132Y-43679220D01*
X64751681Y-43453797D01*
X64808150Y-43213042D01*
X64816378Y-42898826D01*
X64772587Y-42655446D01*
X64686969Y-42425226D01*
X64561936Y-42213807D01*
X64401441Y-42027870D01*
X64210554Y-41873294D01*
X63995312Y-41754964D01*
X63762517Y-41676619D01*
X63519528Y-41640738D01*
X63274025Y-41648453D01*
X63033768Y-41699521D01*
X62806351Y-41792328D01*
X62598964Y-41923940D01*
X62418161Y-42090197D01*
X62376000Y-42145742D01*
X62376000Y-40760748D01*
X66203185Y-40760748D01*
X66240937Y-41105461D01*
X66319828Y-41443141D01*
X66438717Y-41768898D01*
X66595878Y-42078012D01*
X66789038Y-42366007D01*
X67015398Y-42628710D01*
X67271678Y-42862317D01*
X67554168Y-43063443D01*
X67858774Y-43229175D01*
X68181083Y-43357112D01*
X68516429Y-43445401D01*
X68859953Y-43492763D01*
X69206679Y-43498513D01*
X69551583Y-43462566D01*
X69889672Y-43385444D01*
X70216047Y-43268263D01*
X70525980Y-43112722D01*
X70814982Y-42921073D01*
X71078867Y-42696091D01*
X71313812Y-42441037D01*
X71516414Y-42159606D01*
X71683739Y-41855871D01*
X71813362Y-41534236D01*
X71903406Y-41199357D01*
X71952660Y-40855430D01*
X71957263Y-40449780D01*
X71915824Y-40104825D01*
X71833401Y-39767990D01*
X71711108Y-39443496D01*
X71550717Y-39136044D01*
X71354552Y-38850088D01*
X71125454Y-38589769D01*
X70866741Y-38358860D01*
X70582162Y-38160702D01*
X70275837Y-37998170D01*
X69952205Y-37873615D01*
X69615952Y-37788842D01*
X69271952Y-37745080D01*
X68925185Y-37742962D01*
X68580676Y-37782518D01*
X68243413Y-37863177D01*
X67918283Y-37983768D01*
X67609996Y-38142547D01*
X67323016Y-38337211D01*
X67061502Y-38564943D01*
X66829241Y-38822443D01*
X66629596Y-39105982D01*
X66465461Y-39411452D01*
X66339214Y-39734428D01*
X66252682Y-40070230D01*
X66207119Y-40413998D01*
X66203185Y-40760748D01*
X62376000Y-40760748D01*
X62376000Y-39237029D01*
X62383365Y-39200002D01*
X62372969Y-39147731D01*
X62354183Y-39053291D01*
X62271080Y-38928920D01*
X62146708Y-38845817D01*
X62000000Y-38816635D01*
X61962972Y-38824000D01*
X60376000Y-38824000D01*
X60376000Y-35333514D01*
X60389687Y-35384594D01*
X60535263Y-35558086D01*
X60726448Y-35668466D01*
X60932831Y-35704857D01*
X61636337Y-35704857D01*
X62370161Y-36438682D01*
X62305431Y-36492997D01*
X62196151Y-36682272D01*
X62160143Y-36886486D01*
X62160143Y-37819078D01*
X62238836Y-38112767D01*
X62382998Y-38284570D01*
X62572272Y-38393849D01*
X62776486Y-38429857D01*
X63284078Y-38429857D01*
X63577767Y-38351164D01*
X63749570Y-38207002D01*
X63858849Y-38017728D01*
X63894857Y-37813514D01*
X63894857Y-36880922D01*
X63816164Y-36587234D01*
X63672003Y-36415431D01*
X63527246Y-36331855D01*
X63499431Y-36192020D01*
X63388700Y-36026300D01*
X63346874Y-35998353D01*
X62463986Y-35115466D01*
X62469857Y-35082169D01*
X62469857Y-34412267D01*
X62390313Y-34115406D01*
X62244737Y-33941914D01*
X62053552Y-33831534D01*
X61847169Y-33795143D01*
X60927267Y-33795143D01*
X60630406Y-33874687D01*
X60456914Y-34020263D01*
X60376000Y-34160411D01*
X60376000Y-33283514D01*
X60389687Y-33334594D01*
X60535263Y-33508086D01*
X60726448Y-33618466D01*
X60932831Y-33654857D01*
X61852733Y-33654857D01*
X62149594Y-33575313D01*
X62323086Y-33429737D01*
X62433466Y-33238552D01*
X62444496Y-33176000D01*
X62627515Y-33176000D01*
X62749500Y-33297986D01*
X62735113Y-33388312D01*
X62767789Y-33619356D01*
X62866958Y-33830578D01*
X63023850Y-34003303D01*
X63224595Y-34122260D01*
X63451444Y-34176931D01*
X63684340Y-34162482D01*
X63902691Y-34080191D01*
X64087194Y-33937335D01*
X64221534Y-33746542D01*
X64293991Y-33524202D01*
X64296126Y-33279650D01*
X64227559Y-33056077D01*
X64096569Y-32862970D01*
X63914589Y-32716915D01*
X63697706Y-32630826D01*
X63465098Y-32612314D01*
X63420163Y-32622317D01*
X63170082Y-32372237D01*
X63106046Y-32301117D01*
X63062778Y-32287059D01*
X62999073Y-32245689D01*
X62799212Y-32214034D01*
X62762017Y-32224000D01*
X62432808Y-32224000D01*
X62390313Y-32065406D01*
X62244737Y-31891914D01*
X62053552Y-31781534D01*
X61847169Y-31745143D01*
X60927267Y-31745143D01*
X60630406Y-31824687D01*
X60456914Y-31970263D01*
X60376000Y-32110411D01*
X60376000Y-30356000D01*
X65103988Y-30356000D01*
X65103935Y-32015297D01*
X65103935Y-32015297D01*
G37*
X65103935Y-32015297D02*
X65098910Y-32042298D01*
X65100131Y-32141051D01*
X65100323Y-32141959D01*
X65100218Y-32142878D01*
X65130566Y-32510693D01*
X65133215Y-32519951D01*
X65133226Y-32529578D01*
X65205648Y-32891463D01*
X65209344Y-32900356D01*
X65210462Y-32909920D01*
X65323998Y-33261085D01*
X65328691Y-33269494D01*
X65330900Y-33278862D01*
X65484045Y-33614649D01*
X65489674Y-33622464D01*
X65492947Y-33631520D01*
X65683670Y-33947476D01*
X65690159Y-33954591D01*
X65694452Y-33963213D01*
X65920227Y-34255155D01*
X65927491Y-34261477D01*
X65932744Y-34269545D01*
X66190580Y-34533605D01*
X66198521Y-34539049D01*
X66204667Y-34546461D01*
X66491144Y-34779134D01*
X66499655Y-34783628D01*
X66506615Y-34790287D01*
X66817935Y-34988492D01*
X66826913Y-34991981D01*
X66834590Y-34997793D01*
X67166627Y-35158902D01*
X67175946Y-35161335D01*
X67184238Y-35166226D01*
X67532590Y-35288104D01*
X67542128Y-35289450D01*
X67550931Y-35293357D01*
X67910982Y-35374387D01*
X67920609Y-35374628D01*
X67929803Y-35377497D01*
X68296784Y-35416609D01*
X68306375Y-35415742D01*
X68315836Y-35417535D01*
X68684882Y-35414206D01*
X68694310Y-35412242D01*
X68703909Y-35412936D01*
X69070126Y-35367213D01*
X69079265Y-35364179D01*
X69088890Y-35363764D01*
X69447422Y-35276251D01*
X69456153Y-35272186D01*
X69465662Y-35270668D01*
X69811760Y-35142529D01*
X69819968Y-35137486D01*
X69829239Y-35134886D01*
X70158315Y-34967814D01*
X70165884Y-34961865D01*
X70174797Y-34958216D01*
X70482493Y-34754427D01*
X70489329Y-34747647D01*
X70497761Y-34742998D01*
X70779995Y-34505194D01*
X70786007Y-34497672D01*
X70793848Y-34492086D01*
X70809336Y-34475640D01*
X72350026Y-34475640D01*
X72353519Y-34490531D01*
X72353425Y-34505828D01*
X72373929Y-34577571D01*
X72390964Y-34650216D01*
X72398495Y-34663528D01*
X72402699Y-34678238D01*
X72442519Y-34741348D01*
X72479255Y-34806287D01*
X72490219Y-34816949D01*
X72498381Y-34829887D01*
X72554315Y-34879286D01*
X72607798Y-34931301D01*
X72621315Y-34938458D01*
X72632782Y-34948586D01*
X72700348Y-34980309D01*
X72766266Y-35015214D01*
X72781242Y-35018288D01*
X72795449Y-35024959D01*
X72862644Y-35035002D01*
X72941911Y-35051277D01*
X73006144Y-35046000D01*
X74324875Y-35046000D01*
X74457501Y-35027006D01*
X74620733Y-34952789D01*
X74730474Y-34858230D01*
X74763164Y-34887101D01*
X74827262Y-34944920D01*
X74830267Y-34946369D01*
X74832772Y-34948582D01*
X74911111Y-34985362D01*
X74988757Y-35022817D01*
X74992059Y-35023367D01*
X74995453Y-35024960D01*
X75055861Y-35033987D01*
X75165636Y-35052263D01*
X75217780Y-35046000D01*
X75595335Y-35046000D01*
X75600421Y-35047399D01*
X75687423Y-35046000D01*
X75724883Y-35046000D01*
X75729620Y-35045321D01*
X75779710Y-35044516D01*
X75817903Y-35032677D01*
X75857500Y-35027007D01*
X75903116Y-35006266D01*
X75929188Y-34998185D01*
X75943898Y-35006702D01*
X75970397Y-35013196D01*
X75995451Y-35024959D01*
X76054250Y-35033748D01*
X76118057Y-35049386D01*
X76194689Y-35046000D01*
X77224875Y-35046000D01*
X77357501Y-35027006D01*
X77520733Y-34952789D01*
X77656574Y-34835741D01*
X77754103Y-34685272D01*
X77805479Y-34513479D01*
X77806575Y-34334171D01*
X77757301Y-34161762D01*
X77661617Y-34010112D01*
X77527217Y-33891413D01*
X77364548Y-33815040D01*
X77223763Y-33794000D01*
X76793893Y-33794000D01*
X77609404Y-32454233D01*
X77654104Y-32385271D01*
X77669562Y-32333580D01*
X77690794Y-32283991D01*
X77695122Y-32248113D01*
X77705480Y-32213479D01*
X77705809Y-32159525D01*
X77712270Y-32105970D01*
X77706355Y-32070316D01*
X77706575Y-32034170D01*
X77691748Y-31982291D01*
X77682918Y-31929076D01*
X77667235Y-31896519D01*
X77657300Y-31861761D01*
X77628508Y-31816127D01*
X77605097Y-31767530D01*
X77580906Y-31740683D01*
X77561617Y-31710112D01*
X77521170Y-31674389D01*
X77485064Y-31634321D01*
X77454318Y-31615348D01*
X77427217Y-31591413D01*
X77378369Y-31568479D01*
X77332469Y-31540155D01*
X77297629Y-31530572D01*
X77264548Y-31515040D01*
X77213332Y-31507386D01*
X77159579Y-31492601D01*
X77072576Y-31494000D01*
X75455758Y-31494000D01*
X75441944Y-31490614D01*
X75365302Y-31494000D01*
X75335128Y-31494000D01*
X75321670Y-31495927D01*
X75262807Y-31498527D01*
X75233335Y-31508577D01*
X75202500Y-31512993D01*
X75148857Y-31537383D01*
X75093092Y-31556400D01*
X75067623Y-31574318D01*
X75039267Y-31587211D01*
X74994625Y-31625678D01*
X74946440Y-31659579D01*
X74927027Y-31683923D01*
X74903427Y-31704258D01*
X74871373Y-31753709D01*
X74834640Y-31799773D01*
X74822839Y-31828590D01*
X74805897Y-31854727D01*
X74789014Y-31911181D01*
X74780673Y-31931548D01*
X74776670Y-31922342D01*
X74769035Y-31889785D01*
X74740861Y-31839981D01*
X74736194Y-31829247D01*
X74719097Y-31801508D01*
X74680746Y-31733715D01*
X74672167Y-31725372D01*
X74665892Y-31715191D01*
X74608033Y-31662999D01*
X74552199Y-31608699D01*
X74541633Y-31603105D01*
X74532748Y-31595089D01*
X74462558Y-31561231D01*
X74393736Y-31524786D01*
X74382021Y-31522381D01*
X74371242Y-31517181D01*
X74294374Y-31504386D01*
X74218093Y-31488723D01*
X74206166Y-31489703D01*
X74194359Y-31487738D01*
X74117019Y-31497027D01*
X74039379Y-31503406D01*
X74028207Y-31507694D01*
X74016332Y-31509120D01*
X73944728Y-31539733D01*
X73871972Y-31567658D01*
X73862453Y-31574908D01*
X73851458Y-31579609D01*
X73791307Y-31629103D01*
X73729018Y-31676549D01*
X73722109Y-31686040D01*
X73712992Y-31693542D01*
X73660100Y-31771221D01*
X73645241Y-31791633D01*
X73642093Y-31797667D01*
X73612071Y-31841758D01*
X73600573Y-31877246D01*
X72438844Y-34103895D01*
X72405897Y-34154728D01*
X72384512Y-34226234D01*
X72359732Y-34296591D01*
X72358905Y-34311863D01*
X72354521Y-34326520D01*
X72354064Y-34401150D01*
X72350026Y-34475640D01*
X70809336Y-34475640D01*
X71046878Y-34223421D01*
X71051986Y-34215257D01*
X71059135Y-34208805D01*
X71279607Y-33912837D01*
X71283743Y-33904139D01*
X71290102Y-33896909D01*
X71475097Y-33577561D01*
X71478205Y-33568449D01*
X71483690Y-33560537D01*
X71630754Y-33222043D01*
X71632794Y-33212636D01*
X71637336Y-33204141D01*
X71744518Y-32850987D01*
X71745463Y-32841409D01*
X71748999Y-32832448D01*
X71814881Y-32469316D01*
X71814719Y-32459691D01*
X71817201Y-32450383D01*
X71840909Y-32082085D01*
X71836000Y-32045130D01*
X71836000Y-30376000D01*
X78524001Y-30376000D01*
X78524000Y-38824000D01*
X77047028Y-38824000D01*
X77010000Y-38816635D01*
X76960800Y-38826421D01*
X76863292Y-38845817D01*
X76738920Y-38928920D01*
X76655817Y-39053292D01*
X76626635Y-39200000D01*
X76634001Y-39237033D01*
X76634001Y-42335662D01*
X76561936Y-42213807D01*
X76401441Y-42027870D01*
X76210554Y-41873294D01*
X75995312Y-41754964D01*
X75762517Y-41676619D01*
X75519528Y-41640738D01*
X75274025Y-41648453D01*
X75033768Y-41699521D01*
X74806351Y-41792328D01*
X74598964Y-41923940D01*
X74418161Y-42090197D01*
X74269656Y-42285845D01*
X74158145Y-42504698D01*
X74087151Y-42739838D01*
X74058921Y-42983836D01*
X74074344Y-43228975D01*
X74132933Y-43467509D01*
X74232837Y-43691898D01*
X74370899Y-43895049D01*
X74542753Y-44070541D01*
X74742969Y-44212826D01*
X74965216Y-44317408D01*
X75202471Y-44380980D01*
X75447233Y-44401534D01*
X75691768Y-44378419D01*
X75928344Y-44312365D01*
X76149484Y-44205462D01*
X76348198Y-44061087D01*
X76518206Y-43883806D01*
X76634001Y-43709520D01*
X76634001Y-57335661D01*
X76561936Y-57213807D01*
X76401441Y-57027870D01*
X76210554Y-56873294D01*
X75995312Y-56754964D01*
X75762517Y-56676619D01*
X75519528Y-56640738D01*
X75274025Y-56648453D01*
X75033768Y-56699521D01*
X74806351Y-56792328D01*
X74598964Y-56923940D01*
X74466001Y-57046206D01*
X74466001Y-54322435D01*
X74471008Y-54226905D01*
X74450357Y-54186375D01*
X74434563Y-54112069D01*
X74315623Y-53948362D01*
X74282270Y-53929105D01*
X72991215Y-52638050D01*
X72994151Y-52629041D01*
X72996286Y-52384490D01*
X72927719Y-52160917D01*
X72796729Y-51967810D01*
X72614749Y-51821755D01*
X72397866Y-51735666D01*
X72165258Y-51717154D01*
X71937489Y-51767858D01*
X71734700Y-51883293D01*
X71574817Y-52053254D01*
X71556000Y-52091579D01*
X71556000Y-48578195D01*
X71676708Y-48554184D01*
X71801081Y-48471081D01*
X71884184Y-48346708D01*
X71910898Y-48212410D01*
X71910898Y-48123700D01*
X72186683Y-48123700D01*
X72254465Y-48268071D01*
X72411357Y-48440796D01*
X72612102Y-48559753D01*
X72838951Y-48614424D01*
X73071847Y-48599975D01*
X73290198Y-48517684D01*
X73410770Y-48424328D01*
X73680460Y-48352065D01*
X73845510Y-48213572D01*
X73950380Y-48031930D01*
X73984857Y-47836400D01*
X73984857Y-47378036D01*
X73909565Y-47097041D01*
X73771072Y-46931990D01*
X73589430Y-46827120D01*
X73393900Y-46792643D01*
X72860536Y-46792643D01*
X72579540Y-46867935D01*
X72578544Y-46868771D01*
X72545061Y-46871700D01*
X70949794Y-46871700D01*
X70787153Y-46900378D01*
X70595967Y-47010758D01*
X70583231Y-47025937D01*
X70483292Y-47045816D01*
X70358919Y-47128919D01*
X70275816Y-47253292D01*
X70249102Y-47387590D01*
X70249102Y-48212410D01*
X70275816Y-48346708D01*
X70358919Y-48471081D01*
X70483292Y-48554184D01*
X70604000Y-48578195D01*
X70604001Y-60919339D01*
X70593337Y-60900870D01*
X70586101Y-60873863D01*
X70538472Y-60805840D01*
X70496943Y-60733908D01*
X70433311Y-60680515D01*
X70411428Y-60658632D01*
X70411424Y-60658626D01*
X70314857Y-60562060D01*
X70314857Y-60110922D01*
X70236164Y-59817234D01*
X70092003Y-59645431D01*
X69902728Y-59536151D01*
X69698514Y-59500143D01*
X69252939Y-59500143D01*
X68759474Y-59006678D01*
X68706083Y-58943048D01*
X68634150Y-58901518D01*
X68566130Y-58853890D01*
X68539118Y-58846652D01*
X68514897Y-58832668D01*
X68433110Y-58818246D01*
X68352891Y-58796752D01*
X68270157Y-58803990D01*
X67857518Y-58803990D01*
X67937354Y-58742175D01*
X68071694Y-58551382D01*
X68144151Y-58329042D01*
X68146286Y-58084490D01*
X68077719Y-57860917D01*
X67946729Y-57667810D01*
X67764749Y-57521755D01*
X67547866Y-57435666D01*
X67315258Y-57417154D01*
X67087489Y-57467858D01*
X66884700Y-57583293D01*
X66724817Y-57753254D01*
X66690856Y-57822424D01*
X66547866Y-57765666D01*
X66390015Y-57753104D01*
X66414151Y-57679042D01*
X66416286Y-57434490D01*
X66383013Y-57325999D01*
X68083463Y-57325999D01*
X68158738Y-57334908D01*
X68268105Y-57314935D01*
X68378119Y-57298394D01*
X68390057Y-57292662D01*
X68408086Y-57289369D01*
X68445483Y-57266046D01*
X68602022Y-57190877D01*
X68676689Y-57121855D01*
X68682257Y-57118383D01*
X68704387Y-57096252D01*
X68784411Y-57022278D01*
X68792796Y-57007843D01*
X69576891Y-56223748D01*
X69636422Y-56176818D01*
X69699633Y-56085359D01*
X69765727Y-55995875D01*
X69770115Y-55983383D01*
X69780538Y-55968300D01*
X69790492Y-55925359D01*
X69848025Y-55761524D01*
X69852017Y-55659918D01*
X69853500Y-55653522D01*
X69853500Y-55622185D01*
X69857777Y-55513338D01*
X69853500Y-55497207D01*
X69853500Y-55067994D01*
X69844857Y-55010503D01*
X69844857Y-54860536D01*
X69769565Y-54579541D01*
X69631072Y-54414490D01*
X69449430Y-54309620D01*
X69253900Y-54275143D01*
X68795536Y-54275143D01*
X68514541Y-54350435D01*
X68349490Y-54488928D01*
X68258500Y-54646529D01*
X68258500Y-53427994D01*
X68249857Y-53370503D01*
X68249857Y-53220536D01*
X68174565Y-52939541D01*
X68036072Y-52774490D01*
X67854430Y-52669620D01*
X67658900Y-52635143D01*
X67200536Y-52635143D01*
X66919541Y-52710435D01*
X66754490Y-52848928D01*
X66649620Y-53030570D01*
X66615143Y-53226100D01*
X66615143Y-53404192D01*
X66606500Y-53441480D01*
X66606501Y-55060954D01*
X66597591Y-55136237D01*
X66617571Y-55245640D01*
X66634106Y-55355620D01*
X66635143Y-55357779D01*
X66635143Y-55399464D01*
X66708704Y-55673999D01*
X65169039Y-55673999D01*
X65093763Y-55665090D01*
X64984391Y-55685064D01*
X64874383Y-55701604D01*
X64862446Y-55707336D01*
X64844416Y-55710629D01*
X64807017Y-55733952D01*
X64650480Y-55809121D01*
X64575812Y-55878144D01*
X64570243Y-55881617D01*
X64548103Y-55903757D01*
X64468091Y-55977719D01*
X64459707Y-55992153D01*
X64426000Y-56025860D01*
X64426000Y-52362139D01*
X64707241Y-52080898D01*
X67012410Y-52080898D01*
X67146708Y-52054184D01*
X67271081Y-51971081D01*
X67354184Y-51846708D01*
X67380898Y-51712410D01*
X67380898Y-49287590D01*
X67354184Y-49153292D01*
X67271081Y-49028919D01*
X67146708Y-48945816D01*
X67012410Y-48919102D01*
X65654111Y-48919102D01*
X65681081Y-48901081D01*
X65764184Y-48776708D01*
X65790898Y-48642410D01*
X65790898Y-47417590D01*
X65764184Y-47283292D01*
X65681081Y-47158919D01*
X65562970Y-47080000D01*
X65681081Y-47001081D01*
X65764184Y-46876708D01*
X65788195Y-46756000D01*
X65800704Y-46756000D01*
X66458017Y-47413313D01*
X66511407Y-47476941D01*
X66583333Y-47518468D01*
X66651360Y-47566101D01*
X66678372Y-47573338D01*
X66702592Y-47587322D01*
X66784380Y-47601744D01*
X66864599Y-47623238D01*
X66947333Y-47616000D01*
X68542693Y-47616000D01*
X68617590Y-47630898D01*
X69542410Y-47630898D01*
X69676708Y-47604184D01*
X69801081Y-47521081D01*
X69884184Y-47396708D01*
X69910898Y-47262410D01*
X69910898Y-46437590D01*
X69884184Y-46303292D01*
X69801081Y-46178919D01*
X69706000Y-46115388D01*
X69706000Y-45728884D01*
X69781694Y-45621382D01*
X69854151Y-45399042D01*
X69856286Y-45154490D01*
X69787719Y-44930917D01*
X69656729Y-44737810D01*
X69474749Y-44591755D01*
X69257866Y-44505666D01*
X69025258Y-44487154D01*
X68797489Y-44537858D01*
X68594700Y-44653293D01*
X68434817Y-44823254D01*
X68331977Y-45032713D01*
X68295273Y-45263152D01*
X68327949Y-45494196D01*
X68427118Y-45705418D01*
X68454000Y-45735013D01*
X68454001Y-46115387D01*
X68358919Y-46178919D01*
X68275816Y-46303292D01*
X68263740Y-46364000D01*
X67179296Y-46364000D01*
X66521984Y-45706688D01*
X66468593Y-45643058D01*
X66396660Y-45601528D01*
X66328640Y-45553900D01*
X66301628Y-45546662D01*
X66277407Y-45532678D01*
X66195620Y-45518256D01*
X66115401Y-45496762D01*
X66032667Y-45504000D01*
X65788195Y-45504000D01*
X65764184Y-45383292D01*
X65681081Y-45258919D01*
X65556708Y-45175816D01*
X65422410Y-45149102D01*
X63897590Y-45149102D01*
X63763292Y-45175816D01*
X63638919Y-45258919D01*
X63555816Y-45383292D01*
X63529102Y-45517590D01*
X63529102Y-46742410D01*
X63555816Y-46876708D01*
X63638919Y-47001081D01*
X63757030Y-47080000D01*
X63638919Y-47158919D01*
X63555816Y-47283292D01*
X63529102Y-47417590D01*
X63529102Y-48642410D01*
X63555816Y-48776708D01*
X63638919Y-48901081D01*
X63763292Y-48984184D01*
X63834001Y-48998249D01*
X63834001Y-49310954D01*
X63825091Y-49386237D01*
X63845071Y-49495640D01*
X63861606Y-49605620D01*
X63867337Y-49617553D01*
X63870628Y-49635581D01*
X63893953Y-49672982D01*
X63969123Y-49829521D01*
X64038145Y-49904188D01*
X64041618Y-49909757D01*
X64063759Y-49931898D01*
X64137723Y-50011911D01*
X64152154Y-50020293D01*
X64219102Y-50087241D01*
X64219102Y-50232759D01*
X63050610Y-51401251D01*
X62991077Y-51448184D01*
X62927839Y-51539681D01*
X62861773Y-51629126D01*
X62857385Y-51641618D01*
X62846962Y-51656701D01*
X62837008Y-51699642D01*
X62779475Y-51863477D01*
X62775483Y-51965083D01*
X62774000Y-51971479D01*
X62774000Y-52002815D01*
X62769723Y-52111662D01*
X62774000Y-52127793D01*
X62774001Y-56914397D01*
X62758964Y-56923940D01*
X62578161Y-57090197D01*
X62429656Y-57285845D01*
X62376000Y-57391151D01*
X62376000Y-43900258D01*
X62542753Y-44070541D01*
X62742969Y-44212826D01*
X62965216Y-44317408D01*
X63202471Y-44380980D01*
X63447233Y-44401534D01*
X63691768Y-44378419D01*
X63928344Y-44312365D01*
X64149484Y-44205462D01*
X64348198Y-44061087D01*
X64518206Y-43883806D01*
X64654132Y-43679220D01*
X64751681Y-43453797D01*
X64808150Y-43213042D01*
X64816378Y-42898826D01*
X64772587Y-42655446D01*
X64686969Y-42425226D01*
X64561936Y-42213807D01*
X64401441Y-42027870D01*
X64210554Y-41873294D01*
X63995312Y-41754964D01*
X63762517Y-41676619D01*
X63519528Y-41640738D01*
X63274025Y-41648453D01*
X63033768Y-41699521D01*
X62806351Y-41792328D01*
X62598964Y-41923940D01*
X62418161Y-42090197D01*
X62376000Y-42145742D01*
X62376000Y-40760748D01*
X66203185Y-40760748D01*
X66240937Y-41105461D01*
X66319828Y-41443141D01*
X66438717Y-41768898D01*
X66595878Y-42078012D01*
X66789038Y-42366007D01*
X67015398Y-42628710D01*
X67271678Y-42862317D01*
X67554168Y-43063443D01*
X67858774Y-43229175D01*
X68181083Y-43357112D01*
X68516429Y-43445401D01*
X68859953Y-43492763D01*
X69206679Y-43498513D01*
X69551583Y-43462566D01*
X69889672Y-43385444D01*
X70216047Y-43268263D01*
X70525980Y-43112722D01*
X70814982Y-42921073D01*
X71078867Y-42696091D01*
X71313812Y-42441037D01*
X71516414Y-42159606D01*
X71683739Y-41855871D01*
X71813362Y-41534236D01*
X71903406Y-41199357D01*
X71952660Y-40855430D01*
X71957263Y-40449780D01*
X71915824Y-40104825D01*
X71833401Y-39767990D01*
X71711108Y-39443496D01*
X71550717Y-39136044D01*
X71354552Y-38850088D01*
X71125454Y-38589769D01*
X70866741Y-38358860D01*
X70582162Y-38160702D01*
X70275837Y-37998170D01*
X69952205Y-37873615D01*
X69615952Y-37788842D01*
X69271952Y-37745080D01*
X68925185Y-37742962D01*
X68580676Y-37782518D01*
X68243413Y-37863177D01*
X67918283Y-37983768D01*
X67609996Y-38142547D01*
X67323016Y-38337211D01*
X67061502Y-38564943D01*
X66829241Y-38822443D01*
X66629596Y-39105982D01*
X66465461Y-39411452D01*
X66339214Y-39734428D01*
X66252682Y-40070230D01*
X66207119Y-40413998D01*
X66203185Y-40760748D01*
X62376000Y-40760748D01*
X62376000Y-39237029D01*
X62383365Y-39200002D01*
X62372969Y-39147731D01*
X62354183Y-39053291D01*
X62271080Y-38928920D01*
X62146708Y-38845817D01*
X62000000Y-38816635D01*
X61962972Y-38824000D01*
X60376000Y-38824000D01*
X60376000Y-35333514D01*
X60389687Y-35384594D01*
X60535263Y-35558086D01*
X60726448Y-35668466D01*
X60932831Y-35704857D01*
X61636337Y-35704857D01*
X62370161Y-36438682D01*
X62305431Y-36492997D01*
X62196151Y-36682272D01*
X62160143Y-36886486D01*
X62160143Y-37819078D01*
X62238836Y-38112767D01*
X62382998Y-38284570D01*
X62572272Y-38393849D01*
X62776486Y-38429857D01*
X63284078Y-38429857D01*
X63577767Y-38351164D01*
X63749570Y-38207002D01*
X63858849Y-38017728D01*
X63894857Y-37813514D01*
X63894857Y-36880922D01*
X63816164Y-36587234D01*
X63672003Y-36415431D01*
X63527246Y-36331855D01*
X63499431Y-36192020D01*
X63388700Y-36026300D01*
X63346874Y-35998353D01*
X62463986Y-35115466D01*
X62469857Y-35082169D01*
X62469857Y-34412267D01*
X62390313Y-34115406D01*
X62244737Y-33941914D01*
X62053552Y-33831534D01*
X61847169Y-33795143D01*
X60927267Y-33795143D01*
X60630406Y-33874687D01*
X60456914Y-34020263D01*
X60376000Y-34160411D01*
X60376000Y-33283514D01*
X60389687Y-33334594D01*
X60535263Y-33508086D01*
X60726448Y-33618466D01*
X60932831Y-33654857D01*
X61852733Y-33654857D01*
X62149594Y-33575313D01*
X62323086Y-33429737D01*
X62433466Y-33238552D01*
X62444496Y-33176000D01*
X62627515Y-33176000D01*
X62749500Y-33297986D01*
X62735113Y-33388312D01*
X62767789Y-33619356D01*
X62866958Y-33830578D01*
X63023850Y-34003303D01*
X63224595Y-34122260D01*
X63451444Y-34176931D01*
X63684340Y-34162482D01*
X63902691Y-34080191D01*
X64087194Y-33937335D01*
X64221534Y-33746542D01*
X64293991Y-33524202D01*
X64296126Y-33279650D01*
X64227559Y-33056077D01*
X64096569Y-32862970D01*
X63914589Y-32716915D01*
X63697706Y-32630826D01*
X63465098Y-32612314D01*
X63420163Y-32622317D01*
X63170082Y-32372237D01*
X63106046Y-32301117D01*
X63062778Y-32287059D01*
X62999073Y-32245689D01*
X62799212Y-32214034D01*
X62762017Y-32224000D01*
X62432808Y-32224000D01*
X62390313Y-32065406D01*
X62244737Y-31891914D01*
X62053552Y-31781534D01*
X61847169Y-31745143D01*
X60927267Y-31745143D01*
X60630406Y-31824687D01*
X60456914Y-31970263D01*
X60376000Y-32110411D01*
X60376000Y-30356000D01*
X65103988Y-30356000D01*
X65103935Y-32015297D01*
M02*
