G04 #@! TF.GenerationSoftware,KiCad,Pcbnew,(5.99.0-168-g9990dcc1b)*
G04 #@! TF.CreationDate,2019-12-17T14:25:07+03:00*
G04 #@! TF.ProjectId,SmartPartsIONBoard,536d6172-7450-4617-9274-73494f4e426f,rev?*
G04 #@! TF.SameCoordinates,Original*
G04 #@! TF.FileFunction,Other,Fab,Bot*
%FSLAX46Y46*%
G04 Gerber Fmt 4.6, Leading zero omitted, Abs format (unit mm)*
G04 Created by KiCad (PCBNEW (5.99.0-168-g9990dcc1b)) date 2019-12-17 14:25:07*
%MOMM*%
%LPD*%
G04 APERTURE LIST*
%ADD10C,0.100000*%
G04 APERTURE END LIST*
D10*
X64790000Y-68710000D02*
X68790000Y-68710000D01*
X68790000Y-68710000D02*
X68790000Y-63710000D01*
X68790000Y-63710000D02*
X63790000Y-63710000D01*
X63790000Y-63710000D02*
X63790000Y-67710000D01*
X63790000Y-67710000D02*
X64790000Y-68710000D01*
X64236934Y-54267500D02*
X64236934Y-52867500D01*
X63536934Y-53567500D02*
X64936934Y-53567500D01*
X76550000Y-50500000D02*
G75*
G03X76550000Y-50500000I-7000000J0D01*
G01*
X63540000Y-31500000D02*
X60640000Y-31500000D01*
X63540000Y-35400000D02*
X63540000Y-31500000D01*
X60640000Y-35400000D02*
X63540000Y-35400000D01*
X60640000Y-31500000D02*
X60640000Y-35400000D01*
X63090000Y-33450000D02*
G75*
G03X63090000Y-33450000I-1000000J0D01*
G01*
X62970000Y-37510000D02*
X62970000Y-36710000D01*
X62970000Y-36710000D02*
X61370000Y-36710000D01*
X61370000Y-36710000D02*
X61370000Y-37510000D01*
X61370000Y-37510000D02*
X62970000Y-37510000D01*
X70633333Y-42023809D02*
X70609523Y-42000000D01*
X70561904Y-41976190D01*
X70442857Y-41976190D01*
X70395238Y-42000000D01*
X70371428Y-42023809D01*
X70347619Y-42071428D01*
X70347619Y-42119047D01*
X70371428Y-42190476D01*
X70657142Y-42476190D01*
X70347619Y-42476190D01*
X70157142Y-42023809D02*
X70133333Y-42000000D01*
X70085714Y-41976190D01*
X69966666Y-41976190D01*
X69919047Y-42000000D01*
X69895238Y-42023809D01*
X69871428Y-42071428D01*
X69871428Y-42119047D01*
X69895238Y-42190476D01*
X70180952Y-42476190D01*
X69871428Y-42476190D01*
X69561904Y-41976190D02*
X69514285Y-41976190D01*
X69466666Y-42000000D01*
X69442857Y-42023809D01*
X69419047Y-42071428D01*
X69395238Y-42166666D01*
X69395238Y-42285714D01*
X69419047Y-42380952D01*
X69442857Y-42428571D01*
X69466666Y-42452380D01*
X69514285Y-42476190D01*
X69561904Y-42476190D01*
X69609523Y-42452380D01*
X69633333Y-42428571D01*
X69657142Y-42380952D01*
X69680952Y-42285714D01*
X69680952Y-42166666D01*
X69657142Y-42071428D01*
X69633333Y-42023809D01*
X69609523Y-42000000D01*
X69561904Y-41976190D01*
X69085714Y-41976190D02*
X69038095Y-41976190D01*
X68990476Y-42000000D01*
X68966666Y-42023809D01*
X68942857Y-42071428D01*
X68919047Y-42166666D01*
X68919047Y-42285714D01*
X68942857Y-42380952D01*
X68966666Y-42428571D01*
X68990476Y-42452380D01*
X69038095Y-42476190D01*
X69085714Y-42476190D01*
X69133333Y-42452380D01*
X69157142Y-42428571D01*
X69180952Y-42380952D01*
X69204761Y-42285714D01*
X69204761Y-42166666D01*
X69180952Y-42071428D01*
X69157142Y-42023809D01*
X69133333Y-42000000D01*
X69085714Y-41976190D01*
X68490476Y-42142857D02*
X68490476Y-42476190D01*
X68704761Y-42142857D02*
X68704761Y-42404761D01*
X68680952Y-42452380D01*
X68633333Y-42476190D01*
X68561904Y-42476190D01*
X68514285Y-42452380D01*
X68490476Y-42428571D01*
X69633333Y-50678571D02*
X69657142Y-50702380D01*
X69728571Y-50726190D01*
X69776190Y-50726190D01*
X69847619Y-50702380D01*
X69895238Y-50654761D01*
X69919047Y-50607142D01*
X69942857Y-50511904D01*
X69942857Y-50440476D01*
X69919047Y-50345238D01*
X69895238Y-50297619D01*
X69847619Y-50250000D01*
X69776190Y-50226190D01*
X69728571Y-50226190D01*
X69657142Y-50250000D01*
X69633333Y-50273809D01*
X69157142Y-50726190D02*
X69442857Y-50726190D01*
X69300000Y-50726190D02*
X69300000Y-50226190D01*
X69347619Y-50297619D01*
X69395238Y-50345238D01*
X69442857Y-50369047D01*
X62292380Y-32783333D02*
X62316190Y-32854761D01*
X62316190Y-32973809D01*
X62292380Y-33021428D01*
X62268571Y-33045238D01*
X62220952Y-33069047D01*
X62173333Y-33069047D01*
X62125714Y-33045238D01*
X62101904Y-33021428D01*
X62078095Y-32973809D01*
X62054285Y-32878571D01*
X62030476Y-32830952D01*
X62006666Y-32807142D01*
X61959047Y-32783333D01*
X61911428Y-32783333D01*
X61863809Y-32807142D01*
X61840000Y-32830952D01*
X61816190Y-32878571D01*
X61816190Y-32997619D01*
X61840000Y-33069047D01*
X61816190Y-33235714D02*
X62316190Y-33354761D01*
X61959047Y-33450000D01*
X62316190Y-33545238D01*
X61816190Y-33664285D01*
X62316190Y-34116666D02*
X62316190Y-33830952D01*
X62316190Y-33973809D02*
X61816190Y-33973809D01*
X61887619Y-33926190D01*
X61935238Y-33878571D01*
X61959047Y-33830952D01*
X62253333Y-37336190D02*
X62420000Y-37098095D01*
X62539047Y-37336190D02*
X62539047Y-36836190D01*
X62348571Y-36836190D01*
X62300952Y-36860000D01*
X62277142Y-36883809D01*
X62253333Y-36931428D01*
X62253333Y-37002857D01*
X62277142Y-37050476D01*
X62300952Y-37074285D01*
X62348571Y-37098095D01*
X62539047Y-37098095D01*
X61824761Y-36836190D02*
X61920000Y-36836190D01*
X61967619Y-36860000D01*
X61991428Y-36883809D01*
X62039047Y-36955238D01*
X62062857Y-37050476D01*
X62062857Y-37240952D01*
X62039047Y-37288571D01*
X62015238Y-37312380D01*
X61967619Y-37336190D01*
X61872380Y-37336190D01*
X61824761Y-37312380D01*
X61800952Y-37288571D01*
X61777142Y-37240952D01*
X61777142Y-37121904D01*
X61800952Y-37074285D01*
X61824761Y-37050476D01*
X61872380Y-37026666D01*
X61967619Y-37026666D01*
X62015238Y-37050476D01*
X62039047Y-37074285D01*
X62062857Y-37121904D01*
M02*
