M48
METRIC,TZ
T1C0.400
T2C1.000
T3C1.200
T4C1.760
T5C5.000
%
G90
G05
T1
X61410Y-37040
X62740Y-68610
X63520Y-33395
X64060Y-60640
X64060Y-73350
X65240Y-70510
X65480Y-72250
X65640Y-57550
X66130Y-70480
X66370Y-58530
X67370Y-58200
X67432Y-53490
X67453Y-55130
X67600Y-65210
X67710Y-60650
X68730Y-74440
X68850Y-58750
X69080Y-45270
X69150Y-53510
X69170Y-73120
X69300Y-71470
X69447Y-60580
X70380Y-67059
X71850Y-73860
X71970Y-70000
X72220Y-52500
X72907Y-47833
X75360Y-63763
X75360Y-65638
T2
X72790Y-61760
X72790Y-66960
X72790Y-71960
T3
X65800Y-50500
X73300Y-50500
T4
X63440Y-43020
X63600Y-58020
X75440Y-43020
X75440Y-58020
T5
X69081Y-40620
T0
M30
