G04 #@! TF.GenerationSoftware,KiCad,Pcbnew,(5.99.0-168-g9990dcc1b)*
G04 #@! TF.CreationDate,2019-12-17T14:25:06+03:00*
G04 #@! TF.ProjectId,SmartPartsIONBoard,536d6172-7450-4617-9274-73494f4e426f,rev?*
G04 #@! TF.SameCoordinates,Original*
G04 #@! TF.FileFunction,Paste,Bot*
G04 #@! TF.FilePolarity,Positive*
%FSLAX46Y46*%
G04 Gerber Fmt 4.6, Leading zero omitted, Abs format (unit mm)*
G04 Created by KiCad (PCBNEW (5.99.0-168-g9990dcc1b)) date 2019-12-17 14:25:06*
%MOMM*%
%LPD*%
G04 APERTURE LIST*
%ADD10C,0.100000*%
%ADD11C,0.250000*%
%ADD12C,0.830000*%
%ADD13C,0.800000*%
%ADD14C,0.875000*%
G04 APERTURE END LIST*
D10*
G36*
X64626418Y-68214758D02*
G01*
X64646694Y-68228306D01*
X64660242Y-68248582D01*
X64665000Y-68272500D01*
X64665000Y-69022500D01*
X64660242Y-69046418D01*
X64646694Y-69066694D01*
X64626418Y-69080242D01*
X64602500Y-69085000D01*
X64477500Y-69085000D01*
X64453582Y-69080242D01*
X64433306Y-69066694D01*
X64419758Y-69046418D01*
X64415000Y-69022500D01*
X64415000Y-68272500D01*
X64419758Y-68248582D01*
X64433306Y-68228306D01*
X64453582Y-68214758D01*
X64477500Y-68210000D01*
X64602500Y-68210000D01*
X64626418Y-68214758D01*
X64626418Y-68214758D01*
G37*
D11*
X64540000Y-68647500D03*
D10*
G36*
X65126418Y-68214758D02*
G01*
X65146694Y-68228306D01*
X65160242Y-68248582D01*
X65165000Y-68272500D01*
X65165000Y-69022500D01*
X65160242Y-69046418D01*
X65146694Y-69066694D01*
X65126418Y-69080242D01*
X65102500Y-69085000D01*
X64977500Y-69085000D01*
X64953582Y-69080242D01*
X64933306Y-69066694D01*
X64919758Y-69046418D01*
X64915000Y-69022500D01*
X64915000Y-68272500D01*
X64919758Y-68248582D01*
X64933306Y-68228306D01*
X64953582Y-68214758D01*
X64977500Y-68210000D01*
X65102500Y-68210000D01*
X65126418Y-68214758D01*
X65126418Y-68214758D01*
G37*
D11*
X65040000Y-68647500D03*
D10*
G36*
X65626418Y-68214758D02*
G01*
X65646694Y-68228306D01*
X65660242Y-68248582D01*
X65665000Y-68272500D01*
X65665000Y-69022500D01*
X65660242Y-69046418D01*
X65646694Y-69066694D01*
X65626418Y-69080242D01*
X65602500Y-69085000D01*
X65477500Y-69085000D01*
X65453582Y-69080242D01*
X65433306Y-69066694D01*
X65419758Y-69046418D01*
X65415000Y-69022500D01*
X65415000Y-68272500D01*
X65419758Y-68248582D01*
X65433306Y-68228306D01*
X65453582Y-68214758D01*
X65477500Y-68210000D01*
X65602500Y-68210000D01*
X65626418Y-68214758D01*
X65626418Y-68214758D01*
G37*
D11*
X65540000Y-68647500D03*
D10*
G36*
X66126418Y-68214758D02*
G01*
X66146694Y-68228306D01*
X66160242Y-68248582D01*
X66165000Y-68272500D01*
X66165000Y-69022500D01*
X66160242Y-69046418D01*
X66146694Y-69066694D01*
X66126418Y-69080242D01*
X66102500Y-69085000D01*
X65977500Y-69085000D01*
X65953582Y-69080242D01*
X65933306Y-69066694D01*
X65919758Y-69046418D01*
X65915000Y-69022500D01*
X65915000Y-68272500D01*
X65919758Y-68248582D01*
X65933306Y-68228306D01*
X65953582Y-68214758D01*
X65977500Y-68210000D01*
X66102500Y-68210000D01*
X66126418Y-68214758D01*
X66126418Y-68214758D01*
G37*
D11*
X66040000Y-68647500D03*
D10*
G36*
X66626418Y-68214758D02*
G01*
X66646694Y-68228306D01*
X66660242Y-68248582D01*
X66665000Y-68272500D01*
X66665000Y-69022500D01*
X66660242Y-69046418D01*
X66646694Y-69066694D01*
X66626418Y-69080242D01*
X66602500Y-69085000D01*
X66477500Y-69085000D01*
X66453582Y-69080242D01*
X66433306Y-69066694D01*
X66419758Y-69046418D01*
X66415000Y-69022500D01*
X66415000Y-68272500D01*
X66419758Y-68248582D01*
X66433306Y-68228306D01*
X66453582Y-68214758D01*
X66477500Y-68210000D01*
X66602500Y-68210000D01*
X66626418Y-68214758D01*
X66626418Y-68214758D01*
G37*
D11*
X66540000Y-68647500D03*
D10*
G36*
X67126418Y-68214758D02*
G01*
X67146694Y-68228306D01*
X67160242Y-68248582D01*
X67165000Y-68272500D01*
X67165000Y-69022500D01*
X67160242Y-69046418D01*
X67146694Y-69066694D01*
X67126418Y-69080242D01*
X67102500Y-69085000D01*
X66977500Y-69085000D01*
X66953582Y-69080242D01*
X66933306Y-69066694D01*
X66919758Y-69046418D01*
X66915000Y-69022500D01*
X66915000Y-68272500D01*
X66919758Y-68248582D01*
X66933306Y-68228306D01*
X66953582Y-68214758D01*
X66977500Y-68210000D01*
X67102500Y-68210000D01*
X67126418Y-68214758D01*
X67126418Y-68214758D01*
G37*
D11*
X67040000Y-68647500D03*
D10*
G36*
X67626418Y-68214758D02*
G01*
X67646694Y-68228306D01*
X67660242Y-68248582D01*
X67665000Y-68272500D01*
X67665000Y-69022500D01*
X67660242Y-69046418D01*
X67646694Y-69066694D01*
X67626418Y-69080242D01*
X67602500Y-69085000D01*
X67477500Y-69085000D01*
X67453582Y-69080242D01*
X67433306Y-69066694D01*
X67419758Y-69046418D01*
X67415000Y-69022500D01*
X67415000Y-68272500D01*
X67419758Y-68248582D01*
X67433306Y-68228306D01*
X67453582Y-68214758D01*
X67477500Y-68210000D01*
X67602500Y-68210000D01*
X67626418Y-68214758D01*
X67626418Y-68214758D01*
G37*
D11*
X67540000Y-68647500D03*
D10*
G36*
X68126418Y-68214758D02*
G01*
X68146694Y-68228306D01*
X68160242Y-68248582D01*
X68165000Y-68272500D01*
X68165000Y-69022500D01*
X68160242Y-69046418D01*
X68146694Y-69066694D01*
X68126418Y-69080242D01*
X68102500Y-69085000D01*
X67977500Y-69085000D01*
X67953582Y-69080242D01*
X67933306Y-69066694D01*
X67919758Y-69046418D01*
X67915000Y-69022500D01*
X67915000Y-68272500D01*
X67919758Y-68248582D01*
X67933306Y-68228306D01*
X67953582Y-68214758D01*
X67977500Y-68210000D01*
X68102500Y-68210000D01*
X68126418Y-68214758D01*
X68126418Y-68214758D01*
G37*
D11*
X68040000Y-68647500D03*
D10*
G36*
X69126418Y-67839758D02*
G01*
X69146694Y-67853306D01*
X69160242Y-67873582D01*
X69165000Y-67897500D01*
X69165000Y-68022500D01*
X69160242Y-68046418D01*
X69146694Y-68066694D01*
X69126418Y-68080242D01*
X69102500Y-68085000D01*
X68352500Y-68085000D01*
X68328582Y-68080242D01*
X68308306Y-68066694D01*
X68294758Y-68046418D01*
X68290000Y-68022500D01*
X68290000Y-67897500D01*
X68294758Y-67873582D01*
X68308306Y-67853306D01*
X68328582Y-67839758D01*
X68352500Y-67835000D01*
X69102500Y-67835000D01*
X69126418Y-67839758D01*
X69126418Y-67839758D01*
G37*
D11*
X68727500Y-67960000D03*
D10*
G36*
X69126418Y-67339758D02*
G01*
X69146694Y-67353306D01*
X69160242Y-67373582D01*
X69165000Y-67397500D01*
X69165000Y-67522500D01*
X69160242Y-67546418D01*
X69146694Y-67566694D01*
X69126418Y-67580242D01*
X69102500Y-67585000D01*
X68352500Y-67585000D01*
X68328582Y-67580242D01*
X68308306Y-67566694D01*
X68294758Y-67546418D01*
X68290000Y-67522500D01*
X68290000Y-67397500D01*
X68294758Y-67373582D01*
X68308306Y-67353306D01*
X68328582Y-67339758D01*
X68352500Y-67335000D01*
X69102500Y-67335000D01*
X69126418Y-67339758D01*
X69126418Y-67339758D01*
G37*
D11*
X68727500Y-67460000D03*
D10*
G36*
X69126418Y-66839758D02*
G01*
X69146694Y-66853306D01*
X69160242Y-66873582D01*
X69165000Y-66897500D01*
X69165000Y-67022500D01*
X69160242Y-67046418D01*
X69146694Y-67066694D01*
X69126418Y-67080242D01*
X69102500Y-67085000D01*
X68352500Y-67085000D01*
X68328582Y-67080242D01*
X68308306Y-67066694D01*
X68294758Y-67046418D01*
X68290000Y-67022500D01*
X68290000Y-66897500D01*
X68294758Y-66873582D01*
X68308306Y-66853306D01*
X68328582Y-66839758D01*
X68352500Y-66835000D01*
X69102500Y-66835000D01*
X69126418Y-66839758D01*
X69126418Y-66839758D01*
G37*
D11*
X68727500Y-66960000D03*
D10*
G36*
X69126418Y-66339758D02*
G01*
X69146694Y-66353306D01*
X69160242Y-66373582D01*
X69165000Y-66397500D01*
X69165000Y-66522500D01*
X69160242Y-66546418D01*
X69146694Y-66566694D01*
X69126418Y-66580242D01*
X69102500Y-66585000D01*
X68352500Y-66585000D01*
X68328582Y-66580242D01*
X68308306Y-66566694D01*
X68294758Y-66546418D01*
X68290000Y-66522500D01*
X68290000Y-66397500D01*
X68294758Y-66373582D01*
X68308306Y-66353306D01*
X68328582Y-66339758D01*
X68352500Y-66335000D01*
X69102500Y-66335000D01*
X69126418Y-66339758D01*
X69126418Y-66339758D01*
G37*
D11*
X68727500Y-66460000D03*
D10*
G36*
X69126418Y-65839758D02*
G01*
X69146694Y-65853306D01*
X69160242Y-65873582D01*
X69165000Y-65897500D01*
X69165000Y-66022500D01*
X69160242Y-66046418D01*
X69146694Y-66066694D01*
X69126418Y-66080242D01*
X69102500Y-66085000D01*
X68352500Y-66085000D01*
X68328582Y-66080242D01*
X68308306Y-66066694D01*
X68294758Y-66046418D01*
X68290000Y-66022500D01*
X68290000Y-65897500D01*
X68294758Y-65873582D01*
X68308306Y-65853306D01*
X68328582Y-65839758D01*
X68352500Y-65835000D01*
X69102500Y-65835000D01*
X69126418Y-65839758D01*
X69126418Y-65839758D01*
G37*
D11*
X68727500Y-65960000D03*
D10*
G36*
X69126418Y-65339758D02*
G01*
X69146694Y-65353306D01*
X69160242Y-65373582D01*
X69165000Y-65397500D01*
X69165000Y-65522500D01*
X69160242Y-65546418D01*
X69146694Y-65566694D01*
X69126418Y-65580242D01*
X69102500Y-65585000D01*
X68352500Y-65585000D01*
X68328582Y-65580242D01*
X68308306Y-65566694D01*
X68294758Y-65546418D01*
X68290000Y-65522500D01*
X68290000Y-65397500D01*
X68294758Y-65373582D01*
X68308306Y-65353306D01*
X68328582Y-65339758D01*
X68352500Y-65335000D01*
X69102500Y-65335000D01*
X69126418Y-65339758D01*
X69126418Y-65339758D01*
G37*
D11*
X68727500Y-65460000D03*
D10*
G36*
X69126418Y-64839758D02*
G01*
X69146694Y-64853306D01*
X69160242Y-64873582D01*
X69165000Y-64897500D01*
X69165000Y-65022500D01*
X69160242Y-65046418D01*
X69146694Y-65066694D01*
X69126418Y-65080242D01*
X69102500Y-65085000D01*
X68352500Y-65085000D01*
X68328582Y-65080242D01*
X68308306Y-65066694D01*
X68294758Y-65046418D01*
X68290000Y-65022500D01*
X68290000Y-64897500D01*
X68294758Y-64873582D01*
X68308306Y-64853306D01*
X68328582Y-64839758D01*
X68352500Y-64835000D01*
X69102500Y-64835000D01*
X69126418Y-64839758D01*
X69126418Y-64839758D01*
G37*
D11*
X68727500Y-64960000D03*
D10*
G36*
X69126418Y-64339758D02*
G01*
X69146694Y-64353306D01*
X69160242Y-64373582D01*
X69165000Y-64397500D01*
X69165000Y-64522500D01*
X69160242Y-64546418D01*
X69146694Y-64566694D01*
X69126418Y-64580242D01*
X69102500Y-64585000D01*
X68352500Y-64585000D01*
X68328582Y-64580242D01*
X68308306Y-64566694D01*
X68294758Y-64546418D01*
X68290000Y-64522500D01*
X68290000Y-64397500D01*
X68294758Y-64373582D01*
X68308306Y-64353306D01*
X68328582Y-64339758D01*
X68352500Y-64335000D01*
X69102500Y-64335000D01*
X69126418Y-64339758D01*
X69126418Y-64339758D01*
G37*
D11*
X68727500Y-64460000D03*
D10*
G36*
X68126418Y-63339758D02*
G01*
X68146694Y-63353306D01*
X68160242Y-63373582D01*
X68165000Y-63397500D01*
X68165000Y-64147500D01*
X68160242Y-64171418D01*
X68146694Y-64191694D01*
X68126418Y-64205242D01*
X68102500Y-64210000D01*
X67977500Y-64210000D01*
X67953582Y-64205242D01*
X67933306Y-64191694D01*
X67919758Y-64171418D01*
X67915000Y-64147500D01*
X67915000Y-63397500D01*
X67919758Y-63373582D01*
X67933306Y-63353306D01*
X67953582Y-63339758D01*
X67977500Y-63335000D01*
X68102500Y-63335000D01*
X68126418Y-63339758D01*
X68126418Y-63339758D01*
G37*
D11*
X68040000Y-63772500D03*
D10*
G36*
X67626418Y-63339758D02*
G01*
X67646694Y-63353306D01*
X67660242Y-63373582D01*
X67665000Y-63397500D01*
X67665000Y-64147500D01*
X67660242Y-64171418D01*
X67646694Y-64191694D01*
X67626418Y-64205242D01*
X67602500Y-64210000D01*
X67477500Y-64210000D01*
X67453582Y-64205242D01*
X67433306Y-64191694D01*
X67419758Y-64171418D01*
X67415000Y-64147500D01*
X67415000Y-63397500D01*
X67419758Y-63373582D01*
X67433306Y-63353306D01*
X67453582Y-63339758D01*
X67477500Y-63335000D01*
X67602500Y-63335000D01*
X67626418Y-63339758D01*
X67626418Y-63339758D01*
G37*
D11*
X67540000Y-63772500D03*
D10*
G36*
X67126418Y-63339758D02*
G01*
X67146694Y-63353306D01*
X67160242Y-63373582D01*
X67165000Y-63397500D01*
X67165000Y-64147500D01*
X67160242Y-64171418D01*
X67146694Y-64191694D01*
X67126418Y-64205242D01*
X67102500Y-64210000D01*
X66977500Y-64210000D01*
X66953582Y-64205242D01*
X66933306Y-64191694D01*
X66919758Y-64171418D01*
X66915000Y-64147500D01*
X66915000Y-63397500D01*
X66919758Y-63373582D01*
X66933306Y-63353306D01*
X66953582Y-63339758D01*
X66977500Y-63335000D01*
X67102500Y-63335000D01*
X67126418Y-63339758D01*
X67126418Y-63339758D01*
G37*
D11*
X67040000Y-63772500D03*
D10*
G36*
X66626418Y-63339758D02*
G01*
X66646694Y-63353306D01*
X66660242Y-63373582D01*
X66665000Y-63397500D01*
X66665000Y-64147500D01*
X66660242Y-64171418D01*
X66646694Y-64191694D01*
X66626418Y-64205242D01*
X66602500Y-64210000D01*
X66477500Y-64210000D01*
X66453582Y-64205242D01*
X66433306Y-64191694D01*
X66419758Y-64171418D01*
X66415000Y-64147500D01*
X66415000Y-63397500D01*
X66419758Y-63373582D01*
X66433306Y-63353306D01*
X66453582Y-63339758D01*
X66477500Y-63335000D01*
X66602500Y-63335000D01*
X66626418Y-63339758D01*
X66626418Y-63339758D01*
G37*
D11*
X66540000Y-63772500D03*
D10*
G36*
X66126418Y-63339758D02*
G01*
X66146694Y-63353306D01*
X66160242Y-63373582D01*
X66165000Y-63397500D01*
X66165000Y-64147500D01*
X66160242Y-64171418D01*
X66146694Y-64191694D01*
X66126418Y-64205242D01*
X66102500Y-64210000D01*
X65977500Y-64210000D01*
X65953582Y-64205242D01*
X65933306Y-64191694D01*
X65919758Y-64171418D01*
X65915000Y-64147500D01*
X65915000Y-63397500D01*
X65919758Y-63373582D01*
X65933306Y-63353306D01*
X65953582Y-63339758D01*
X65977500Y-63335000D01*
X66102500Y-63335000D01*
X66126418Y-63339758D01*
X66126418Y-63339758D01*
G37*
D11*
X66040000Y-63772500D03*
D10*
G36*
X65626418Y-63339758D02*
G01*
X65646694Y-63353306D01*
X65660242Y-63373582D01*
X65665000Y-63397500D01*
X65665000Y-64147500D01*
X65660242Y-64171418D01*
X65646694Y-64191694D01*
X65626418Y-64205242D01*
X65602500Y-64210000D01*
X65477500Y-64210000D01*
X65453582Y-64205242D01*
X65433306Y-64191694D01*
X65419758Y-64171418D01*
X65415000Y-64147500D01*
X65415000Y-63397500D01*
X65419758Y-63373582D01*
X65433306Y-63353306D01*
X65453582Y-63339758D01*
X65477500Y-63335000D01*
X65602500Y-63335000D01*
X65626418Y-63339758D01*
X65626418Y-63339758D01*
G37*
D11*
X65540000Y-63772500D03*
D10*
G36*
X65126418Y-63339758D02*
G01*
X65146694Y-63353306D01*
X65160242Y-63373582D01*
X65165000Y-63397500D01*
X65165000Y-64147500D01*
X65160242Y-64171418D01*
X65146694Y-64191694D01*
X65126418Y-64205242D01*
X65102500Y-64210000D01*
X64977500Y-64210000D01*
X64953582Y-64205242D01*
X64933306Y-64191694D01*
X64919758Y-64171418D01*
X64915000Y-64147500D01*
X64915000Y-63397500D01*
X64919758Y-63373582D01*
X64933306Y-63353306D01*
X64953582Y-63339758D01*
X64977500Y-63335000D01*
X65102500Y-63335000D01*
X65126418Y-63339758D01*
X65126418Y-63339758D01*
G37*
D11*
X65040000Y-63772500D03*
D10*
G36*
X64626418Y-63339758D02*
G01*
X64646694Y-63353306D01*
X64660242Y-63373582D01*
X64665000Y-63397500D01*
X64665000Y-64147500D01*
X64660242Y-64171418D01*
X64646694Y-64191694D01*
X64626418Y-64205242D01*
X64602500Y-64210000D01*
X64477500Y-64210000D01*
X64453582Y-64205242D01*
X64433306Y-64191694D01*
X64419758Y-64171418D01*
X64415000Y-64147500D01*
X64415000Y-63397500D01*
X64419758Y-63373582D01*
X64433306Y-63353306D01*
X64453582Y-63339758D01*
X64477500Y-63335000D01*
X64602500Y-63335000D01*
X64626418Y-63339758D01*
X64626418Y-63339758D01*
G37*
D11*
X64540000Y-63772500D03*
D10*
G36*
X64251418Y-64339758D02*
G01*
X64271694Y-64353306D01*
X64285242Y-64373582D01*
X64290000Y-64397500D01*
X64290000Y-64522500D01*
X64285242Y-64546418D01*
X64271694Y-64566694D01*
X64251418Y-64580242D01*
X64227500Y-64585000D01*
X63477500Y-64585000D01*
X63453582Y-64580242D01*
X63433306Y-64566694D01*
X63419758Y-64546418D01*
X63415000Y-64522500D01*
X63415000Y-64397500D01*
X63419758Y-64373582D01*
X63433306Y-64353306D01*
X63453582Y-64339758D01*
X63477500Y-64335000D01*
X64227500Y-64335000D01*
X64251418Y-64339758D01*
X64251418Y-64339758D01*
G37*
D11*
X63852500Y-64460000D03*
D10*
G36*
X64251418Y-64839758D02*
G01*
X64271694Y-64853306D01*
X64285242Y-64873582D01*
X64290000Y-64897500D01*
X64290000Y-65022500D01*
X64285242Y-65046418D01*
X64271694Y-65066694D01*
X64251418Y-65080242D01*
X64227500Y-65085000D01*
X63477500Y-65085000D01*
X63453582Y-65080242D01*
X63433306Y-65066694D01*
X63419758Y-65046418D01*
X63415000Y-65022500D01*
X63415000Y-64897500D01*
X63419758Y-64873582D01*
X63433306Y-64853306D01*
X63453582Y-64839758D01*
X63477500Y-64835000D01*
X64227500Y-64835000D01*
X64251418Y-64839758D01*
X64251418Y-64839758D01*
G37*
D11*
X63852500Y-64960000D03*
D10*
G36*
X64251418Y-65339758D02*
G01*
X64271694Y-65353306D01*
X64285242Y-65373582D01*
X64290000Y-65397500D01*
X64290000Y-65522500D01*
X64285242Y-65546418D01*
X64271694Y-65566694D01*
X64251418Y-65580242D01*
X64227500Y-65585000D01*
X63477500Y-65585000D01*
X63453582Y-65580242D01*
X63433306Y-65566694D01*
X63419758Y-65546418D01*
X63415000Y-65522500D01*
X63415000Y-65397500D01*
X63419758Y-65373582D01*
X63433306Y-65353306D01*
X63453582Y-65339758D01*
X63477500Y-65335000D01*
X64227500Y-65335000D01*
X64251418Y-65339758D01*
X64251418Y-65339758D01*
G37*
D11*
X63852500Y-65460000D03*
D10*
G36*
X64251418Y-65839758D02*
G01*
X64271694Y-65853306D01*
X64285242Y-65873582D01*
X64290000Y-65897500D01*
X64290000Y-66022500D01*
X64285242Y-66046418D01*
X64271694Y-66066694D01*
X64251418Y-66080242D01*
X64227500Y-66085000D01*
X63477500Y-66085000D01*
X63453582Y-66080242D01*
X63433306Y-66066694D01*
X63419758Y-66046418D01*
X63415000Y-66022500D01*
X63415000Y-65897500D01*
X63419758Y-65873582D01*
X63433306Y-65853306D01*
X63453582Y-65839758D01*
X63477500Y-65835000D01*
X64227500Y-65835000D01*
X64251418Y-65839758D01*
X64251418Y-65839758D01*
G37*
D11*
X63852500Y-65960000D03*
D10*
G36*
X64251418Y-66339758D02*
G01*
X64271694Y-66353306D01*
X64285242Y-66373582D01*
X64290000Y-66397500D01*
X64290000Y-66522500D01*
X64285242Y-66546418D01*
X64271694Y-66566694D01*
X64251418Y-66580242D01*
X64227500Y-66585000D01*
X63477500Y-66585000D01*
X63453582Y-66580242D01*
X63433306Y-66566694D01*
X63419758Y-66546418D01*
X63415000Y-66522500D01*
X63415000Y-66397500D01*
X63419758Y-66373582D01*
X63433306Y-66353306D01*
X63453582Y-66339758D01*
X63477500Y-66335000D01*
X64227500Y-66335000D01*
X64251418Y-66339758D01*
X64251418Y-66339758D01*
G37*
D11*
X63852500Y-66460000D03*
D10*
G36*
X64251418Y-66839758D02*
G01*
X64271694Y-66853306D01*
X64285242Y-66873582D01*
X64290000Y-66897500D01*
X64290000Y-67022500D01*
X64285242Y-67046418D01*
X64271694Y-67066694D01*
X64251418Y-67080242D01*
X64227500Y-67085000D01*
X63477500Y-67085000D01*
X63453582Y-67080242D01*
X63433306Y-67066694D01*
X63419758Y-67046418D01*
X63415000Y-67022500D01*
X63415000Y-66897500D01*
X63419758Y-66873582D01*
X63433306Y-66853306D01*
X63453582Y-66839758D01*
X63477500Y-66835000D01*
X64227500Y-66835000D01*
X64251418Y-66839758D01*
X64251418Y-66839758D01*
G37*
D11*
X63852500Y-66960000D03*
D10*
G36*
X64251418Y-67339758D02*
G01*
X64271694Y-67353306D01*
X64285242Y-67373582D01*
X64290000Y-67397500D01*
X64290000Y-67522500D01*
X64285242Y-67546418D01*
X64271694Y-67566694D01*
X64251418Y-67580242D01*
X64227500Y-67585000D01*
X63477500Y-67585000D01*
X63453582Y-67580242D01*
X63433306Y-67566694D01*
X63419758Y-67546418D01*
X63415000Y-67522500D01*
X63415000Y-67397500D01*
X63419758Y-67373582D01*
X63433306Y-67353306D01*
X63453582Y-67339758D01*
X63477500Y-67335000D01*
X64227500Y-67335000D01*
X64251418Y-67339758D01*
X64251418Y-67339758D01*
G37*
D11*
X63852500Y-67460000D03*
D10*
G36*
X64251418Y-67839758D02*
G01*
X64271694Y-67853306D01*
X64285242Y-67873582D01*
X64290000Y-67897500D01*
X64290000Y-68022500D01*
X64285242Y-68046418D01*
X64271694Y-68066694D01*
X64251418Y-68080242D01*
X64227500Y-68085000D01*
X63477500Y-68085000D01*
X63453582Y-68080242D01*
X63433306Y-68066694D01*
X63419758Y-68046418D01*
X63415000Y-68022500D01*
X63415000Y-67897500D01*
X63419758Y-67873582D01*
X63433306Y-67853306D01*
X63453582Y-67839758D01*
X63477500Y-67835000D01*
X64227500Y-67835000D01*
X64251418Y-67839758D01*
X64251418Y-67839758D01*
G37*
D11*
X63852500Y-67960000D03*
D10*
G36*
X67606907Y-64780795D02*
G01*
X67674225Y-64825775D01*
X67719205Y-64893093D01*
X67735000Y-64972500D01*
X67735000Y-65387500D01*
X67719205Y-65466907D01*
X67674225Y-65534225D01*
X67606907Y-65579205D01*
X67527500Y-65595000D01*
X67112500Y-65595000D01*
X67033093Y-65579205D01*
X66965775Y-65534225D01*
X66920795Y-65466907D01*
X66905000Y-65387500D01*
X66905000Y-64972500D01*
X66920795Y-64893093D01*
X66965775Y-64825775D01*
X67033093Y-64780795D01*
X67112500Y-64765000D01*
X67527500Y-64765000D01*
X67606907Y-64780795D01*
X67606907Y-64780795D01*
G37*
D12*
X67320000Y-65180000D03*
D10*
G36*
X67606907Y-65810795D02*
G01*
X67674225Y-65855775D01*
X67719205Y-65923093D01*
X67735000Y-66002500D01*
X67735000Y-66417500D01*
X67719205Y-66496907D01*
X67674225Y-66564225D01*
X67606907Y-66609205D01*
X67527500Y-66625000D01*
X67112500Y-66625000D01*
X67033093Y-66609205D01*
X66965775Y-66564225D01*
X66920795Y-66496907D01*
X66905000Y-66417500D01*
X66905000Y-66002500D01*
X66920795Y-65923093D01*
X66965775Y-65855775D01*
X67033093Y-65810795D01*
X67112500Y-65795000D01*
X67527500Y-65795000D01*
X67606907Y-65810795D01*
X67606907Y-65810795D01*
G37*
D12*
X67320000Y-66210000D03*
D10*
G36*
X67606907Y-66840795D02*
G01*
X67674225Y-66885775D01*
X67719205Y-66953093D01*
X67735000Y-67032500D01*
X67735000Y-67447500D01*
X67719205Y-67526907D01*
X67674225Y-67594225D01*
X67606907Y-67639205D01*
X67527500Y-67655000D01*
X67112500Y-67655000D01*
X67033093Y-67639205D01*
X66965775Y-67594225D01*
X66920795Y-67526907D01*
X66905000Y-67447500D01*
X66905000Y-67032500D01*
X66920795Y-66953093D01*
X66965775Y-66885775D01*
X67033093Y-66840795D01*
X67112500Y-66825000D01*
X67527500Y-66825000D01*
X67606907Y-66840795D01*
X67606907Y-66840795D01*
G37*
D12*
X67320000Y-67240000D03*
D10*
G36*
X66576907Y-64780795D02*
G01*
X66644225Y-64825775D01*
X66689205Y-64893093D01*
X66705000Y-64972500D01*
X66705000Y-65387500D01*
X66689205Y-65466907D01*
X66644225Y-65534225D01*
X66576907Y-65579205D01*
X66497500Y-65595000D01*
X66082500Y-65595000D01*
X66003093Y-65579205D01*
X65935775Y-65534225D01*
X65890795Y-65466907D01*
X65875000Y-65387500D01*
X65875000Y-64972500D01*
X65890795Y-64893093D01*
X65935775Y-64825775D01*
X66003093Y-64780795D01*
X66082500Y-64765000D01*
X66497500Y-64765000D01*
X66576907Y-64780795D01*
X66576907Y-64780795D01*
G37*
D12*
X66290000Y-65180000D03*
D10*
G36*
X66576907Y-65810795D02*
G01*
X66644225Y-65855775D01*
X66689205Y-65923093D01*
X66705000Y-66002500D01*
X66705000Y-66417500D01*
X66689205Y-66496907D01*
X66644225Y-66564225D01*
X66576907Y-66609205D01*
X66497500Y-66625000D01*
X66082500Y-66625000D01*
X66003093Y-66609205D01*
X65935775Y-66564225D01*
X65890795Y-66496907D01*
X65875000Y-66417500D01*
X65875000Y-66002500D01*
X65890795Y-65923093D01*
X65935775Y-65855775D01*
X66003093Y-65810795D01*
X66082500Y-65795000D01*
X66497500Y-65795000D01*
X66576907Y-65810795D01*
X66576907Y-65810795D01*
G37*
D12*
X66290000Y-66210000D03*
D10*
G36*
X66576907Y-66840795D02*
G01*
X66644225Y-66885775D01*
X66689205Y-66953093D01*
X66705000Y-67032500D01*
X66705000Y-67447500D01*
X66689205Y-67526907D01*
X66644225Y-67594225D01*
X66576907Y-67639205D01*
X66497500Y-67655000D01*
X66082500Y-67655000D01*
X66003093Y-67639205D01*
X65935775Y-67594225D01*
X65890795Y-67526907D01*
X65875000Y-67447500D01*
X65875000Y-67032500D01*
X65890795Y-66953093D01*
X65935775Y-66885775D01*
X66003093Y-66840795D01*
X66082500Y-66825000D01*
X66497500Y-66825000D01*
X66576907Y-66840795D01*
X66576907Y-66840795D01*
G37*
D12*
X66290000Y-67240000D03*
D10*
G36*
X65546907Y-64780795D02*
G01*
X65614225Y-64825775D01*
X65659205Y-64893093D01*
X65675000Y-64972500D01*
X65675000Y-65387500D01*
X65659205Y-65466907D01*
X65614225Y-65534225D01*
X65546907Y-65579205D01*
X65467500Y-65595000D01*
X65052500Y-65595000D01*
X64973093Y-65579205D01*
X64905775Y-65534225D01*
X64860795Y-65466907D01*
X64845000Y-65387500D01*
X64845000Y-64972500D01*
X64860795Y-64893093D01*
X64905775Y-64825775D01*
X64973093Y-64780795D01*
X65052500Y-64765000D01*
X65467500Y-64765000D01*
X65546907Y-64780795D01*
X65546907Y-64780795D01*
G37*
D12*
X65260000Y-65180000D03*
D10*
G36*
X65546907Y-65810795D02*
G01*
X65614225Y-65855775D01*
X65659205Y-65923093D01*
X65675000Y-66002500D01*
X65675000Y-66417500D01*
X65659205Y-66496907D01*
X65614225Y-66564225D01*
X65546907Y-66609205D01*
X65467500Y-66625000D01*
X65052500Y-66625000D01*
X64973093Y-66609205D01*
X64905775Y-66564225D01*
X64860795Y-66496907D01*
X64845000Y-66417500D01*
X64845000Y-66002500D01*
X64860795Y-65923093D01*
X64905775Y-65855775D01*
X64973093Y-65810795D01*
X65052500Y-65795000D01*
X65467500Y-65795000D01*
X65546907Y-65810795D01*
X65546907Y-65810795D01*
G37*
D12*
X65260000Y-66210000D03*
D10*
G36*
X65546907Y-66840795D02*
G01*
X65614225Y-66885775D01*
X65659205Y-66953093D01*
X65675000Y-67032500D01*
X65675000Y-67447500D01*
X65659205Y-67526907D01*
X65614225Y-67594225D01*
X65546907Y-67639205D01*
X65467500Y-67655000D01*
X65052500Y-67655000D01*
X64973093Y-67639205D01*
X64905775Y-67594225D01*
X64860795Y-67526907D01*
X64845000Y-67447500D01*
X64845000Y-67032500D01*
X64860795Y-66953093D01*
X64905775Y-66885775D01*
X64973093Y-66840795D01*
X65052500Y-66825000D01*
X65467500Y-66825000D01*
X65546907Y-66840795D01*
X65546907Y-66840795D01*
G37*
D12*
X65260000Y-67240000D03*
D10*
G36*
X62966537Y-35165224D02*
G01*
X63031421Y-35208579D01*
X63074776Y-35273463D01*
X63090000Y-35350000D01*
X63090000Y-35750000D01*
X63074776Y-35826537D01*
X63031421Y-35891421D01*
X62966537Y-35934776D01*
X62890000Y-35950000D01*
X61290000Y-35950000D01*
X61213463Y-35934776D01*
X61148579Y-35891421D01*
X61105224Y-35826537D01*
X61090000Y-35750000D01*
X61090000Y-35350000D01*
X61105224Y-35273463D01*
X61148579Y-35208579D01*
X61213463Y-35165224D01*
X61290000Y-35150000D01*
X62890000Y-35150000D01*
X62966537Y-35165224D01*
X62966537Y-35165224D01*
G37*
D13*
X62090000Y-35550000D03*
D10*
G36*
X62966537Y-30965224D02*
G01*
X63031421Y-31008579D01*
X63074776Y-31073463D01*
X63090000Y-31150000D01*
X63090000Y-31550000D01*
X63074776Y-31626537D01*
X63031421Y-31691421D01*
X62966537Y-31734776D01*
X62890000Y-31750000D01*
X61290000Y-31750000D01*
X61213463Y-31734776D01*
X61148579Y-31691421D01*
X61105224Y-31626537D01*
X61090000Y-31550000D01*
X61090000Y-31150000D01*
X61105224Y-31073463D01*
X61148579Y-31008579D01*
X61213463Y-30965224D01*
X61290000Y-30950000D01*
X62890000Y-30950000D01*
X62966537Y-30965224D01*
X62966537Y-30965224D01*
G37*
D13*
X62090000Y-31350000D03*
D10*
G36*
X63259962Y-36651651D02*
G01*
X63330930Y-36699070D01*
X63378349Y-36770038D01*
X63395000Y-36853750D01*
X63395000Y-37366250D01*
X63378349Y-37449962D01*
X63330930Y-37520930D01*
X63259962Y-37568349D01*
X63176250Y-37585000D01*
X62738750Y-37585000D01*
X62655038Y-37568349D01*
X62584070Y-37520930D01*
X62536651Y-37449962D01*
X62520000Y-37366250D01*
X62520000Y-36853750D01*
X62536651Y-36770038D01*
X62584070Y-36699070D01*
X62655038Y-36651651D01*
X62738750Y-36635000D01*
X63176250Y-36635000D01*
X63259962Y-36651651D01*
X63259962Y-36651651D01*
G37*
D14*
X62957500Y-37110000D03*
D10*
G36*
X61684962Y-36651651D02*
G01*
X61755930Y-36699070D01*
X61803349Y-36770038D01*
X61820000Y-36853750D01*
X61820000Y-37366250D01*
X61803349Y-37449962D01*
X61755930Y-37520930D01*
X61684962Y-37568349D01*
X61601250Y-37585000D01*
X61163750Y-37585000D01*
X61080038Y-37568349D01*
X61009070Y-37520930D01*
X60961651Y-37449962D01*
X60945000Y-37366250D01*
X60945000Y-36853750D01*
X60961651Y-36770038D01*
X61009070Y-36699070D01*
X61080038Y-36651651D01*
X61163750Y-36635000D01*
X61601250Y-36635000D01*
X61684962Y-36651651D01*
X61684962Y-36651651D01*
G37*
D14*
X61382500Y-37110000D03*
M02*
